<?xml version="1.0" encoding="UTF-8"?>
<svg id="Layer_1" xmlns="http://www.w3.org/2000/svg" version="1.1" viewBox="0 0 1000 1000">
  <!-- Generator: Adobe Illustrator 30.0.0, SVG Export Plug-In . SVG Version: 2.1.1 Build 123)  -->
  <defs>
    <style>
      .st0, .st1 {
        fill: none;
      }

      .st2 {
        stroke: #2c323a;
        stroke-width: 2px;
      }

      .st2, .st3 {
        fill: #2c323a;
      }

      .st2, .st1 {
        stroke-miterlimit: 10;
      }

      .st4 {
        fill: #177700;
      }

      .st5 {
        fill: #009906;
      }

      .st6 {
        fill: #13dd00;
      }

      .st7 {
        fill: #fff;
      }

      .st1 {
        stroke: #000;
      }
    </style>
  </defs>
  <g id="illustration">
    <path class="st6" d="M523.3,868v46.8c0,48.8,55.4,50.3,55.4,4.5v-51.8l-55.4.5Z"/>
    <rect class="st7" x="535.7" y="889.3" width="30.6" height="4.4"/>
    <rect class="st7" x="535.7" y="897.7" width="30.6" height="4.4"/>
    <rect class="st7" x="535.7" y="906.2" width="30.6" height="4.4"/>
    <path class="st6" d="M420,868v46.8c0,48.8,55.4,50.3,55.4,4.5v-51.8l-55.4.5Z"/>
    <path class="st5" d="M394.4,493.8v384h99.7v-346.1h19.9v346.1h91.7v-384h-211.3Z"/>
    <rect class="st7" x="432.4" y="889.3" width="30.6" height="4.4"/>
    <rect class="st7" x="432.4" y="897.7" width="30.6" height="4.4"/>
    <rect class="st7" x="432.4" y="906.2" width="30.6" height="4.4"/>
    <path class="st4" d="M376.9,509c0-47.3,6-116.9,31.1-167.4,8.4-16.8,18.9-31.5,32-42.5,15.7-13.2,35.3-21.2,59.4-21.2s46.9,9.2,63.4,24.3c10.3,9.4,19,21.2,26.2,34.4,27.5,50.4,34.5,122.5,34.5,172.4h-246.6Z"/>
    <line class="st0" x1="616.8" y1="509.6" x2="384" y2="509.6"/>
    <ellipse class="st7" cx="500.9" cy="304.3" rx="22" ry="16.3"/>
    <path class="st4" d="M843.8,326.2l17-6.8s6.1,5.5,13,11.2-4.7,18.4-15.3,10.6c-10.7-7.8-14.7-15-14.7-15Z"/>
    <path class="st5" d="M285.8,267.1l3,56.8c58.9.3,93.5-2.3,119.3,17.7l48.7-50.2c-54.3-26.7-115-27.7-171-24.3Z"/>
    <path class="st5" d="M545.7,290.4l43.3,53.2c27-16.2,67.7-16.3,126.6-16.7v-56.8c-56-3.4-99.2-10.4-169.9,20.3Z"/>
    <path class="st6" d="M291,273.7c-47.7,2.7-123.1,8.9-160.2,14.2-37.1,5.3-40.1,40.1,5.3,39.5,45.4-.6,95.2-3.5,159.7-12.1l-4.8-41.6Z"/>
    <path class="st4" d="M155.6,326.2l-17-6.8s-6.1,5.5-13,11.2c-6.9,5.7,4.7,18.4,15.3,10.6,10.7-7.8,14.7-15,14.7-15Z"/>
    <path class="st6" d="M709.7,318.3c64.5,8.6,113.3,11.5,158.7,12.1s42.4-34.2,5.3-39.5c-37.1-5.3-114.5-11.5-162.2-14.2l-1.8,41.6Z"/>
    <path class="st5" d="M489.5,211.9h20.9s4.3,67.3,5.7,90.8c-2.1,9.7-9.1,11.3-15.5,11.1-8.2-.2-15.9-4.7-17.1-12.5l6-89.4Z"/>
    <path class="st4" d="M489.5,211.9h20.9c1.9,19-21.6,89.4-26.8,89.4l5.9-89.4Z"/>
    <path class="st4" d="M499,113c-27,0-89,8-56,64,24.8,42.1,88,44,110,3s-4-67-54-67Z"/>
    <circle class="st4" cx="560.2" cy="182.8" r="12.1"/>
    <circle class="st4" cx="437.6" cy="182.8" r="12.1"/>
    <ellipse class="st5" cx="499.8" cy="177.4" rx="57" ry="57.6"/>
    <g>
      <path id="rightMiddleLip" class="st4" d="M487.5,209.6c.3,0,.5.3.5.5s-.3.5-.5.5c-.3,0-.5-.3-.5-.5s.3-.5.5-.5Z"/>
      <circle id="upperLipBottomMid" class="st4" cx="499.3" cy="209.9" r=".5"/>
      <circle id="rightUpperLipBottom1" class="st4" cx="496.8" cy="209.6" r=".5"/>
      <path id="leftMiddleLip" class="st4" d="M511.1,209.6c.3,0,.5.3.5.5s-.3.5-.5.5-.5-.3-.5-.5.2-.5.5-.5Z"/>
      <circle id="leftUpperLipBottom1" class="st4" cx="501.8" cy="209.6" r=".5"/>
      <path class="st4" d="M488,210.1s7.7-.1,11.3-.1,11.9-.1,11.9-.1c0,0-6.9,2.6-11.9,2.6s-11.3-2.4-11.3-2.4Z"/>
      <circle id="lowerLipTopMid" class="st4" cx="499.3" cy="211.9" r=".5"/>
      <circle id="rightLowerLipTop0" class="st4" cx="496.8" cy="211.4" r=".5"/>
      <circle id="leftLowerLipTop0" class="st4" cx="501.8" cy="211.4" r=".5"/>
    </g>
    <g>
      <ellipse class="st4" cx="464.1" cy="196.5" rx="7.8" ry="6.2"/>
      <ellipse class="st4" cx="464" cy="180.6" rx="3.6" ry="5.8"/>
      <circle id="rightEye0" class="st4" cx="468.6" cy="160.2" r=".8"/>
      <circle id="rightEye1" class="st4" cx="473.8" cy="156.5" r=".8"/>
      <circle id="rightEye5" class="st4" cx="473.8" cy="162.5" r=".8"/>
      <circle id="rightEye2" class="st4" cx="480.1" cy="156.5" r=".8"/>
      <circle id="rightEye3" class="st4" cx="485.3" cy="160.7" r=".8"/>
      <circle id="rightEye4" class="st4" cx="480.1" cy="161.7" r=".8"/>
    </g>
    <g>
      <ellipse class="st4" cx="532.8" cy="179.6" rx="3.6" ry="5.8"/>
      <ellipse class="st4" cx="533.2" cy="196.5" rx="7.8" ry="6.2"/>
      <circle id="leftEye0" class="st4" cx="528.2" cy="160.2" r=".8"/>
      <circle id="leftEye1" class="st4" cx="523" cy="156.5" r=".8"/>
      <circle id="leftEye5" class="st4" cx="523" cy="162.5" r=".8"/>
      <circle id="leftEye2" class="st4" cx="516.7" cy="156.5" r=".8"/>
      <circle id="leftEye3" class="st4" cx="511.5" cy="160.7" r=".8"/>
      <circle id="leftEye4" class="st4" cx="516.7" cy="161.7" r=".8"/>
    </g>
    <g>
      <path class="st3" d="M518.8,159.9c10.7-5,14.2-5,19.2.7-5-.7-5.7,2.8-19.2-.7Z"/>
      <circle id="leftBrow1" cx="530.1" cy="148.7" r=".8"/>
      <circle id="leftBrow4" cx="506.5" cy="150.8" r=".8"/>
      <circle id="leftBrow3" cx="516.5" cy="147.6" r=".8"/>
      <circle id="leftBrow0" cx="534.1" cy="151.6" r=".8"/>
      <circle id="leftBrow2" cx="523.8" cy="147.2" r=".8"/>
    </g>
    <g>
      <path class="st3" d="M478,159.9c-10.7-5-14.2-5-19.2.7,5-.7,5.7,2.8,19.2-.7Z"/>
      <circle id="rightBrow1" cx="466.4" cy="148.3" r=".8"/>
      <circle id="rightBrow4" cx="489.7" cy="151.3" r=".8"/>
      <circle id="rightBrow3" cx="479.9" cy="147.3" r=".8"/>
      <circle id="rightBrow0" cx="462.4" cy="152" r=".8"/>
      <circle id="rightBrow2" cx="472.6" cy="147.3" r=".8"/>
    </g>
    <path class="st4" d="M456,138c1.9,7.7,62.3,20.7,82-3,10-12,9-22,4-25-4.4-2.6-9-6-22,6-1-9,1-15-16-17-27.8-3.3-52.4,21-48,39Z"/>
    <g>
      <path class="st2" d="M496.4,185.8c-1.2,0-4.6,1.6-5.8,5.2-.2,1.2.6,5.8,6,4.1-.1-1-4.7-1.1-4.5-3.7.3-1.8,2-1.8,4.3-5.6Z"/>
      <circle id="nose1" cx="497.6" cy="161.2" r=".8"/>
      <circle id="nose0" cx="497.6" cy="155.4" r=".8"/>
      <circle id="nose3" cx="497.6" cy="173.8" r=".8"/>
      <circle id="rightNose0" cx="486.9" cy="178.3" r=".8"/>
      <circle id="rightNose1" cx="492.1" cy="178.3" r=".8"/>
      <circle id="nose2" cx="497.6" cy="166.7" r=".8"/>
      <circle id="nose4" cx="497.6" cy="179.1" r=".8"/>
      <circle id="leftNose0" cx="508" cy="178.3" r=".8"/>
      <circle id="leftNose1" cx="503.2" cy="178.3" r=".8"/>
    </g>
  </g>
  <g id="skeleton">
    <circle id="rightShoulder" cx="392.8" cy="294.3" r="8.2"/>
    <circle id="rightElbow" cx="289.3" cy="294.4" r="8.2"/>
    <circle id="rightWrist" cx="125.9" cy="300.8" r="8.2" transform="translate(-56.5 30.5) rotate(-11.3)"/>
    <circle id="rightHip" cx="443.1" cy="510.1" r="8.2"/>
    <circle id="rightKnee" cx="449.5" cy="670.3" r="8.2"/>
    <circle id="rightAnkle" cx="449.5" cy="878.3" r="8.2"/>
    <circle id="leftShoulder" cx="605.7" cy="294.3" r="8.2"/>
    <circle id="leftElbow" cx="710.1" cy="294" r="8.2"/>
    <circle id="leftWrist" cx="873.5" cy="300.3" r="8.2"/>
    <circle id="leftHip" cx="559.5" cy="509.3" r="8.2"/>
    <circle id="leftKnee" cx="559.5" cy="670.3" r="8.2"/>
    <circle id="leftAnkle" cx="559.5" cy="878.3" r="8.2"/>
    <polygon class="st1" points="392.7 294.6 443 510.4 559.4 509.6 605.6 294.6 392.7 294.6"/>
    <polyline class="st1" points="391.7 294.6 289 294.6 125.7 300.9"/>
    <polyline class="st1" points="607.1 294.2 710.3 294.2 873.6 300.6"/>
    <polyline class="st1" points="443 510.4 449.4 670.6 449.4 878.6"/>
    <polyline class="st1" points="559.4 509.6 559.4 670.6 559.4 878.6"/>
    <circle id="rightEye01" data-name="rightEye0" cx="468.6" cy="160.2" r=".8"/>
    <circle id="rightBrow11" data-name="rightBrow1" cx="466.4" cy="148.3" r=".8"/>
    <circle id="rightBrow41" data-name="rightBrow4" cx="489.7" cy="151.3" r=".8"/>
    <circle id="nose11" data-name="nose1" cx="497.6" cy="161.2" r=".8"/>
    <circle id="rightBrow31" data-name="rightBrow3" cx="479.9" cy="147.3" r=".8"/>
    <circle id="rightEye11" data-name="rightEye1" cx="473.8" cy="156.5" r=".8"/>
    <circle id="rightBrow01" data-name="rightBrow0" cx="462.4" cy="152" r=".8"/>
    <circle id="rightBrow21" data-name="rightBrow2" cx="472.6" cy="147.3" r=".8"/>
    <circle id="rightEye51" data-name="rightEye5" cx="473.8" cy="162.5" r=".8"/>
    <circle id="rightEye21" data-name="rightEye2" cx="480.1" cy="156.5" r=".8"/>
    <circle id="rightEye31" data-name="rightEye3" cx="485.3" cy="160.7" r=".8"/>
    <circle id="nose01" data-name="nose0" cx="497.6" cy="155.4" r=".8"/>
    <circle id="nose31" data-name="nose3" cx="497.6" cy="173.8" r=".8"/>
    <circle id="rightNose01" data-name="rightNose0" cx="486.9" cy="178.3" r=".8"/>
    <circle id="rightMouthCorner" cx="480.9" cy="200.4" r=".8"/>
    <circle id="rightNose11" data-name="rightNose1" cx="492.1" cy="178.3" r=".8"/>
    <circle id="rightUpperLipTop0" cx="487.8" cy="197" r=".8"/>
    <circle id="nose21" data-name="nose2" cx="497.6" cy="166.7" r=".8"/>
    <circle id="nose41" data-name="nose4" cx="497.6" cy="179.1" r=".8"/>
    <circle id="upperLipTopMid" cx="498.4" cy="196.8" r=".8"/>
    <circle id="rightUpperLipTop1" cx="494.3" cy="195.9" r=".8"/>
    <path id="rightMiddleLip1" data-name="rightMiddleLip" d="M484.5,199.9c.4,0,.8.4.8.8s-.4.8-.8.8-.8-.4-.8-.8.4-.8.8-.8Z"/>
    <circle id="lowerLipBottomMid" cx="498.4" cy="210" r=".8"/>
    <circle id="upperLipBottomMid1" data-name="upperLipBottomMid" cx="498.4" cy="200.4" r=".8"/>
    <circle id="lowerLipTopMid1" data-name="lowerLipTopMid" cx="498.4" cy="203.5" r=".8"/>
    <circle id="rightUpperLipBottom11" data-name="rightUpperLipBottom1" cx="494.5" cy="199.9" r=".8"/>
    <circle id="rightLowerLipTop01" data-name="rightLowerLipTop0" cx="494.5" cy="202.8" r=".8"/>
    <circle id="rightLowerLipBottom1" cx="494.3" cy="209.5" r=".8"/>
    <circle id="rightLowerLipBottom0" cx="487.3" cy="206.7" r=".8"/>
    <circle id="rightEye41" data-name="rightEye4" cx="480.1" cy="161.7" r=".8"/>
    <circle id="jawMid" cx="498.4" cy="235.8" r=".8"/>
    <circle id="rightJaw7" cx="483.4" cy="232.6" r=".8"/>
    <circle id="rightJaw6" cx="473.4" cy="225.9" r=".8"/>
    <circle id="rightJaw5" cx="461.8" cy="213.4" r=".8"/>
    <circle id="rightJaw4" cx="455" cy="193.4" r=".8"/>
    <circle id="rightJaw3" cx="454.2" cy="171.7" r=".8"/>
    <circle id="rightJaw2" cx="454.2" cy="162.2" r=".8"/>
    <circle id="rightJaw1" cx="455" cy="150.5" r=".8"/>
    <circle id="rightJaw0" cx="457.5" cy="141.2" r=".8"/>
    <circle id="topMid" cx="498.6" cy="115.1" r=".8"/>
    <circle id="leftTop0" cx="518.3" cy="117.6" r=".8"/>
    <circle id="leftTop1" cx="530.9" cy="127.1" r=".8"/>
    <circle id="leftEye01" data-name="leftEye0" cx="528.2" cy="160.2" r=".8"/>
    <circle id="leftBrow11" data-name="leftBrow1" cx="530.1" cy="148.7" r=".8"/>
    <circle id="leftBrow41" data-name="leftBrow4" cx="506.5" cy="150.8" r=".8"/>
    <circle id="leftBrow31" data-name="leftBrow3" cx="516.5" cy="147.6" r=".8"/>
    <circle id="leftEye11" data-name="leftEye1" cx="523" cy="156.5" r=".8"/>
    <circle id="leftBrow01" data-name="leftBrow0" cx="534.1" cy="151.6" r=".8"/>
    <circle id="leftBrow21" data-name="leftBrow2" cx="523.8" cy="147.2" r=".8"/>
    <circle id="leftEye51" data-name="leftEye5" cx="523" cy="162.5" r=".8"/>
    <circle id="leftEye21" data-name="leftEye2" cx="516.7" cy="156.5" r=".8"/>
    <circle id="leftEye31" data-name="leftEye3" cx="511.5" cy="160.7" r=".8"/>
    <circle id="leftNose01" data-name="leftNose0" cx="508" cy="178.3" r=".8"/>
    <circle id="leftMouthCorner" cx="515.9" cy="200.4" r=".8"/>
    <circle id="leftNose11" data-name="leftNose1" cx="503.2" cy="178.3" r=".8"/>
    <circle id="leftUpperLipTop0" cx="509" cy="197" r=".8"/>
    <circle id="leftUpperLipTop1" cx="502.6" cy="195.9" r=".8"/>
    <path id="leftMiddleLip1" data-name="leftMiddleLip" d="M512.3,199.9c.4,0,.8.4.8.8s-.4.8-.8.8-.8-.4-.8-.8.4-.8.8-.8Z"/>
    <circle id="leftUpperLipBottom11" data-name="leftUpperLipBottom1" cx="502.4" cy="199.9" r=".8"/>
    <circle id="leftLowerLipTop01" data-name="leftLowerLipTop0" cx="502.4" cy="202.8" r=".8"/>
    <circle id="leftLowerLipBottom1" cx="502.6" cy="209.5" r=".8"/>
    <circle id="leftLowerLipBottom0" cx="509.5" cy="206.7" r=".8"/>
    <circle id="leftEye41" data-name="leftEye4" cx="516.7" cy="161.7" r=".8"/>
    <circle id="leftJaw7" cx="513.2" cy="233" r=".8"/>
    <circle id="leftJaw6" cx="523.2" cy="226.3" r=".8"/>
    <circle id="leftJaw5" cx="534.8" cy="213.7" r=".8"/>
    <circle id="leftJaw4" cx="541.6" cy="193.7" r=".8"/>
    <circle id="leftJaw3" cx="542.4" cy="172.1" r=".8"/>
    <circle id="leftJaw2" cx="542.4" cy="162.5" r=".8"/>
    <circle id="leftJaw1" cx="541.6" cy="150.8" r=".8"/>
    <circle id="leftJaw0" cx="539.1" cy="141.6" r=".8"/>
    <polyline class="st1" points="498.4 115.1 478.6 117.6 466.1 127.1 457.5 141.2 455 150.5 454.2 162.2 454.2 171.7 455 193.4 461.8 213.4 473.4 225.9 483.4 232.6 498.4 235.8 513.2 233 523.2 226.3 534.8 213.7 541.6 193.7 542.4 172.1 542.4 162.5 541.6 150.8 539.1 141.6 530.9 127.1 518.3 117.6 498.4 115.1"/>
    <polyline class="st1" points="462.4 152 466.4 148.3 472.6 147.3 479.9 147.3 489.7 151.3"/>
    <polygon class="st1" points="468.6 160.2 473.8 156.5 480.1 156.5 485.3 160.7 480.1 161.7 473.8 162.5 468.6 160.2"/>
    <polyline class="st1" points="486.9 178.3 492.1 178.3 497.6 179.1 497.6 173.8 497.6 166.7 497.6 161.2 497.6 155.4"/>
    <polyline class="st1" points="533.9 151.6 529.9 148.7 523.6 147.2 516.3 147.6 506.3 150.8"/>
    <polygon class="st1" points="528 160.2 522.7 156.5 516.4 156.5 511.3 160.7 516.4 161.7 522.7 162.5 528 160.2"/>
    <polyline class="st1" points="508 178.3 503 178.3 497.6 179.1"/>
    <polygon class="st1" points="480.9 200.4 487.8 197 494.3 195.9 498.4 196.8 502.6 195.9 509 197 515.9 200.4 509.5 206.7 502.4 209.5 498.4 210 494.3 209.5 487.3 206.7 480.9 200.4"/>
    <polyline class="st1" points="480.9 200.4 484.5 200.7 494.5 199.9 498.4 200.4 502.4 199.9 512.3 200.7 515.9 200.4"/>
    <polyline class="st1" points="480.9 200.4 484.5 200.7 494.5 202.8 498.4 203.6 502.4 202.8 512.3 200.7 515.9 200.4"/>
    <circle id="rightTop0" cx="478.7" cy="117.6" r=".8"/>
    <circle id="rightTop1" cx="466.1" cy="127.1" r=".8"/>
  </g>
</svg>