<?xml version="1.0" encoding="UTF-8"?>
<svg id="Layer_1" xmlns="http://www.w3.org/2000/svg" version="1.1" viewBox="0 0 1200 1200">
  <!-- Generator: Adobe Illustrator 30.0.0, SVG Export Plug-In . SVG Version: 2.1.1 Build 123)  -->
  <defs>
    <style>
      .st0, .st1 {
        fill: none;
      }

      .st2 {
        stroke: #2c323a;
        stroke-width: 2px;
      }

      .st2, .st3 {
        fill: #2c323a;
      }

      .st2, .st1 {
        stroke-miterlimit: 10;
      }

      .st4 {
        fill: #120a0f;
      }

      .st5 {
        fill: #e094a3;
      }

      .st6 {
        fill: #180c15;
      }

      .st7 {
        fill: #030202;
      }

      .st8 {
        fill: #dd9b8e;
      }

      .st9 {
        fill: #0b0608;
      }

      .st10 {
        fill: #241c29;
      }

      .st11 {
        fill: #df7977;
      }

      .st12 {
        fill: #20181c;
      }

      .st13 {
        fill: #f3af9d;
      }

      .st14 {
        fill: #60504b;
      }

      .st15 {
        fill: #b1c9c3;
      }

      .st16 {
        fill: #662d1c;
      }

      .st17 {
        fill: #cc9876;
      }

      .st18 {
        fill: #2d2630;
      }

      .st19 {
        fill: #fff;
      }

      .st20 {
        fill: #cccbcb;
      }

      .st21 {
        fill: #aa2725;
      }

      .st1 {
        stroke: #000;
      }

      .st22 {
        fill: #441510;
      }

      .st23 {
        fill: #32323c;
      }
    </style>
  </defs>
  <g id="illustration">
    <path class="st14" d="M647.9,923.2v46.8c0,48.8,55.4,50.3,55.4,4.5v-51.8l-55.4.5Z"/>
    <rect class="st19" x="660.3" y="944.5" width="30.6" height="4.4"/>
    <rect class="st19" x="660.3" y="952.9" width="30.6" height="4.4"/>
    <rect class="st19" x="660.3" y="961.4" width="30.6" height="4.4"/>
    <path class="st14" d="M544.6,923.2v46.8c0,48.8,55.4,50.3,55.4,4.5v-51.8l-55.4.5Z"/>
    <path class="st15" d="M518.9,549v384h92.7v-346.1h25.9v346.1h92.7v-384h-211.3Z"/>
    <rect class="st19" x="557" y="944.5" width="30.6" height="4.4"/>
    <rect class="st19" x="557" y="952.9" width="30.6" height="4.4"/>
    <rect class="st19" x="557" y="961.4" width="30.6" height="4.4"/>
    <g>
      <path class="st14" d="M675,319.9c-27.8-13.5-68.3-15.8-101.3-.1-5.1-10.8-14-45.8-13.1-80.4,1.1-40.5,15.5-80.5,65.3-80.4,47.8,0,61.8,39.1,62.5,79.7,0,33.1-13.4,81.2-13.4,81.2Z"/>
      <circle class="st11" cx="686.2" cy="233.8" r="12.1"/>
      <circle class="st11" cx="563.6" cy="233.8" r="12.1"/>
      <circle id="jawMid" cx="625.5" cy="284.1" r=".8"/>
      <circle id="rightJaw7" cx="614.6" cy="282.1" r=".8"/>
      <circle id="leftJaw7" cx="636.4" cy="282.1" r=".8"/>
      <circle id="rightJaw3" cx="580.3" cy="226.6" r=".8"/>
      <circle id="rightJaw2" cx="580.3" cy="217.1" r=".8"/>
      <circle id="leftJaw3" cx="668.5" cy="227" r=".8"/>
      <circle id="leftJaw2" cx="668.5" cy="217.4" r=".8"/>
      <circle id="topMid" cx="624.7" cy="166" r=".8"/>
      <circle id="leftTop0" cx="642.4" cy="168.5" r=".8"/>
      <circle id="rightTop0" cx="606.8" cy="168.5" r=".8"/>
      <path class="st14" d="M651.6,162.2c1.3-3.6,2.1-7.4,2.5-11.2,2.6,3.1,3.8,7.4,3.2,11.4,0,.7-.3,1.5-.7,2.1-.7.9-1.9,1.2-3,1.4-1.8.4-3.6.8-5.5,1,1.6-1.4,2.8-2.7,3.5-4.7Z"/>
      <path class="st14" d="M650.5,166.7c5.8-.4,10.8-5.7,11-11.5,2.3,1,3.4,3.9,2.7,6.3-.7,2.4-2.9,4.2-5.3,4.9-2.4.7-5,.4-7.4-.3"/>
    </g>
    <g>
      <circle id="rightShoulder" cx="518.9" cy="349.2" r="8.2"/>
      <circle id="rightHip" cx="569.2" cy="565" r="8.2"/>
      <circle id="leftHip" cx="685.6" cy="564.2" r="8.2"/>
      <circle id="leftShoulder" cx="731.8" cy="349.2" r="8.2"/>
      <path class="st7" d="M626.1,429c3.1,0,4.8-.9,6.1,1.6,2,3.9,3.3,12.2,4.4,16.7.7,3-.1,6.3.7,9.3s5.1,6.5,5.9,9.4c1.1,3.8,1.9,16.7,1.3,20.5s-5.1,5.2-6,8.2c10,0,3.8,8.7,4.8,13.3,1.5,6.6,7,14.2,8.1,21.4.5,3.4-1.4,18,1.4,19.2,5,2.2,3.4-7.6,3.6-8.8.6-2.3,4.5-5.1,4.3-8l-2.4-16.6c6.5-1.5,6.3,3.2,7.7,3.5,4.8.9,12.7-2.1,15.8,0,1.2,4,8.4,8.1,9.8,11.3,1.2,2.8-2.3,9.5,2.3,10.9,2.7.8,2.5-3.4,4.3-4.7,1.7-1.1,6.4-1.6,7.6-3.9,0,.2,1.8.8,2.2,1.6.9,2.1.2,21.7-.4,24.4-.6,2.7.5,3.9.6,6,.2,2.2,0,0,1.2,6.8.3,1.7,0,4.6.2,7.7.2,4.2,1,4.9,1.4,9.1h-79.4c-.5-9.1-.3-18.2-.6-27.4-.3-13.7-1.1-27.3-.8-41,0-4.2-2.8-1.2-3.1,1.3-1.4,12.6.5,26.9,1.3,39.7.5,9.1,2.1,18.3.6,27.4h-11.9c-2.2-4-4.2-7.1-3.4-11.5.3-1.4,2.1-2.4,2.3-4.3.5-3.4-1.7-19.7-3-23.1-.9-2.3-4.3-2-5.3-3.6-1-1.5-1.6-5.9-2.1-8-.3-1.1,0-2.3-.2-3.4,2-3.7,6.7-7,8.2-10.9,3.6-9.4.6-21.4,2.2-31.4.3-1.8,2.4-3.3,2.3-5.2,0-.8-9.8-6.2,2.2-3.8-.7-2.5,1-4.8,1-7.3,0-3.9-2.7-2.2.4-5.8,1.5-1.7-2.1-4.6,2.8-4.1.8,11.1,1.4,22.2,2.3,33.3.3,3.5.3,7.1.7,10.7.2,1.1-.8,3.6,2.2,3,1.2-.2-.2-11.8-.3-13.7-.9-15.9-2.3-31.9-3.3-47.9-.4-6.3-1.2-12.5-1.3-18.8,0-1,1.2-2.4,1.1-3.4h0ZM635.5,583.7c-.2-2.1-.1-4.3-.4-6.4-.1-1,.8-3.2-1.5-3,.2,2.1.1,4.3.4,6.4.1,1-.8,3.2,1.5,3Z"/>
      <path class="st12" d="M620.1,418.7c0,1.4-.5,7-.8,8.9-.3,2.1-6.1,6.4,1.8,5.6-.2.3,0,1.2.1,1.7-1.1,1.5-2.6,3.5-3.3,5-3.2,7.4-6,19-6.4,27.5,0,1.7.3,3.4.4,5.1-9.4.8-5.2,1.4-6.5,5.4-2.5,7.3-4.1,14.9-4.6,22.5-.1,2.1,3,4.7.1,7-1.1.5-3.7,0-5,.1.4,3.3.7,5.2.6,8.5,0,1.7.3,3.4.4,5.1-.6.3,2.1,2.8-5.2.9,2.7,5-4.9,3.4-6.2,4.4s2.3,12.7-.4,15.3c-3.5,1-2.1-2.5-4.7-1.7-1,.3-2.2,1.8-2.5,2.5-1.7,3.9.5,23.4,1.3,28.7.3,2.3,1.7,10.3,2.5,11.8,2.6,5,16.2-2,18.6,4.9h-54.3c0-5.1,1.5-10.3,1.6-15.4l5-3.4,2.3,13.7h4c0-4-1.6-8.2,1.3-11.9.4-.5,2.3-.6,3-1.6.6-.9,2.6-8.4,2.1-8.7h-9.3c.5-2.3,8,.9,6.4-2.6-2.8.3-7.4-.5-9.8,0-1.7.3,1.1,3.4-3.2,2.6-.2-6.7-1.9-15.3-1.5-21.4l4.2,4.3c-.1-5.8,2.8-11.3,1.5-17.1h-6.6c0-2-.5-4-.4-6l1.3-.4-1.3-.4c.1-2.3.8-5.1.8-6.8,2.5,1,2.9-3.4,5.2-1.7,2.2,1.6-3.3,7.6-2,8.5,2.5,1.8,2.7-3.5,5.2-1.7,1.3,1-1.8,6.8-.7,8.5h7.9c1.5.9-2.1,9.9-2,10.6,0,.5,2.2.3,2.7,1.1,2,3.2-.4,9.2,8.6,7.9-.4-4.5-3.6-5.5,3.2-8.2,0-4.7-2.4-10.9-2.3-15.3.2-5.9,3.2-13.4,2.8-19.7-.2-2.8-2.9-2-3-2.6-.1-.9,1.3-2.6,1.2-4.2-.2-3-3.8-8.1,3.9-8.1l4.9,4.3c.3-2.2-2.4-8.7,3.4-8.5,1,2.7-.7,5.4-.4,7.9.3,2.7,6.4,11.2,3.1,12.6-3,1.3-4.3-1.6-4.9-1.7-7.3-1.2-3.5,3.4-4,6.8,5.3-.5,10.5-1,15.8-1.7-.5-4.2-1.9-8.5-2.3-12.4-.4-3.3,2.4-6.8-.6-10.7h6.6c.9-1.8-1.8-4.3-1.7-5.5,0-.5,2.3-.4,2.6-1.1,1.9-5.9,1.7-3.5,4.6-7.6,4.5-6.4,2.7-15.4,2.5-22.2,0-3.5,1.2-6.2-.6-9.8.9-.1,5.3.2,5.3,0l-1-14.1c-.2-2.6,4.8-11.2,5.6-14.1,1.3,2,3.1,6.6,3.2,8.5h0ZM581.9,536.7l-.2-3.4h-1.3l.2,3.4h1.3Z"/>
      <path class="st6" d="M596.8,521.3c.6-.3,5-.5,4,1.3-1.1,2-5,4.1-3.5,7.3l-5.3-.9c.3,1-.2,3.9.3,4.3,2.5,1.9,2.4-3.2,5.1-1.7.2.1,2.9,2.8,2.9,3l1.5,20.9c-5.2.4,0-4.6-7.7-1.9-5.7,2-.4,4.9.2,8.3.6,3.3,1.2,8.9.9,12-.5,5.7-6.9,5.9,8.3,7.2,0,.6,0,1.2.1,1.7-5.2-.6-.4,2.7-1,5.1h-2.7c-2.4-6.9-16,0-18.6-4.9-.8-1.5-2.1-9.4-2.5-11.8-.8-5.3-3-24.8-1.3-28.7.3-.8,1.5-2.2,2.5-2.5,2.6-.8,1.3,2.7,4.7,1.7,2.7-2.6-.9-14.3.4-15.3s8.8.7,6.2-4.4c7.3,2,4.6-.5,5.2-.9h0Z"/>
      <path class="st9" d="M605.8,537.6c.5,2,1.1,6.4,2.1,8,1,1.6,4.5,1.2,5.3,3.6,1.3,3.4,3.5,19.8,3,23.1-.3,1.9-2.1,2.9-2.3,4.3-.9,4.4,1.2,7.5,3.4,11.5h-10.6c-1.2-1.9-2.4-2.9-3-5.1-.1-.5,0-1.2-.1-1.7-.2-1.7-.6-3.8-.3-5.5,1.9-11.7.4-23,.1-35.1,0-1.7-1.6-3.4,2.4-3h0Z"/>
      <path class="st6" d="M631.3,560.7c.2,9.1,0,18.2.6,27.4h-2.7c1.6-9,0-18.2-.6-27.4h2.7Z"/>
      <path class="st4" d="M603.7,582.9c.6,2.2,1.8,3.2,3,5.1h-4c.6-2.5-4.3-5.8,1-5.1Z"/>
      <path class="st23" d="M566.1,327.3c3.8,1,2.4,2.4,2.9,4.3l-8-.9c-.4,1.3,1.7.5,2.6,1.5,3.3,3.5-.3,2.4-1.5,3.6-2.4,2.4-2.3,5.4-8.3,5.1v.8c3.6-.5,4.9,4.8,4.5,6.3-.2.8-3,.2-2.6,1.8.7,2.6,8.2,3.8,4.7,9l-9.3-.9c-1-2-7.4-6.1-7.8-9.1l-6.4-4.6c.4,2.9,0,6,.7,8.9.9,3.4,4.7,7.6,5.8,9.7.2.5,1.9,5.9,1.8,6.2,0,.5-4.3,3.2-3.6,4.6.3.6,6.8,2.1,4.2,3.9-1.9,1.3-11.6-2.9-8.3-6-3.3-.4-2.9.4-2.5,2.1.2.8,4.4,8.4,4.9,8.8,1.3,1.1,10.1,1.4,10.6,2.4,1,2,.2,7.4.6,10.2,1.3,7.6,6.3,20.7,1.9,27.3-.6.9,1.2,1.7-2.5,1.3-.3-2.2-.8-8.5-5.9-8.5-2.7-26-13.2-40.8-23-65-.2-.5,0-1.2-.1-1.7-.3-.8-1.8-3.2-2.9-3.4-4-.8-3,1.5-5.5-3.4,8.6-6.8,18-5.3,28.9-7.8,6.2-1.4,18-4.7,24.4-6.8h0ZM520.9,342.7c-5.5-.4-5.4,1.3,0,.8v-.8ZM538.1,361.5c-1.5-.9-4,.8-2.5,1.7,1.5.9,4-.8,2.5-1.7ZM535.6,364.9h-2.6l.3,4.3h2.6l-.3-4.3Z"/>
      <path class="st9" d="M670.4,323.9c-7.2-.4-3.6,1.6.2,3.4.3,1.8-.5,3.4-1,5.1-1.2.1-4.9-.2-5.3,0-.5.3-2,8.6,1.9,8.5-.3,1.2.4,2.9.3,4.3-3.5-.4-2.7,1-3.4,2.4-2,4.2-5,10-7.7,14.1-1.2,1.8-5,3.7-5.7,5.6-1.1,3.4,4.9,6-2.5,5.3,3.3,4.4-.3,2.9-1.6,4.3-1.1,1.2-1,2.7-2,3.7-1.8,1.8-7.7,4-6,7.3-2.5,2.2-3.8,3.9-4.8,6.8l-2.4-4.3,9.2-31.6,2.7.9c-3-2.1,1.3-4.9,1-5.1s-2.3.2-2.7,0c-.1,0,0-1.2-.1-1.7,5.2.3,1.2-1.3,1.2-1.7-.2-3.2,4.2-11.3,5.2-15.2,1.9-7.5,5.7-17.8,1.3-25,1-1.3,1.8-1.7,2.4-3.4,4.1,1.9,4.5,5.5,7.2,8.1,2.1,2,9.4,6.5,12.5,8.1h0Z"/>
      <path class="st23" d="M684.2,331.6c1.3-.4,10.6,1.1,15,2,9.4,1.9,23.1,5.1,30.8,9.2-.2,2.4-9,6.7-8.8,6,2.2-8.3-4,.5-6.8,3.1-.9.8-3.1,1-4.5,2.5-4,4.4-4.4,10.4-13.1,13.1-2.9-1.4-2-3.8-3.4-5.8-1.3-1.8-6.4-3.1-4-5.4.6-.6,3.2-.5,3.3-1.4.1-.7-1.2-2-1.1-3.1.1-2.2,1.7-7.4-.4-9.2-1.1-.9-4.4-.4-4.9-1.3-.9-1.8.4-5.3-.5-7.4-.3-.7-3.6-.6-2.8-2.3.5,0,1,0,1.3,0h0Z"/>
      <path class="st23" d="M597.3,338.4c-.2.1,0,2.8.2,3.4.6,3,2.6,5.8,3.3,9.4-2.3-1.1-1.9-3-3.1-4.5-.9-1.1-6.5-4.4-6.7-4.6-1.1-1.9,4.1-7.8-3.8-7.2-1,0-1,1.6-2.1,2.1-1.3.6-3.7.4-3.9.5-1.5.9,3.9,4,4.1,4.9.5,1.6-3.7,2.3-3.6,4.1.2,2.5,8,4.7-3.5,6.9,0,1.8,6.2,5.8,7.1,7.2.8,1.2.8,4.4,1.7,6h-1.3c-3.4-4.8-7.9-10-11.6-14.5-1.2-1.5-3.5-2-4.2-3.9-1.5-3.7,2.1-2.8,3-3.8,1.1-1.1-3.2-8.8-4.1-11.1,3,.6,5.2-4.9,4.9-5.1l-2.7-.9c5.7-1.6,2.4,0,5.3.8,0-1.9,2.1-3.1,3.1-4.7.2-.4-.9-1.2-.8-1.3,2.6-3.7,8.3-7,11.2-10.3-1.9,6.6,1.9,11,3.7,16.7,1,3.1-1.5,8,3.4,9.8h0ZM576.9,349.5c-.4-2.1,1.2-4-2.9-3.4-.3,3.7,0,2.6,2.9,3.4.2.8-.5,2.3.8,2.6,4.4-2.9,1.2-2-.8-2.6Z"/>
      <path class="st6" d="M549.2,560.7c4.3.8,1.5-2.3,3.2-2.6,2.5-.4,7,.4,9.8,0,1.6,3.5-6,.3-6.4,2.5h9.3c.5.3-1.5,7.9-2.1,8.7-.6,1-2.5,1-3,1.6-3,3.7-1.4,7.9-1.3,11.9h-4l-2.3-13.7-5,3.4c0-4.6,2-6,1.8-12h0Z"/>
      <path class="st4" d="M670.4,323.9c4.5,2.4,13.3,3.5,13.8,7.7-.3,0-.9,0-1.3,0-1.7.2-4.2-.6-5.4.5-1.8,1.7,1.8,7.4,2.1,8.9.5,2.9-.6,4-.9,6h-1.3c4-4.6-5.9-4.9-7-7.4-.9-1.9,3.2-3.6,3.4-5.9.2-2.1-2-4.2-.5-6.3-.8-.2-2.2.1-2.6,0-3.8-1.8-7.4-3.8-.2-3.4h0Z"/>
      <path class="st4" d="M594,310.2c-.1.5-1.2,1.2-1.2,1.7-.2,2.3,0,5.8.6,8.1.7,3.2,3.8,13.2,6.3,15l-1.1.6c2.5,4.2-.9,2.4-1.3,2.9-5-1.8-2.5-6.7-3.4-9.8-1.8-5.7-5.6-10.1-3.7-16.7,1-1.1-.2-5.9,3.8-1.7h0Z"/>
      <path class="st10" d="M546.9,526.5h6.6c1.4,5.8-1.6,11.3-1.5,17.1l-4.2-4.3c0-.3-.9-12.8-.9-12.8Z"/>
      <path class="st10" d="M579,322.1c0,0,1.1.9.8,1.3-1,1.6-3.1,2.8-3.1,4.7-2.9-.8.4-2.4-5.3-.8l2.7.9c.3.2-1.9,5.8-4.9,5.1,0-.3,0-.6,0-.9s0-.6,0-.9c-.5-1.9.9-3.3-2.9-4.3,4.6-1.5,8.8-3.2,12.9-5.1h0Z"/>
      <path class="st12" d="M546.2,535.9"/>
      <path class="st9" d="M695.5,399.1c0,.2-.2-.1,0,0l1.8,7.7s.5,3,.2,4.6c-.8,6.3,1.1,15.1,1.1,15.1l1.1,15.3s.5,5.6.5,7.3c0,.5-.4,7.6.7,10.7l1.1,15,2.9,11.4c0,5.5.9,13.2.9,13.2l.6,9,1.3,6v11.4c-.1,1.6-.2,6.8.3,8.2-1.3,2.3-8.1,1.1-9.8,2.2-1.8,1.2-1.6,5.5-4.3,4.7-4.5-1.4-1-8.2-2.3-10.9-1.5-3.3-8.7-7.3-9.8-11.3-3-2-11,1-15.8,0-1.3-.2-1.1-5-7.7-3.5l2.4,16.6c.1,2.8-3.8,5.6-4.3,8-.3,1.2,1.3,11-3.6,8.8-2.7-1.2-.8-15.8-1.4-19.2-1.1-7.1-6.6-14.8-8.1-21.4-1.1-4.6,5.1-13.4-4.8-13.3.9-2.9,5.3-4.5,6-8.2s-.2-16.7-1.3-20.5c-.8-2.9-5.1-6.5-5.9-9.4s0-6.3-.7-9.3c-1.1-4.5-2.4-12.8-4.4-16.7-1.3-2.5-3-1.6-6.1-1.6,0-.2-2.1-1.6-1.5-2.6,6.7.8,1.5-3.8,8.8-6-.6,1.5.1,9.9.7,10.3.5.3,4.8-.3,5.3,0,.9.6,1.5,11.5,2.2,13.1.4,1,3.9.7,4.3,2.7.3,1.7-2.1,2.8-2.4,4.3-1.5,8.3,5.6,7.9,7,12.9.4,1.4-1.1,3.2-.7,5,.7,3.3,2.7,6.4,2.1,9.8,2.6.2,6-.4,8.4,0,1.4.2.4,1.6,1.6,1.7,3.1.4,1.2-1.5,2.7-1.7,4.1-.7,10.4,2,14.3.1,2.5-1.2.2-18.7.7-21.9,1.1-7.4,3.2-13.1,3.9-20.5.1-1.2,2.3-2.1,2.1-3.3.6-2.1-8.3-5.5-6.8-6.5,1.2-.9,8.9-.7,9.2-.9s-.5-3.5-.3-4.7c1.5-6.1,0-11.8,1.4-17.9.3-1.4,2.1-2.4,2.3-3.9h4,0Z"/>
      <path class="st4" d="M608.6,500.8c4-.5,2.6,1.3,2.8,3,.3,2.1,1,5.8.5,7.7-.5,2-3.5,2.5-3.7,4.3-.3,1.9,2.2,3.9,1.6,5.8-.6,1.7-4.9,2.6-5.6,7.2-.5,3.2,1.1,3.9,1.3,5.3.2,1.1,0,2.3.2,3.4-4-.5-2.5,1.3-2.4,3,.2,12.2,1.7,23.4-.1,35.1-.3,1.7,0,3.8.3,5.5-15.3-1.3-8.8-1.5-8.3-7.2.3-3.2-.3-8.8-.9-12-.6-3.5-6-6.3-.2-8.3,7.6-2.7,2.5,2.3,7.7,1.9l-1.5-20.9c0-.2-2.7-2.9-2.9-3-2.8-1.5-2.7,3.5-5.1,1.7-.5-.4,0-3.3-.3-4.3l5.3.9c-1.5-3.2,2.4-5.3,3.5-7.3.9-1.8-3.4-1.6-4-1.3,0-1.7-.4-3.4-.4-5.1l8,1.7c1.8-5.7,3.3-11.4,4.1-17.1h0Z"/>
      <path class="st9" d="M624.1,458.1c.2,2.6.3,5.1.5,7.7-4.8-.5-1.3,2.4-2.8,4.1-3,3.5-.5,1.9-.4,5.8,0,2.4-1.6,4.8-1,7.3-12-2.4-2.3,3-2.2,3.8,0,2-2,3.4-2.3,5.2-1.7,9.9,1.3,22-2.2,31.4-1.5,3.9-6.1,7.2-8.2,10.9-.2-1.4-1.8-2.1-1.3-5.3.7-4.6,5-5.5,5.6-7.2.7-1.9-1.9-3.8-1.6-5.8.2-1.8,3.2-2.4,3.7-4.3.4-1.9-.2-5.6-.5-7.7-.2-1.6,1.1-3.4-2.8-3,.3-2.4,2.2-1.5,2.5-2.3.7-2.4-1-5.7-.5-8.3.3-1.7,3.5-3.8,3.1-5.2-.3-1.1-5.1-2.1-3.9-5.8.2-.6,2.3-.5,2.5-1.2.5-1.5-.3-3.7-.3-5.4s-.4-3.4-.4-5.1c8-.7,4.8-9.9,12.6-9.4h0Z"/>
      <path class="st18" d="M626.3,451.2c1,15.9,2.4,32,3.3,47.9h-2.7c-.9-11.1-1.5-22.2-2.3-33.3-.2-2.6-.3-5.1-.5-7.7-.2-2.3-.3-4.6-.5-6.8h2.7,0Z"/>
      <path class="st9" d="M628.6,560.7c-.8-12.7-2.7-27.1-1.3-39.7.3-2.5,3.2-5.5,3.1-1.3-.3,13.7.5,27.3.8,41h-2.7Z"/>
      <path class="st23" d="M625,432.4c.2,6.3.9,12.5,1.3,18.8h-2.7c-.5-5.5-1.6-10.8-2.5-16.2,0-.5-.3-1.4-.1-1.7.4-.8.5-.6,1.3-.9.5-.2,1.9.1,2.7,0h0Z"/>
      <path class="st4" d="M629.6,499.1c0,1.9,1.5,13.5.3,13.7-3,.6-2-1.8-2.2-3-.5-3.5-.4-7.1-.7-10.7h2.7,0Z"/>
      <path class="st10" d="M626.1,429c.2,1-1.1,2.4-1.1,3.4-.8.1-2.2-.2-2.7,0,.1-1.4-.5-3-.3-4.3,0-.2,1.1-.9,1.2-1.7h1.3c-.6,1,1.5,2.3,1.5,2.6h0Z"/>
      <path class="st9" d="M635.5,583.7c-2.3.2-1.4-1.9-1.5-3-.3-2.1-.2-4.3-.4-6.4,2.3-.2,1.4,1.9,1.5,3,.3,2.1.2,4.3.4,6.4Z"/>
      <path class="st10" d="M615.2,405.1l1.6,3.4c-.1.5.3,1.2.1,1.7-.8,2.9-5.8,11.5-5.6,14.1l1,14.1c0,.2-4.4-.1-5.3,0,1.9,3.6.6,6.3.6,9.8.1,6.8,2,15.8-2.5,22.2-2.9,4.1-2.7,1.8-4.6,7.6-.2.7-2.6.6-2.6,1.1,0,1.2,2.6,3.7,1.7,5.5h-6.6c3,3.9.3,7.4.6,10.7.4,3.9,1.8,8.1,2.3,12.4-5.2.7-10.5,1.2-15.8,1.7.4-3.5-3.3-8.1,4-6.8.6.1,1.9,3,4.9,1.7,3.3-1.4-2.8-9.9-3.1-12.6-.3-2.5,1.4-5.2.4-7.9-5.8-.2-3.1,6.3-3.4,8.5l-4.9-4.3c-7.8,0-4.1,5.1-3.9,8.1,0,1.6-1.3,3.3-1.2,4.2,0,.6,2.8-.2,3,2.6.4,6.3-2.7,13.8-2.8,19.7-.1,4.4,2.2,10.7,2.3,15.3-6.8,2.7-3.6,3.7-3.2,8.2-9,1.2-6.6-4.8-8.6-7.9-.5-.8-2.7-.7-2.7-1.1-.1-.8,3.4-9.8,2-10.6h-7.9c-1-1.8,2-7.6.7-8.5-2.4-1.8-2.7,3.5-5.2,1.7-1.3-.9,4.2-6.9,2-8.5-2.2-1.7-2.7,2.8-5.2,1.7,0-5.8-1.2-11.9-1.2-17.1,4.8.7,1.6-2.9,2.4-3.4.1,0,3.8,0,4,0,1.4.8-.5,8.7,5.8,6.9-2.2-10.1,1.4-5.2,6.2-7.2,4.1-1.8.6-6.7.7-8.5.1-2.4,6.3-7.4,3.1-11.6l-6.4,3.4c.5-3-1.9-8.6-.1-11.1,1.3-1.8,6-1.2,5.8-4.7,0-1.6-2.7-1.1-3-1.8-.8-2.4,2.2-3.5,2.3-5s-2.4-3.4-2.8-5.2c-.3-1.2,1.2-2.5.7-4-.4-1.3-3.3-3.2-3.7-5.6-.4-2.2,1.4-4.7.5-7,4.4-.6,2.1,1.9,2.9,3.7.3.5,1.5.6,1.7.7,1.1,1.4,3.1,4.9,3.8,1.2.3-1.8-2.1-4.5,2.4-3.9.7,3.4-.2,7.3.8,10.6,2.1,7.1,1.8,7.5,2.2,14.6,0,1,1.5,7,2,7.3.3.2,2.9-.1,4,0-1.7-14.2,3.9-2.9,5.8-2.6,3.1,0,4-3.2,7.7-2.6,2.8.5,1.4,5.7,6.3,5.1-.4-1.6.4-4-.5-5.5-1.1-1.9-7.3-1.1-6.7-4,12.4.9,5.3-10.2,5.9-13.9.4-2.5,5.1-3.8,5.7-5.5.8-2.1-.8-4.7,0-6.6.5-1.2,3.4-1.1,3.7-2,.7-2.2-2.8-6-2-9.2.5-1.9,3.1-2.5,3.5-3.6.3-.7.5-11.3.6-13.1,3.2.4,3.3,2.7,4.2,3.4h0Z"/>
      <path class="st6" d="M611.9,472.6c0,1.7.8,4,.3,5.4-.2.7-2.3.5-2.5,1.2-1.1,3.7,3.7,4.7,3.9,5.8.4,1.4-2.8,3.5-3.1,5.2-.5,2.6,1.2,6,.5,8.3-.2.8-2.1,0-2.5,2.3-.8,5.8-2.3,11.4-4.1,17.1l-8-1.7c0-3.3-.2-5.3-.6-8.5,1.4-.2,4,.4,5-.1,2.8-2.4-.3-5-.1-7,.5-7.6,2.1-15.2,4.6-22.5,1.3-3.9-2.8-4.6,6.5-5.4h0Z"/>
      <polygon class="st6" points="581.9 536.7 580.7 536.7 580.4 533.3 581.7 533.3 581.9 536.7"/>
      <path class="st10" d="M546.4,520.5c0-.3,0-.6,0-.9l1.3.4-1.3.4h0Z"/>
      <path class="st18" d="M569.1,331.6c0,.3,0,.6,0,.9-2.5,1.2-3.3,6.6-3,8.3.2,1.4,2.4,2.1,2.5,3.2.1,1.2-2.6,2.3-2.5,4.3.2,2.5,5.3,6.1,5.9,7.3,1,1.8-4.3,5.4,4.3,5.1.8,1,1,1.9,1.5,2.6-4-.3-2.8.9-1.7,2.5,1.3,2,4.6,4,5,6.5l2.5-1.3c.2.4,1.1,1.5,1.4,1.7-5,2.9,1,7.6,7.1,6.8,2.3,4.5,1.3,1.3,3.8,2.7.7.4,1,2.5,2.1,3.5,2.5,2.4,5,5.6,6.9,7.4l-2.4,3.4c2.3,0,4.5.6,6.7.9,0,.6,1.4,1.4,1.4,1.7.2.8.2,1.8.2,2.6,0,1.8-.3,12.3-.6,13.1-.4,1.2-3.1,1.7-3.5,3.6-.8,3.2,2.7,7,2,9.2-.3.9-3.2.8-3.7,2-.8,1.9.8,4.5,0,6.6-.7,1.7-5.3,3-5.7,5.5-.6,3.7,6.6,14.8-5.9,13.9-.6,2.8,5.6,2.1,6.7,4,.9,1.5.1,3.8.5,5.5-5,.6-3.5-4.6-6.3-5.1-3.7-.7-4.7,2.5-7.7,2.6-1.9-.3-7.5-11.6-5.8,2.6-1.1-.1-3.7.2-4,0-.4-.2-1.9-6.3-2-7.3-.4-7.1,0-7.5-2.2-14.6-1-3.3-.1-7.2-.8-10.6-4.4-.6-2.1,2.1-2.4,3.9-.6,3.7-2.7.2-3.8-1.2,0-.1-1.4-.2-1.7-.7-.9-1.8,1.5-4.3-2.9-3.7.9,2.4-.9,4.8-.5,7,.4,2.4,3.3,4.2,3.7,5.6.5,1.5-1,2.8-.7,4,.5,1.8,2.9,3.8,2.8,5.2s-3.1,2.6-2.3,5c.2.6,2.9.2,3,1.8.2,3.5-4.5,2.9-5.8,4.7-1.8,2.6.6,8.1.1,11.1l6.4-3.4c3.1,4.2-3,9.2-3.1,11.6-.1,1.9,3.4,6.8-.7,8.5-4.8,2.1-8.4-2.9-6.2,7.2-6.3,1.9-4.3-6-5.8-6.9-.2,0-3.8,0-4,0-.8.5,2.4,4.2-2.4,3.4-.1-26.6,1.1-53.7-1.6-80.4,5.1,0,5.6,6.4,5.9,8.5,3.7.4,2-.4,2.5-1.3,4.4-6.6-.5-19.8-1.9-27.3-.5-2.8.4-8.1-.6-10.2-.5-1-9.3-1.3-10.6-2.4-.4-.4-4.7-8-4.9-8.8-.4-1.8-.8-2.5,2.5-2.1-3.2,3.1,6.5,7.3,8.3,6,2.6-1.8-3.9-3.3-4.2-3.9-.7-1.5,3.5-4.2,3.6-4.6,6.2-2.9,3.3,2.3,4.4,4.7,1,2.3,4.4,4.2,3.1,7.3h4c1.9-3.8-2.6-7.4-3.3-9.9-1-3.8-.3-9.5-2.3-13.2l9.3.9c3.6-5.2-4-6.4-4.7-9-.4-1.6,2.4-1.1,2.6-1.8.4-1.5-.9-6.7-4.4-6.3v-.8c5.9.3,5.9-2.7,8.3-5.1,1.2-1.2,4.8,0,1.5-3.6-1-1-3-.2-2.6-1.5l8,.9h0ZM573.6,378.6c-2.7-1.1-5.9,1.8-6.1,3.1-.1,1.1,2.2,1.9,2.5,3.2,1.1,6-1.4,5.6,2.9,11.6,3.9,5.5-2.2,6.8-2,11.4,0,1.3.9,8.8,1.4,9.1.5.3,4.8-.3,5.3,0,.4.2.2,5.2.4,6.4,1,5.9,3.9-.8,5.1-1.8,3.2-2.5,6.9-1.4,8.8,1.3l1.7-3.4c3.7-.7,2.6,3.4,6.8,1.3,4.6-2.3,0-13.2,0-16.7-6.1,1.5-7,.9-9.2-3.2-1.4-2.6,2-1.6,2.2-2.4.7-2.8-2.7-3.4-4.1-5.3-1.1-1.5-3.1-3.9-3.7-4.7-1-1.4,0-11.6-5.9-6.6-1.3,1.1-.6,3.9-4.5,3.4.2-1.2-.8-6.4-1.9-6.8h0Z"/>
      <path class="st10" d="M545.2,369.2c0-.3-1.6-5.8-1.8-6.2-1.1-2.1-4.9-6.2-5.8-9.7-.7-2.9-.3-6-.7-8.9l6.4,4.6c.3,3,6.7,7.1,7.8,9.1,2,3.7,1.3,9.4,2.3,13.2.7,2.5,5.2,6.1,3.3,9.9h-4c1.3-3.1-2.1-5-3.1-7.3-1-2.4,1.8-7.5-4.4-4.7h0Z"/>
      <polygon class="st18" points="535.6 364.9 535.9 369.2 533.3 369.2 533 364.9 535.6 364.9"/>
      <path class="st18" d="M538.1,361.5c1.5.9-1,2.6-2.5,1.7-1.5-.9,1-2.6,2.5-1.7Z"/>
      <path class="st12" d="M520.9,342.7v.8c-5.4.4-5.5-1.3,0-.8Z"/>
      <path class="st20" d="M641.9,351.2c-1.2.2-1.2,1-1.2,1.7,0,.5,0,1.6.1,1.7-3.2,1.6-2.7,4.6-3.5,6.8-4.1.5-2.3-1.3-3-2.9-3.4-8-5.2-15.9-8.1-23.6,3-3.2-2.4-11.4-8.5-8.5-.4.2.3,1.2,0,1.7-2.5,5.8,2.6,10.4,1.9,13.1-.3,1.3-4,2.2-4.6,3.7-.7,1.9,1.4,3,1.4,3.6-4.1-.5-2.4,1.3-2.4,3-.1,4.5.7,10.2-3,14.1-3.6-7-4.9-13.5-6.7-20.5-.7-2.6-1.1-7.7-2-9.7-.4-1-2.6-.5-2.7-.6-2.5-1.8-5.6-11.8-6.3-15-.5-2.3-.8-5.8-.6-8.1,7.3,5.4,23.3,11.1,24,11.1,4.4.1,11.1-1.8,14.9-2.6,1.5-.3,5.8-.8,7.8-1.7.4-.2,1-.6,1.3-.9,1.1-1.2,4.5-4.4,6.2-6,.3-.3,1-.6,1.3-.9,4.4,7.2.6,17.4-1.3,25-1,3.9-5.4,12-5.2,15.2h0Z"/>
      <path class="st12" d="M640.8,354.6c.3.2,2.3-.2,2.7,0s-4,3-1,5.1l-2.7-.9-9.2,31.6,2.4,4.3c-.2.6-1.3,1.2-1,2l1.2.5c-.3.3-.9.5-1.3.9-3.6,3-2.1,2.2-3.6,5.1-.9,0-1.8,0-2.6,0-1-4.7.9-9.1,1.7-13.7.4-2.1.3-4.8.8-6.8,2-7.9,6.5-14,9.1-21.4.8-2.3.3-5.2,3.5-6.8h0Z"/>
      <path class="st6" d="M666.6,345.2c0,.8-1.6,3.1-1.1,3.4,1.3,0,2.6,0,4,0-1.1,7-8.8,12-13,17.7-.7.9.2,2.4,0,2.8-5.9,7.6-11.1,12.2-18.5,18.8-1.7-3.4,4.1-5.5,6-7.3,1-1,.9-2.5,2-3.7,1.2-1.4,4.9.1,1.6-4.3,7.4.7,1.4-1.9,2.5-5.3.6-1.8,4.4-3.7,5.7-5.6,2.8-4.1,5.7-9.9,7.7-14.1.7-1.4,0-2.8,3.4-2.4h0Z"/>
      <path class="st12" d="M670.6,327.3c.3.2,1.8-.2,2.6,0-1.5,2.1.8,4.1.5,6.3-.3,2.3-4.3,4-3.4,5.9,1.2,2.5,11,2.8,7,7.4-.2,1.4-3.7,1.6-3.8,1.7h-4c-1.3,0-2.7,0-4,0-.5-.4,1-2.6,1.1-3.4,0-1.4-.6-3.1-.3-4.3.6-2.6,2.5-5.6,3.4-8.5.5-1.7,1.3-3.3,1-5.1h0Z"/>
      <path class="st18" d="M657.7,369.2c-8.1,10.5-13,17.8-24.5,28.2l-1.2-.5c-.4-.8.8-1.5,1-2,1-3,2.3-4.6,4.8-6.8,7.5-6.6,12.7-11.2,18.5-18.8h1.3Z"/>
      <path class="st4" d="M669.7,332.4c-.9,2.9-2.7,6-3.4,8.5-3.9,0-2.4-8.2-1.9-8.5.4-.3,4.1.1,5.3,0h0Z"/>
      <path class="st12" d="M641.9,351.2c0,.4,4,2-1.2,1.7,0-.7,0-1.5,1.2-1.7Z"/>
      <path class="st18" d="M682.8,331.6c-.8,1.7,2.5,1.6,2.8,2.3.9,2.2-.5,5.7.5,7.4.5,1,3.8.4,4.9,1.3,2.1,1.8.5,6.9.4,9.2,0,1.1,1.3,2.4,1.1,3.1-.2.9-2.7.8-3.3,1.4-2.3,2.3,2.7,3.6,4,5.4,1.5,2,.5,4.3,3.4,5.8,8.8-2.7,9.2-8.8,13.1-13.1,1.4-1.5,3.6-1.7,4.5-2.5,2.8-2.6,9.1-11.4,6.8-3.1-.2,1.3-2.9,2.3-3.3,2.9-3,3.5-4.3,7.4-6.3,11-.5.8-5.5,5-6.2,4.9-.4,0-.7-1.1-2.6-.5-6.8,2.2-4,5.8-4.8,9-.6,2.6-2.7,4.2-2.2,6.8-.6.2-1.1.3-1.3.9-9.3.3-5.6-7.1-6.1-9.7-.7-3.6-4.1-7.2-1.9-10.8l-10.3,3.4c-.4-1,.2-3.8-.3-4.3,3.3-1.3,5.3-8.5.7-9.4.7-.7-1.8-2.6,3.7-3.4v-.9c0,0,6.6,0,6.6,0-.6-3.2.7-9-7.2-7.7-.2-1.5-3.8-7.2-2.1-8.9,1.2-1.1,3.7-.3,5.4-.5h0Z"/>
      <path class="st16" d="M627.7,317.9"/>
      <path class="st16" d="M639.6,318.7"/>
      <path class="st6" d="M597.6,341.8c7.4-1.1,1.2,4,6.8,3.4,1.8,7.1,3.2,13.5,6.7,20.5.4.8,1.2,1.3,1.4,1.7,2.9,5.4,7.9,10.7,10.3,15.4,1,1.9,1.8,4.8,1.8,6.8-1.3,0-2.7,0-4,0-.5-2,.3-4.4-.5-6.3-.3-.6-2.4-.5-2.7-1.2-1.3-3,2.1-4.4-3-4.5-3.2-.1-10.5,0-7.3,3.2.2.2,2.2,0,2.3.6.2,1.9-2.8,2.3-5.2,2.1-.3-.5-8-8.2-8.5-8.5,4.9.5,3.1-.3,4.2-1.9,3.5-4.8,4.1-7.1,3.2-12.7-.2-1.4-.5-1.8-.7-3.2,0-.2-1.3-.3-1.4-.3-2.2-1.4.8-2.3.7-3.7,0-.8-1-1.6-1.1-2.3-.7-3.6-2.7-6.4-3.3-9.4h0Z"/>
      <path class="st18" d="M585.6,360.6c-1-1.4-7-5.4-7.1-7.2,11.5-2.1,3.7-4.4,3.5-6.9-.2-1.8,4-2.5,3.6-4.1-.3-.9-5.6-3.9-4.1-4.9.2-.1,2.6.1,3.9-.5,1.1-.6,1.1-2.1,2.1-2.1,7.9-.5,2.7,5.3,3.8,7.2.2.3,5.8,3.6,6.7,4.6,1.2,1.4.7,3.4,3.1,4.5.1.7,1.1,1.5,1.1,2.3,0,1.4-2.9,2.3-.7,3.7-.2.2.8,1.6-.7,1.8-3.8.5-9.8-2-15,1.6h0Z"/>
      <path class="st10" d="M604.2,360.6c.9,5.5-.5,7.9-4,12.7-1.1,1.5.7,2.4-4.2,1.9-.8-.5-2.9-.7-4-.9-.2-.2,0-.6,0-.9-1.4-2.2-3.1-4.6-4.4-6.8-1-1.6-1-4.8-1.7-6,5.2-3.6,11.2-1.2,15-1.6,1.4-.2.5-1.6.7-1.8,0,0,1.1,0,1.3,0l1.6,3.4h0Z"/>
      <path class="st4" d="M574.5,352.1c3.7,4.6,8.2,9.8,11.6,14.5,1.6,2.3,1.9,7.4,5.8,6.8.2.2,0,.6,0,.9,2.4,3.8,7.9,9.6,12.7,12-.4-.6.2-2-.2-2.6,2.3.2,5.4-.2,5.2-2.1,0-.6-2.1-.4-2.3-.6-3.2-3.3,4.2-3.4,7.3-3.2,0,1.4-.2,9-.7,9.4-.3.3-4.1-.1-5.3,0-.7-.6-3.5-.6-4-.9,2,3,4.2,5.9,5.9,9-1.2,1.6-5.1-1.8-5.5-2.1-1.9-1.8-4.4-5-6.9-7.4-1.1-1.1-1.4-3.1-2.1-3.5-2.5-1.4-1.5,1.8-3.8-2.7-2.3-4.5-3.1-4.3-7.1-6.8-.4-.2-1.2-1.3-1.4-1.7-2.4-4.4-3.8-4.8-5.8-7.7-.5-.6-.8-1.5-1.5-2.6-.9-1.2-2.2-3.7-3-5.1-1.2-2.1-3.1-4,1.1-3.4h0Z"/>
      <path class="st6" d="M569.2,333.3c.8,2.3,5.2,10,4.1,11.1-1,1-4.5,0-3,3.8.8,1.9,3.1,2.5,4.2,3.9-4.2-.5-2.3,1.4-1.1,3.4h-1.3c-.7-1.2-5.8-4.8-5.9-7.3-.1-2,2.6-3.1,2.5-4.3,0-1.1-2.3-1.9-2.5-3.2-.3-1.7.6-7.1,3-8.3,0,.3,0,.6,0,.9h0Z"/>
      <path class="st6" d="M599.7,335c.1.1,2.3-.4,2.7.6.9,2,1.3,7,2,9.7-5.6.5.5-4.5-6.8-3.4-.1-.6-.4-3.3-.2-3.4.5-.4,3.8,1.4,1.3-2.9l1.1-.6h0Z"/>
      <path class="st18" d="M591.8,373.4c-3.8.6-4.1-4.6-5.8-6.8h1.3c1.3,2.2,3,4.6,4.4,6.8h0Z"/>
      <path class="st18" d="M576.9,349.5c-2.9-.8-3.2.2-2.9-3.4,4-.6,2.5,1.3,2.9,3.4,2,.6,5.3-.4.8,2.6-1.3-.2-.7-1.8-.8-2.6Z"/>
      <path class="st9" d="M678.7,348.6c.2.5.7.8,1.4.9-5.5.9-3.1,2.7-3.7,3.4-3,3.4-2,3.6-3.5,6-.8,1.3-2.5,3.4-3.6,5.1-.4.6-.8,1.1-1.2,1.7-7.8,11.7-18.2,23.2-27.5,34.1-1.1,1.3-3.5,2.5-4.3,3.5h-5.3l1-5.1c.4-.3.9-.5,1.3-.9,11.5-10.4,16.4-17.8,24.5-28.2,3.9-5,12.2-17,15.8-20.5.1-.1,3.7-.3,3.8-1.7h1.3c0,.4,0,1.3.1,1.7h0Z"/>
      <path class="st10" d="M679.5,341c7.8-1.3,6.6,4.5,7.2,7.7h-7.9c-.2-.4-.2-1.3-.1-1.7.3-2,1.4-3,.9-6h0Z"/>
      <path class="st6" d="M691.5,399.1c-.2,1.5-2,2.5-2.3,3.9-1.4,6.2,0,11.8-1.4,17.9-.3,1.2.6,4.5.3,4.7s-8,0-9.2.9c-1.4,1.1,7.4,4.4,6.8,6.5.2,1.2-2,2.1-2.1,3.3-.7,7.4-2.7,13.2-3.9,20.5-.5,3.1,1.8,20.6-.7,21.9-3.8,1.9-10.2-.8-14.3-.1-1.5.3.3,2.2-2.7,1.7-1.2-.2-.3-1.5-1.6-1.7-2.4-.4-5.8.3-8.4,0,.6-3.5-1.5-6.6-2.1-9.8-.4-1.8,1.1-3.6.7-5-1.4-5-8.5-4.6-7-12.9.3-1.5,2.8-2.6,2.4-4.3-.4-2-3.9-1.8-4.3-2.7-.7-1.6-1.3-12.5-2.2-13.1-.5-.3-4.8.3-5.3,0-.6-.4-1.3-8.8-.7-10.3.7-.2,2.8.2,4,0l-1.5-2.6c.4,0,2.1-1.4,3.9-.9.5,1.2-.2,5.5.4,6,2.4,1.8,2.7-3.5,5.2-1.7.1.1-.3,1.4.6,2.2.4.4,2.3.3,2.3.8,0,1.4-3.4,2.5-2.4,4.2.6,1,3.7.9,4.1,1.9.6,1.4,0,6.1,1.8,7.1,3.6,2.1,1.2-3.6,4.4-2.5,2.6.8,3.3,6.6,7,6,2-.5,1.4-2.9,2-3.3,1-.6,4.6.2,5.1-.1.3-.2-.8-4.7-.2-6.2.7-1.7,4.7-2.9,6.1-4.4,3.9-4.1,2.1-7.4,3.1-11,.3-1,3.8-.7,4-2.7.1-2.3-4.5-3.1-2.3-6.2,1-1.4,3.5-1.7,3.8-2.1,1.9-2.4-2.2-7,6.6-5.8h0Z"/>
      <path class="st12" d="M668,365.7l.8,7.9,5.3,4c-8.2-.6-4,.8-5.1,3.8-.2.7-2,3.9-2.3,4.2-.7.6-7.8,1.1-2.8,2.3,1.8.5,3.3-1,2.9,1.1-.7,4.5-8.4,8-5.5,13.4-8.2-1.7-3.9-.6-5.4,2-1.3,2.3-2,.7-3.6,5.9-.4,1.3-2,2.2-2,3.6s4.1,4.8,6.1,4.8c3.8,0,6.6-2,10-2.9,1.8-.5,6.1-.4,6.3-.6,1.2-.8-2.1-5.7-1.7-6,.6-.4,4.6.8,5.2-2.2.5-2.2-4.1-11-2.1-12.3.5-.3,3,.2,3.5-.2s0-2.2.8-3.2c.5-.7,2-1.2,2.4-1.8.8-1.4,0-4.7,2.5-5,5.3-.7,7.1,3.4,10.2,5.1-.2.8,5.4-1.2,5.3-.4-.2,2.1-2.6,12.8-1.6,15.8l-5.7-6c-8.8-1.2-4.6,3.3-6.6,5.8-.4.5-2.8.8-3.8,2.1-2.3,3.1,2.4,3.9,2.3,6.2-.1,2-3.7,1.8-4,2.7-1,3.6.7,6.9-3.1,11-1.4,1.5-5.4,2.7-6.1,4.4-.6,1.5.5,6,.2,6.2-.5.3-4.1-.5-5.1.1-.6.4,0,2.7-2,3.3-3.7.6-4.4-5.1-7-6-3.2-1-.8,4.6-4.4,2.5-1.8-1-1.2-5.7-1.8-7.1-.4-1-3.5-.9-4.1-1.9-1-1.7,2.5-2.8,2.4-4.2,0-.5-1.9-.4-2.3-.8-.9-.9-.5-2.1-.6-2.2-2.4-1.8-2.7,3.5-5.2,1.7-.6-.4,0-4.8-.4-6-1.8-.5-3.5.8-3.9.9-.6,0-2.8-1-4-.9,0-.2,0-.6,0-.9.3-3,.3-7.2-.7-10.2,8.2.7,4.1-1.2,5.1-2.6.8-1,3.2-2.2,4.3-3.5,9.3-10.9,19.6-22.4,27.5-34.1h0Z"/>
      <path class="st7" d="M630.9,403.4h5.3c-1,1.4,3.1,3.3-5.1,2.6,1,3,1.1,7.2.7,10.2-8.7-.6-1.8,5.5,0,.9,1.2-.1,3.4.9,4,.9l1.5,2.6c-1.1.2-3.2-.2-4,0-7.3,2.2-2.2,6.8-8.8,6h-1.3c1.3-9,.3-14.3,5-23.1.9,0,1.8,0,2.7,0h0Z"/>
      <path class="st4" d="M623.7,451.2c.2,2.3.3,4.6.5,6.8-7.8-.5-4.6,8.7-12.6,9.4.3-8.5,3.2-20.1,6.4-27.5.7-1.5,2.2-3.5,3.3-5,.8,5.4,2,10.7,2.5,16.2h0Z"/>
      <path class="st4" d="M621.4,418.7c-.1,3.1-2.6,6.3.7,9.4-.2,1.3.4,2.9.3,4.3-.8.3-.9,0-1.3.9-7.9.8-2-3.5-1.8-5.6.2-2,.9-7.6.8-8.9h1.3Z"/>
      <path class="st18" d="M627.3,389.7c-.8,4.5-2.7,9-1.7,13.7.9,0,1.8,0,2.6,0,1.5-2.9,0-2.2,3.6-5.1l-1,5.1c-.9,0-1.8,0-2.7,0-4.7,8.8-3.7,14.1-5,23.1-.1.8-1.2,1.5-1.2,1.7-3.2-3.1-.8-6.2-.7-9.4.4-9.5,3.5-20.5,3.3-29.1h2.7Z"/>
      <path class="st9" d="M700.9,382c-1,3.4-.3,11-7.2,10.3,0-.8-.3-1.8-.2-2.6,0-.2.9-.7,1.1-1.4.4-1.5-.6-3.4-.2-4.6.2-.6.7-.6,1.3-.9,1.2-.5,3.8-.4,5.2-.9h0Z"/>
      <path class="st10" d="M705.2,367.5v1.7c-3.1,2-1.4,4.8-2,6.8h-5.3c.8-3.3-2-6.9,4.8-9,1.9-.6,2.1.4,2.6.5h0Z"/>
      <path class="st12" d="M703.1,376c-.7,2-1.5,3.6-2.2,6-1.4.4-4.1.4-5.2.9-.5-2.6,1.6-4.2,2.2-6.8h5.3Z"/>
      <path class="st9" d="M614.6,377.7c5.1.2,1.7,1.6,3,4.5.3.6,2.4.5,2.7,1.2.8,1.8,0,4.3.5,6.3,1.3,0,2.7,0,4,0,.2,8.6-2.9,19.5-3.3,29.1h-1.3c-.1-2-2-6.5-3.2-8.5.1-.5-.2-1.2-.1-1.7,1.3-5.6,0-2.2-1.6-3.4-.9-.7-1-3.1-4.2-3.4,0-.8,0-1.8-.2-2.6l2.6-.9c3,1,5.2,1.6,3.9-1.3,0-.2-1.9-.4-2.6-1.1-1.6-1.8-5.4-8.2-6-8.7,1.2-.1,4.9.2,5.3,0,.5-.4.7-8,.7-9.4h0Z"/>
      <path class="st12" d="M615.2,405.1c1.6,1.2,2.9-2.2,1.6,3.4l-1.6-3.4Z"/>
      <path class="st23" d="M573.6,378.6c1.1.4,2.1,5.6,1.9,6.8,3.9.5,3.2-2.3,4.5-3.4,5.9-5,4.9,5.2,5.9,6.6.6.9,2.6,3.2,3.7,4.7,1.4,1.9,4.8,2.5,4.1,5.3-.2.8-3.6-.1-2.2,2.4,2.2,4.1,3.1,4.7,9.2,3.2,0,3.5,4.5,14.4,0,16.7-4.2,2.1-3.1-2-6.8-1.3l-1.7,3.4c-1.9-2.8-5.5-3.9-8.8-1.3-1.2.9-4,7.7-5.1,1.8-.2-1.3,0-6.2-.4-6.4-.5-.3-4.8.3-5.3,0-.5-.3-1.4-7.9-1.4-9.1-.2-4.6,5.9-5.9,2-11.4-4.3-6-1.8-5.6-2.9-11.6-.2-1.4-2.6-2.2-2.5-3.2.2-1.3,3.3-4.2,6.1-3.1h0Z"/>
      <path class="st12" d="M608.6,387.1c.7.5,4.4,6.9,6,8.7.7.7,2.5.9,2.6,1.1,1.3,2.9-.8,2.3-3.9,1.3-4.3-1.5-1.8-.6-4-.9s-4.4-.9-6.7-.9l2.4-3.4c.3.3,4.2,3.8,5.5,2.1-1.7-3-3.9-6-5.9-9,.6.3,3.3.3,4,.9h0Z"/>
      <path class="st10" d="M577.9,363.2c2.1,2.9,3.4,3.3,5.8,7.7l-2.5,1.3c-.4-2.5-3.7-4.4-5-6.5-1.1-1.7-2.2-2.9,1.7-2.5h0Z"/>
      <path class="st10" d="M585.1,372.6c4,2.5,4.8,2.3,7.1,6.8-6,.8-12.1-4-7.1-6.8Z"/>
      <path class="st10" d="M576.4,360.6c-8.7.3-3.3-3.3-4.3-5.1h1.3c.8,1.4,2.1,3.9,3,5.1Z"/>
      <path class="st4" d="M613.4,398.2l-2.6.9c0-.3-1.5-1.1-1.4-1.7,2.2.3-.3-.6,4,.9h0Z"/>
      <path class="st21" d="M617.8,328.1c1.3.1,4.7-.3,5.2,0,.4.2,2.8,5.9,3.2,6.8,2.9,7.8,4.7,15.7,8.1,23.6.7,1.5-1.1,3.4,3,2.9-2.6,7.4-7,13.4-9.1,21.4h-5.3c-2.4-4.7-7.4-10-10.3-15.4,3.2-1.1,3-5.2,3.3-7.4.4-3.3.8-8.1.7-11.4,0-.6-2.1-1.8-1.4-3.6.6-1.5,4.3-2.4,4.6-3.7.6-2.8-4.5-7.3-1.9-13.1h0Z"/>
      <path class="st16" d="M616.6,348.6c.1,3.3-.3,8.1-.7,11.4-.3,2.1,0,6.3-3.3,7.4-.2-.4-1.1-1-1.4-1.7,3.7-3.9,2.9-9.6,3-14.1,0-1.6-1.7-3.4,2.4-3h0Z"/>
      <path class="st16" d="M617.8,328.1c.2-.4-.5-1.5,0-1.7,6.1-2.9,11.5,5.3,8.5,8.5-.3-.9-2.8-6.5-3.2-6.8-.6-.4-3.9.1-5.2,0h0Z"/>
      <path class="st16" d="M628.2,382.8c-.5,2.1-.5,4.7-.8,6.8h-2.7c0-2-.8-4.9-1.8-6.8h5.3Z"/>
      <path class="st10" d="M673.4,348.6c-3.5,3.5-11.9,15.5-15.8,20.5h-1.3c.3-.4-.5-1.9,0-2.8,4.3-5.8,11.9-10.7,13-17.7h4Z"/>
      <path class="st10" d="M676,366.6l10.3-3.4c-2.1,3.6,1.2,7.2,1.9,10.8.5,2.7-3.2,10,6.1,9.7-.3,1.2.6,3.1.2,4.6-.2.7-1.1,1.2-1.1,1.4-3.1-1.6-4.9-5.8-10.2-5.1-2.4.3-1.6,3.6-2.5,5-.4.6-1.9,1.1-2.4,1.8-.7,1.1-.2,2.9-.8,3.2s-3.1-.1-3.5.2c-2.1,1.3,2.5,10.1,2.1,12.3-.6,2.9-4.6,1.8-5.2,2.2-.4.2,2.9,5.2,1.7,6-.2.1-4.5.1-6.3.6-3.4.9-6.2,2.9-10,2.9-2,0-6.1-3.5-6.1-4.8s1.6-2.4,2-3.6c1.6-5.3,2.3-3.6,3.6-5.9,1.4-2.6-2.8-3.7,5.4-2-2.8-5.3,4.8-8.9,5.5-13.4.3-2.2-1.1-.7-2.9-1.1-4.9-1.2,2.1-1.7,2.8-2.3.3-.3,2-3.5,2.3-4.2,1.1-3-3.1-4.4,5.1-3.8l-5.3-4-.8-7.9c.4-.6.8-1.1,1.2-1.7,6.6-1,1.8,3.1,6.8,2.6h0Z"/>
      <path class="st10" d="M675.7,362.3c-.2-.2-4.3.4-2.9-3.4,1.5-2.4.5-2.6,3.5-6,4.7,1,2.6,8.1-.7,9.4h0Z"/>
      <path class="st12" d="M672.8,358.9c-1.4,3.8,2.7,3.2,2.9,3.4.5.5-.1,3.3.3,4.3-5,.5-.2-3.6-6.8-2.6,1.2-1.7,2.8-3.9,3.6-5.1Z"/>
      <path class="st4" d="M680.1,349.5c-.7-.1-1.2-.4-1.4-.9h1.3v.9Z"/>
      <path class="st18" d="M595.9,375.2c.5.4,8.2,8.1,8.5,8.5.4.6-.2,2,.2,2.6-4.8-2.4-10.4-8.2-12.7-12,1.2.1,3.2.3,4,.9h0Z"/>
      <path class="st6" d="M631.8,416.2c0,.3.2.6,0,.9-1.8,4.6-8.8-1.5,0-.9Z"/>
    </g>
    <line class="st0" x1="741.4" y1="564.8" x2="508.6" y2="564.8"/>
    <ellipse class="st19" cx="625.4" cy="351.3" rx="22" ry="16.3"/>
    <path class="st13" d="M616.2,277.5"/>
    <path class="st13" d="M614.2,265.7h20.9s4.3,61.7,5.7,85.2c-2.1,9.7-9.1,11.3-15.5,11.1-8.2-.2-15.9-4.7-17.1-12.5l6-83.8Z"/>
    <path class="st8" d="M614.2,265.7h20.9c1.9,19-21.7,83.8-26.9,83.8l6-83.8Z"/>
    <g>
      <ellipse class="st13" cx="625.2" cy="228.3" rx="56.4" ry="57.6"/>
      <circle id="jawMid1" data-name="jawMid" cx="625.5" cy="284.1" r=".8"/>
      <circle id="rightJaw71" data-name="rightJaw7" cx="614.6" cy="282.1" r=".8"/>
      <circle id="leftJaw71" data-name="leftJaw7" cx="636.4" cy="282.1" r=".8"/>
      <circle id="rightJaw31" data-name="rightJaw3" cx="580.3" cy="226.6" r=".8"/>
      <circle id="rightJaw21" data-name="rightJaw2" cx="580.3" cy="217.1" r=".8"/>
      <circle id="leftJaw31" data-name="leftJaw3" cx="668.5" cy="227" r=".8"/>
      <circle id="leftJaw21" data-name="leftJaw2" cx="668.5" cy="217.4" r=".8"/>
      <circle id="topMid1" data-name="topMid" cx="624.7" cy="166" r=".8"/>
      <circle id="leftTop01" data-name="leftTop0" cx="642.4" cy="168.5" r=".8"/>
      <circle id="rightTop01" data-name="rightTop0" cx="606.8" cy="168.5" r=".8"/>
    </g>
    <g>
      <path class="st3" d="M578.7,221.9c3.1-6.1,13.1-6.7,21.1-6.1.7,2.3.7,3.8,0,3.7-3.1,0-10.2-3.9-21,2.4Z"/>
      <circle id="rightBrow1" cx="592.5" cy="203.2" r=".8"/>
      <circle id="rightBrow4" cx="615.8" cy="206.2" r=".8"/>
      <circle id="rightBrow3" cx="606" cy="202.2" r=".8"/>
      <circle id="rightBrow0" cx="588.5" cy="206.9" r=".8"/>
      <circle id="rightBrow2" cx="598.7" cy="202.2" r=".8"/>
    </g>
    <g>
      <path class="st3" d="M666.7,220.8c-7.5-3.4-8.8-2.2-19-1-.3-.8-.5-1.7,0-4,6,.5,16-2.3,21.1,6.1-.7-.4-1.3-.8-2-1.1Z"/>
      <circle id="leftBrow1" cx="656.2" cy="203.6" r=".8"/>
      <circle id="leftBrow4" cx="632.6" cy="205.7" r=".8"/>
      <circle id="leftBrow3" cx="642.6" cy="202.5" r=".8"/>
      <circle id="leftBrow0" cx="660.2" cy="206.5" r=".8"/>
      <circle id="leftBrow2" cx="649.9" cy="202.1" r=".8"/>
    </g>
    <g>
      <ellipse class="st11" cx="590.1" cy="247.5" rx="7.8" ry="6.2"/>
      <ellipse class="st3" cx="593" cy="231.6" rx="3.6" ry="5.8"/>
      <circle id="rightEye0" cx="594.7" cy="215.1" r=".8"/>
      <circle id="rightEye1" cx="599.9" cy="211.4" r=".8"/>
      <circle id="rightEye5" cx="599.9" cy="217.4" r=".8"/>
      <circle id="rightEye2" cx="606.2" cy="211.4" r=".8"/>
      <circle id="rightEye3" cx="611.4" cy="215.6" r=".8"/>
      <circle id="rightEye4" cx="606.2" cy="216.6" r=".8"/>
    </g>
    <g>
      <ellipse class="st3" cx="654.8" cy="231.6" rx="3.6" ry="5.8"/>
      <ellipse class="st11" cx="659.2" cy="247.5" rx="7.8" ry="6.2"/>
      <circle id="leftEye0" cx="654.3" cy="215.1" r=".8"/>
      <circle id="leftEye1" cx="649.1" cy="211.4" r=".8"/>
      <circle id="leftEye5" cx="649.1" cy="217.4" r=".8"/>
      <circle id="leftEye2" cx="642.8" cy="211.4" r=".8"/>
      <circle id="leftEye3" cx="637.6" cy="215.6" r=".8"/>
      <circle id="leftEye4" cx="642.8" cy="216.6" r=".8"/>
    </g>
    <g>
      <path id="rightMiddleLip" d="M610.8,254.6c.4,0,.8.4.8.8s-.4.8-.8.8-.8-.4-.8-.8.4-.8.8-.8Z"/>
      <circle id="upperLipBottomMid" cx="624.5" cy="255.1" r=".8"/>
      <circle id="rightUpperLipBottom1" cx="620.6" cy="254.6" r=".8"/>
      <path id="leftMiddleLip" d="M638.2,254.6c.4,0,.8.4.8.8s-.4.8-.8.8-.8-.4-.8-.8.4-.8.8-.8Z"/>
      <circle id="leftUpperLipBottom1" cx="628.4" cy="254.6" r=".8"/>
      <path class="st2" d="M611.6,255.4s7.4-.2,12.9-.2,13.9-.1,13.9-.1c0,0-6.1,4-13.9,4-7.9,0-12.9-3.7-12.9-3.7Z"/>
      <circle id="lowerLipTopMid" cx="624.5" cy="258.1" r=".8"/>
      <circle id="rightLowerLipTop0" cx="620.6" cy="257.4" r=".8"/>
      <circle id="leftLowerLipTop0" cx="628.4" cy="257.4" r=".8"/>
    </g>
    <g>
      <path class="st14" d="M636.7,182.2c-.2,8.5-8.4,18.8-25.9,23.3-2.1.5,9-8.2,13.7-18.5-19.7,23.6-29.8,27.3-63.8,25.6,5.1-22.7,26.3-53.3,63.3-53.7s57.1,21.6,65.1,56.3c-21.9-5.1-39.6-3-52.4-33Z"/>
      <circle id="jawMid2" data-name="jawMid" cx="625.5" cy="284.1" r=".8"/>
      <circle id="rightJaw72" data-name="rightJaw7" cx="614.6" cy="282.1" r=".8"/>
      <circle id="leftJaw72" data-name="leftJaw7" cx="636.4" cy="282.1" r=".8"/>
      <circle id="rightJaw32" data-name="rightJaw3" cx="580.3" cy="226.6" r=".8"/>
      <circle id="rightJaw22" data-name="rightJaw2" cx="580.3" cy="217.1" r=".8"/>
      <circle id="leftJaw32" data-name="leftJaw3" cx="668.5" cy="227" r=".8"/>
      <circle id="leftJaw22" data-name="leftJaw2" cx="668.5" cy="217.4" r=".8"/>
      <circle id="topMid2" data-name="topMid" cx="624.7" cy="166" r=".8"/>
      <circle id="leftTop02" data-name="leftTop0" cx="642.4" cy="168.5" r=".8"/>
      <circle id="rightTop02" data-name="rightTop0" cx="606.8" cy="168.5" r=".8"/>
    </g>
    <path class="st13" d="M968.4,381.4l17-6.8s6.1,5.5,13,11.2-4.7,18.4-15.3,10.6c-10.7-7.8-14.7-15-14.7-15Z"/>
    <path class="st5" d="M670.3,345.6l43.3,53.2c27-16.2,67.7-16.3,126.6-16.7v-56.8c-56-3.4-99.2-10.4-169.9,20.3Z"/>
    <path class="st13" d="M834.3,373.5c64.5,8.6,113.3,11.5,158.7,12.1s42.4-34.2,5.3-39.5c-37.1-5.3-114.5-11.5-162.2-14.2l-1.8,41.6Z"/>
    <g>
      <circle id="rightWrist" cx="252" cy="355.7" r="8.2"/>
      <path class="st17" d="M238.9,341.9c0,1.8,1.6,6.1,1.1,7.1-.4.6.7,5.6-.4,6-3.9-1.8-7.1-1.3-10-2.7-.4-.2-4.9-1.7-5.5-1-3.1,4.6-5.8,4.5-6.2,5-.2.2-4.9,2-5.3,3.1l-11.9,7.8c6.3-1.9,3.7-1.4,6.3-1.9,3.6-.8,3.2.9,5.1.3,6.1-1.9,9.7-3,15.5-5.8,1.8-.9,10.4-3.1,12.5-2-.2,1.3,0,7.8-2.5,9.3-3.4,2.1-12.7,4.3-17,5.7-3.9,1.3-13.2-4.6-11.7.4l-1.4.2c-6.4,5-9.4,4.6-11.1,4-3-1-4.8-10.7-2.5-15,.3-.5,3.8-4.5,5-5.3,1.4-.9,7.7-5.7,9.6-7.8,3.2-3.5,11.8-7.3,16.3-8,2.6-.4,11,.2,14,.6h0Z"/>
      <path class="st22" d="M268.1,359.1c.1,2.2-1.6,6.9-1.5,9-8.9,4-17,8.7-27.2,9-2.8,0-6.4.6-7.5.6-.7,0-8.2.9-8.9,1.1-2.5.6-11.3,2-13.4,3-3.4,1.7-4.8.8-8.5,0-2-.4-4.3-4-4.6-4.3,4.6-2.4,19.7.1,16.5-6.4,2.2-1,1,2.3,2.9,2.5,1.5.2,3.4-.9,4.7-.8.5,0,1-.2,1.4-.2l7.3-1.2,5.6-.9c8.2-1.4,16.9-5.5,25.8-5.8,2.1-2.6,4-5.9,3.9-9.4-.1-4.1-1.8-8.7-2.1-12.8l2.9-.5c.5,5.6,2.4,11.6,2.8,17.1h0Z"/>
      <path class="st21" d="M264.7,356.7c.1,3.5-2.1,5.3-4.2,7.9-17.9,4.5-17.6,4.3-25.8,5.8-2.7.5-8.1,1.9-13.1,2.7-.5,0-.7-.4-1.2-.4l3.3-2c4.3-1.4,10.2-7,13.6-9.1,2.4-1.5,1-2.3,1.2-3.6.1-.8,1.2-1.9,1-3.1,8.1,0,10.7.9,12.2.8,10.3-.8,6.6,1.2,9.9,0,.8-.3,2.2,1.2,3.1,1h0Z"/>
      <path class="st17" d="M264.7,356.7c-3.2,1.3-6.7.5-10.2.3-1.5-.1-6.8-2-14.9-2-8.3,0-3.1-2.1-5-3.6.5-.4.9-1.6,1.2-1.7,1.1-.4,3.8-.2,4.2-.8.6-.9-1.1-5.3-1.1-7.1,3,.4,23.7-.7,25,.3,2.8,2,.1,11.6.8,14.5h0Z"/>
      <path class="st16" d="M220.5,372.8c-1.4,0,1.1,0-3.3,1.9-2.3,1-1.2.7-3.5,1.6l-3.4.6c-.5-.5-13.9,1.4-13.9.6,0-1.3,0,0,6.3-3.8,5.1-2.5,1.3-.4,5.1-2.5l5.7-1c4.7,2.2,1.7.9,4.7,2.2l2.3.4h0Z"/>
      <path class="st16" d="M238.6,358.1c-2.1-1-3.9,0-5.7.9-4.4-2.2.9-1.8-4.4-2.2-4-.3-.6-1.1-5.6.2l-4.1,1c-2,.6.8-.1-2.8.6l-1.9.6c-5.1,2.5-15.7,9.9-18.1,8.8-3.2-1.4,13-10.8,13.2-11,.4-.4,0,0,9.5-4.5.9-.4,3-1.3,6.8-1.5,6.4.7,4.2,0,6.4.7,5.8,2,3.7,1.2,3.9,1.3l3.8,2c.2,1.2-.8,2.3-1,3.1h0Z"/>
      <path class="st22" d="M238.6,358.1c-5.8,2.8-20.3,6.8-26.4,8.7l.3-7.4c5-1.3,11.2-4.3,16.4-4,3.8.2,7.1,1.1,9.8,2.6h0Z"/>
      <path class="st22" d="M212.5,359.4c1.4,2.7.8,3.8-.3,7.4l-3.4.9c-2.6.5-11.5,2.7-12.9.4l16.5-8.6Z"/>
      <circle id="rightShoulder1" data-name="rightShoulder" cx="518.9" cy="349.2" r="8.2"/>
      <circle id="rightElbow" cx="415.4" cy="349.3" r="8.2"/>
      <path class="st18" d="M325.1,393.4c38.1-1.4,77.1-.8,114.8-5.7,36.9-4.8,56.6-20.1,89.8-34.8.7-.3,1.7,0,2.4-.2-.8-3.6.9-6.1-2.1-8.9-.5-1.8-.2-3.9-2.6-3.7,1.5-4-1.9-3.3.6-3.5,1.7-.1-2.2-2.1-1.1-2.3l1.3-1.9c.2-5.4,0-.3-.9-5-.6-3.1-3.8-2.9-21.5-1.3-19.1,1.3-13.4,1.1-19.1,1.3-34.7,1.4-69.2.5-104,2.8-9.7.6-19.4,2.2-29.2,2.9-3.2.2-6.5.8-9.7,1-4.5.2-8.9,1.2-13.4,1.3,0,0-.5-1.7-1.4-1.7-1.2,0-2.4.3-3.6.4-2,0-4,.5-6.1.6-1.6,0-4.6-1.1-7.5-1.1-.8,0-1.6.2-2.4.2-8.5.1-15,1.7-23.1,2.3,0,0-.5-1.8-1.4-1.7-3.5.3-7.6.3-10.9,1.1-6.1,1.4-9.8,7-8.1,17.5h-1.2c.4,7.3,1.9,15.1,2.2,22.1.1,2.8-1.5,8.5-1.4,11.2,0,1.7,1.4,5.1,1.9,7.2l13.7,2.4c2.8,0,5.7-.9,8.5-.8.4,0,.8-.1,1.2-.1,3.2,0,7.4.9,9.9.9,8.2-.1,16.8-2.1,24.3-2.4h0Z"/>
    </g>
    <g>
      <circle id="nose1" cx="623.7" cy="216.1" r=".8"/>
      <circle id="nose0" cx="623.7" cy="210.3" r=".8"/>
      <circle id="nose3" cx="623.7" cy="228.7" r=".8"/>
      <circle id="rightNose0" cx="613" cy="233.2" r=".8"/>
      <circle id="rightNose1" cx="618.2" cy="233.2" r=".8"/>
      <circle id="nose2" cx="623.7" cy="221.6" r=".8"/>
      <circle id="nose4" cx="623.7" cy="234" r=".8"/>
      <circle id="leftNose0" cx="634.1" cy="233.2" r=".8"/>
      <circle id="leftNose1" cx="629.3" cy="233.2" r=".8"/>
      <path class="st2" d="M622.4,232.8c-1.2,0-4.6,1.6-5.8,5.2-.2,1.2.6,5.8,6,4.1,0-1-4.7-1.1-4.5-3.7.3-1.8,2-1.8,4.3-5.6Z"/>
    </g>
  </g>
  <g id="skeleton">
    <polygon class="st1" points="518.8 349.5 569.1 565.3 685.5 564.5 731.7 349.5 518.8 349.5"/>
    <polyline class="st1" points="517.8 349.5 415.1 349.5 251.8 355.8"/>
    <polyline class="st1" points="733.2 349.1 836.4 349.1 999.7 355.5"/>
    <polyline class="st1" points="569.1 565.3 575.5 725.5 575.5 933.5"/>
    <polyline class="st1" points="685.5 564.5 685.5 725.5 685.5 933.5"/>
    <polyline class="st1" points="624.5 170 604.7 172.5 592.2 182 583.6 196.1 581.1 205.4 580.3 217.1 580.3 226.6 581.1 248.3 587.9 268.3 599.5 280.8 609.5 287.5 624.5 290.7 639.3 287.9 649.3 281.2 660.9 268.6 667.7 248.6 668.5 227 668.5 217.4 667.7 205.7 665.2 196.5 657 182 644.4 172.5 624.5 170"/>
    <polyline class="st1" points="588.5 206.9 592.5 203.2 598.7 202.2 606 202.2 615.8 206.2"/>
    <polygon class="st1" points="594.7 215.1 599.9 211.4 606.2 211.4 611.4 215.6 606.2 216.6 599.9 217.4 594.7 215.1"/>
    <polyline class="st1" points="613 233.2 618.2 233.2 623.7 234 623.7 228.7 623.7 221.6 623.7 216.1 623.7 210.3"/>
    <polyline class="st1" points="660 206.5 656 203.6 649.7 202.1 642.4 202.5 632.4 205.7"/>
    <polygon class="st1" points="654.1 215.1 648.8 211.4 642.5 211.4 637.4 215.6 642.5 216.6 648.8 217.4 654.1 215.1"/>
    <polyline class="st1" points="634.1 233.2 629.1 233.2 623.7 234"/>
    <polygon class="st1" points="607 255.3 613.9 251.9 620.4 250.8 624.5 251.7 628.7 250.8 635.1 251.9 642 255.3 635.6 261.6 628.5 264.4 624.5 264.9 620.4 264.4 613.4 261.6 607 255.3"/>
    <polyline class="st1" points="607 255.3 610.6 255.6 620.6 254.8 624.5 255.3 628.5 254.8 638.4 255.6 642 255.3"/>
    <polyline class="st1" points="607 255.3 610.6 255.6 620.6 257.7 624.5 258.5 628.5 257.7 638.4 255.6 642 255.3"/>
    <circle id="rightShoulder2" data-name="rightShoulder" cx="518.9" cy="349.2" r="8.2"/>
    <circle id="rightElbow1" data-name="rightElbow" cx="415.4" cy="349.3" r="8.2"/>
    <circle id="rightWrist1" data-name="rightWrist" cx="252" cy="355.7" r="8.2"/>
    <circle id="rightHip1" data-name="rightHip" cx="569.2" cy="565" r="8.2"/>
    <circle id="rightKnee" cx="575.6" cy="725.2" r="8.2"/>
    <circle id="rightAnkle" cx="575.6" cy="933.2" r="8.2"/>
    <circle id="leftElbow" cx="836.2" cy="348.9" r="8.2"/>
    <circle id="leftWrist" cx="999.6" cy="355.2" r="8.2"/>
    <circle id="leftHip1" data-name="leftHip" cx="685.6" cy="564.2" r="8.2"/>
    <circle id="leftKnee" cx="685.6" cy="725.2" r="8.2"/>
    <circle id="leftAnkle" cx="685.6" cy="933.2" r="8.2"/>
    <circle id="rightEye01" data-name="rightEye0" cx="594.7" cy="215.1" r=".8"/>
    <circle id="rightBrow11" data-name="rightBrow1" cx="592.5" cy="203.2" r=".8"/>
    <circle id="rightBrow41" data-name="rightBrow4" cx="615.8" cy="206.2" r=".8"/>
    <circle id="nose11" data-name="nose1" cx="623.7" cy="216.1" r=".8"/>
    <circle id="rightBrow31" data-name="rightBrow3" cx="606" cy="202.2" r=".8"/>
    <circle id="rightEye11" data-name="rightEye1" cx="599.9" cy="211.4" r=".8"/>
    <circle id="rightBrow01" data-name="rightBrow0" cx="588.5" cy="206.9" r=".8"/>
    <circle id="rightBrow21" data-name="rightBrow2" cx="598.7" cy="202.2" r=".8"/>
    <circle id="rightEye51" data-name="rightEye5" cx="599.9" cy="217.4" r=".8"/>
    <circle id="rightEye21" data-name="rightEye2" cx="606.2" cy="211.4" r=".8"/>
    <circle id="rightEye31" data-name="rightEye3" cx="611.4" cy="215.6" r=".8"/>
    <circle id="nose01" data-name="nose0" cx="623.7" cy="210.3" r=".8"/>
    <circle id="nose31" data-name="nose3" cx="623.7" cy="228.7" r=".8"/>
    <circle id="rightNose01" data-name="rightNose0" cx="613" cy="233.2" r=".8"/>
    <circle id="rightMouthCorner" cx="607" cy="255.3" r=".8"/>
    <circle id="rightNose11" data-name="rightNose1" cx="618.2" cy="233.2" r=".8"/>
    <circle id="rightUpperLipTop0" cx="613.9" cy="251.9" r=".8"/>
    <circle id="nose21" data-name="nose2" cx="623.7" cy="221.6" r=".8"/>
    <circle id="nose41" data-name="nose4" cx="623.7" cy="234" r=".8"/>
    <circle id="upperLipTopMid" cx="624.5" cy="251.7" r=".8"/>
    <circle id="rightUpperLipTop1" cx="620.4" cy="250.8" r=".8"/>
    <path id="rightMiddleLip1" data-name="rightMiddleLip" d="M610.6,254.8c.4,0,.8.4.8.8s-.4.8-.8.8-.8-.4-.8-.8.4-.8.8-.8Z"/>
    <circle id="lowerLipBottomMid" cx="624.5" cy="264.9" r=".8"/>
    <circle id="upperLipBottomMid1" data-name="upperLipBottomMid" cx="624.5" cy="255.3" r=".8"/>
    <circle id="lowerLipTopMid1" data-name="lowerLipTopMid" cx="624.5" cy="258.4" r=".8"/>
    <circle id="rightUpperLipBottom11" data-name="rightUpperLipBottom1" cx="620.6" cy="254.8" r=".8"/>
    <circle id="rightLowerLipTop01" data-name="rightLowerLipTop0" cx="620.6" cy="257.7" r=".8"/>
    <circle id="rightLowerLipBottom1" cx="620.4" cy="264.4" r=".8"/>
    <circle id="rightLowerLipBottom0" cx="613.4" cy="261.6" r=".8"/>
    <circle id="rightEye41" data-name="rightEye4" cx="606.2" cy="216.6" r=".8"/>
    <circle id="jawMid3" data-name="jawMid" cx="624.5" cy="290.7" r=".8"/>
    <circle id="rightJaw73" data-name="rightJaw7" cx="609.5" cy="287.5" r=".8"/>
    <circle id="rightJaw6" cx="599.5" cy="280.8" r=".8"/>
    <circle id="rightJaw5" cx="587.9" cy="268.3" r=".8"/>
    <circle id="rightJaw4" cx="581.1" cy="248.3" r=".8"/>
    <circle id="rightJaw33" data-name="rightJaw3" cx="580.3" cy="226.6" r=".8"/>
    <circle id="rightJaw23" data-name="rightJaw2" cx="580.3" cy="217.1" r=".8"/>
    <circle id="rightJaw1" cx="581.1" cy="205.4" r=".8"/>
    <circle id="rightJaw0" cx="583.6" cy="196.1" r=".8"/>
    <circle id="topMid3" data-name="topMid" cx="624.7" cy="170" r=".8"/>
    <circle id="leftTop03" data-name="leftTop0" cx="644.4" cy="172.5" r=".8"/>
    <circle id="leftTop1" cx="657" cy="182" r=".8"/>
    <circle id="leftEye01" data-name="leftEye0" cx="654.3" cy="215.1" r=".8"/>
    <circle id="leftBrow11" data-name="leftBrow1" cx="656.2" cy="203.6" r=".8"/>
    <circle id="leftBrow41" data-name="leftBrow4" cx="632.6" cy="205.7" r=".8"/>
    <circle id="leftBrow31" data-name="leftBrow3" cx="642.6" cy="202.5" r=".8"/>
    <circle id="leftEye11" data-name="leftEye1" cx="649.1" cy="211.4" r=".8"/>
    <circle id="leftBrow01" data-name="leftBrow0" cx="660.2" cy="206.5" r=".8"/>
    <circle id="leftBrow21" data-name="leftBrow2" cx="649.9" cy="202.1" r=".8"/>
    <circle id="leftEye51" data-name="leftEye5" cx="649.1" cy="217.4" r=".8"/>
    <circle id="leftEye21" data-name="leftEye2" cx="642.8" cy="211.4" r=".8"/>
    <circle id="leftEye31" data-name="leftEye3" cx="637.6" cy="215.6" r=".8"/>
    <circle id="leftNose01" data-name="leftNose0" cx="634.1" cy="233.2" r=".8"/>
    <circle id="leftMouthCorner" cx="642" cy="255.3" r=".8"/>
    <circle id="leftNose11" data-name="leftNose1" cx="629.3" cy="233.2" r=".8"/>
    <circle id="leftUpperLipTop0" cx="635.1" cy="251.9" r=".8"/>
    <circle id="leftUpperLipTop1" cx="628.7" cy="250.8" r=".8"/>
    <path id="leftMiddleLip1" data-name="leftMiddleLip" d="M638.4,254.8c.4,0,.8.4.8.8s-.4.8-.8.8-.8-.4-.8-.8.4-.8.8-.8Z"/>
    <circle id="leftUpperLipBottom11" data-name="leftUpperLipBottom1" cx="628.5" cy="254.8" r=".8"/>
    <circle id="leftLowerLipTop01" data-name="leftLowerLipTop0" cx="628.5" cy="257.7" r=".8"/>
    <circle id="leftLowerLipBottom1" cx="628.7" cy="264.4" r=".8"/>
    <circle id="leftLowerLipBottom0" cx="635.6" cy="261.6" r=".8"/>
    <circle id="leftEye41" data-name="leftEye4" cx="642.8" cy="216.6" r=".8"/>
    <circle id="leftJaw73" data-name="leftJaw7" cx="639.3" cy="287.9" r=".8"/>
    <circle id="leftJaw6" cx="649.3" cy="281.2" r=".8"/>
    <circle id="leftJaw5" cx="660.9" cy="268.6" r=".8"/>
    <circle id="leftJaw4" cx="667.7" cy="248.6" r=".8"/>
    <circle id="leftJaw33" data-name="leftJaw3" cx="668.5" cy="227" r=".8"/>
    <circle id="leftJaw23" data-name="leftJaw2" cx="668.5" cy="217.4" r=".8"/>
    <circle id="leftJaw1" cx="667.7" cy="205.7" r=".8"/>
    <circle id="leftJaw0" cx="665.2" cy="196.5" r=".8"/>
    <circle id="rightTop03" data-name="rightTop0" cx="604.8" cy="172.5" r=".8"/>
    <circle id="rightTop1" cx="592.2" cy="182" r=".8"/>
    <circle id="leftShoulder1" data-name="leftShoulder" cx="731.8" cy="349.2" r="8.2"/>
  </g>
</svg>