<?xml version="1.0" encoding="UTF-8"?>
<svg id="Layer_1" xmlns="http://www.w3.org/2000/svg" version="1.1" viewBox="0 0 1200 1200">
  <!-- Generator: Adobe Illustrator 30.0.0, SVG Export Plug-In . SVG Version: 2.1.1 Build 123)  -->
  <defs>
    <style>
      .st0, .st1 {
        fill: none;
      }

      .st2 {
        fill: #120a0f;
      }

      .st3 {
        fill: #180c15;
      }

      .st4 {
        fill: #030202;
      }

      .st5 {
        fill: #888239;
      }

      .st6 {
        fill: #0b0608;
      }

      .st7 {
        fill: #241c29;
      }

      .st8 {
        fill: #20181c;
      }

      .st9 {
        fill: #f3af9d;
      }

      .st10 {
        fill: #662d1c;
      }

      .st11 {
        fill: #cc9876;
      }

      .st12 {
        fill: #2d2630;
      }

      .st13 {
        fill: #21151f;
      }

      .st14 {
        fill: #cccbcb;
      }

      .st15 {
        fill: #aa2725;
      }

      .st1 {
        stroke: #000;
        stroke-miterlimit: 10;
      }

      .st16 {
        opacity: .6;
      }

      .st17 {
        fill: #441510;
      }

      .st18 {
        fill: #32323c;
      }

      .st19 {
        fill: #5f7629;
      }

      .st20 {
        display: none;
      }

      .st21 {
        fill: #4b2b12;
      }
    </style>
  </defs>
  <g id="illustration" class="st16">
    <path id="Feet_left" class="st21" d="M520.9,937.2l-23.6,1-1.9,5.9v4.4l15.7,5.2h18.5l16.2-7.9,16.7,2.1,4.2,5.5s14.8.4,19.9,0,6.5-7.2,6.5-7.2v-21.3l-3.8-2.1h-37.8"/>
    <path id="Feet_right" class="st21" d="M727,935.3l21.7,1,1.7,5.9v4.4l-14.5,5.2h-17l-14.9-7.9-15.3,2.1-3.8,5.5s-13.6.4-18.3,0-6-7.2-6-7.2v-21.3l3.5-2.1h34.9"/>
    <path class="st13" d="M550.2,556v368.2s42.8,9.7,42.8.6,32.1-336.8,32.1-336.8l37.5,336.2s37.9,2.3,37.1-.3,13.2-367.9,13.2-367.9"/>
    <g>
      <circle id="rightShoulder" cx="522" cy="338" r="8.2"/>
      <circle id="rightHip" cx="572.3" cy="553.8" r="8.2"/>
      <circle id="leftHip" cx="688.6" cy="553" r="8.2"/>
      <circle id="leftShoulder" cx="734.9" cy="338" r="8.2"/>
      <path class="st4" d="M629.1,417.8c3.1,0,4.8-.9,6.1,1.6,2,3.9,3.3,12.2,4.4,16.7.7,3,0,6.3.7,9.3s5.1,6.5,5.9,9.4c1.1,3.8,1.9,16.7,1.3,20.5s-5.1,5.2-6,8.2c10,0,3.8,8.7,4.8,13.3,1.5,6.6,7,14.2,8.1,21.4.5,3.4-1.4,18,1.4,19.2,5,2.2,3.4-7.6,3.6-8.8.6-2.3,4.5-5.1,4.3-8l-2.4-16.6c6.5-1.5,6.3,3.2,7.7,3.5,4.8.9,12.7-2.1,15.8,0,1.2,4,8.4,8.1,9.8,11.3,1.2,2.8-2.3,9.5,2.3,10.9,2.7.8,2.5-3.4,4.3-4.7,1.7-1.1,6.4-1.6,7.6-3.9,0,.2,1.8.8,2.2,1.6.9,2.1.2,21.7-.4,24.4-.6,2.7.5,3.9.6,6,.2,2.2,0,0,1.2,6.8.3,1.7,0,4.6.2,7.7.2,4.2,1,4.9,1.4,9.1h-79.4c-.5-9.1-.3-18.2-.6-27.4-.3-13.7-1.1-27.3-.8-41,0-4.2-2.8-1.2-3.1,1.3-1.4,12.6.5,26.9,1.3,39.7.5,9.1,2.1,18.3.6,27.4h-11.9c-2.2-4-4.2-7.1-3.4-11.5.3-1.4,2.1-2.4,2.3-4.3.5-3.4-1.7-19.7-3-23.1-.9-2.3-4.3-2-5.3-3.6-1-1.5-1.6-5.9-2.1-8-.3-1.1,0-2.3-.2-3.4,2-3.7,6.7-7,8.2-10.9,3.6-9.4.6-21.4,2.2-31.4.3-1.8,2.4-3.3,2.3-5.2,0-.8-9.8-6.2,2.2-3.8-.7-2.5,1-4.8,1-7.3,0-3.9-2.7-2.2.4-5.8,1.5-1.7-2.1-4.6,2.8-4.1.8,11.1,1.4,22.2,2.3,33.3.3,3.5.3,7.1.7,10.7.2,1.1-.8,3.6,2.2,3,1.2-.2-.2-11.8-.3-13.7-.9-15.9-2.3-31.9-3.3-47.9-.4-6.3-1.2-12.5-1.3-18.8,0-1,1.2-2.4,1.1-3.4h0l.2.3h0ZM638.5,572.5c-.2-2.1,0-4.3-.4-6.4,0-1,.8-3.2-1.5-3,.2,2.1,0,4.3.4,6.4,0,1-.8,3.2,1.5,3Z"/>
      <path class="st8" d="M623.1,407.5c0,1.4-.5,7-.8,8.9-.3,2.1-6.1,6.4,1.8,5.6-.2.3,0,1.2,0,1.7-1.1,1.5-2.6,3.5-3.3,5-3.2,7.4-6,19-6.4,27.5,0,1.7.3,3.4.4,5.1-9.4.8-5.2,1.4-6.5,5.4-2.5,7.3-4.1,14.9-4.6,22.5,0,2.1,3,4.7,0,7-1.1.5-3.7,0-5,.1.4,3.3.7,5.2.6,8.5,0,1.7.3,3.4.4,5.1-.6.3,2.1,2.8-5.2.9,2.7,5-4.9,3.4-6.2,4.4s2.3,12.7-.4,15.3c-3.5,1-2.1-2.5-4.7-1.7-1,.3-2.2,1.8-2.5,2.5-1.7,3.9.5,23.4,1.3,28.7.3,2.3,1.7,10.3,2.5,11.8,2.6,5,16.2-2,18.6,4.9h-54.3c0-5.1,1.5-10.3,1.6-15.4l5-3.4,2.3,13.7h4c0-4-1.6-8.2,1.3-11.9.4-.5,2.3-.6,3-1.6.6-.9,2.6-8.4,2.1-8.7h-9.3c.5-2.3,8,.9,6.4-2.6-2.8.3-7.4-.5-9.8,0-1.7.3,1.1,3.4-3.2,2.6-.2-6.7-1.9-15.3-1.5-21.4l4.2,4.3c0-5.8,2.8-11.3,1.5-17.1h-6.6c0-2-.5-4-.4-6l1.3-.4-1.3-.4c0-2.3.8-5.1.8-6.8,2.5,1,2.9-3.4,5.2-1.7,2.2,1.6-3.3,7.6-2,8.5,2.5,1.8,2.7-3.5,5.2-1.7,1.3,1-1.8,6.8-.7,8.5h7.9c1.5.9-2.1,9.9-2,10.6,0,.5,2.2.3,2.7,1.1,2,3.2-.4,9.2,8.6,7.9-.4-4.5-3.6-5.5,3.2-8.2,0-4.7-2.4-10.9-2.3-15.3.2-5.9,3.2-13.4,2.8-19.7-.2-2.8-2.9-2-3-2.6,0-.9,1.3-2.6,1.2-4.2-.2-3-3.8-8.1,3.9-8.1l4.9,4.3c.3-2.2-2.4-8.7,3.4-8.5,1,2.7-.7,5.4-.4,7.9.3,2.7,6.4,11.2,3.1,12.6-3,1.3-4.3-1.6-4.9-1.7-7.3-1.2-3.5,3.4-4,6.8,5.3-.5,10.5-1,15.8-1.7-.5-4.2-1.9-8.5-2.3-12.4-.4-3.3,2.4-6.8-.6-10.7h6.6c.9-1.8-1.8-4.3-1.7-5.5,0-.5,2.3-.4,2.6-1.1,1.9-5.9,1.7-3.5,4.6-7.6,4.5-6.4,2.7-15.4,2.5-22.2,0-3.5,1.2-6.2-.6-9.8.9-.1,5.3.2,5.3,0l-1-14.1c-.2-2.6,4.8-11.2,5.6-14.1,1.3,2,3.1,6.6,3.2,8.5h.1ZM585,525.5l-.2-3.4h-1.3l.2,3.4h1.3Z"/>
      <path class="st3" d="M599.8,510.1c.6-.3,5-.5,4,1.3-1.1,2-5,4.1-3.5,7.3l-5.3-.9c.3,1-.2,3.9.3,4.3,2.5,1.9,2.4-3.2,5.1-1.7.2,0,2.9,2.8,2.9,3l1.5,20.9c-5.2.4,0-4.6-7.7-1.9-5.7,2-.4,4.9.2,8.3.6,3.3,1.2,8.9.9,12-.5,5.7-6.9,5.9,8.3,7.2v1.7c-5.2-.6-.4,2.7-1,5.1h-2.7c-2.4-6.9-16,0-18.6-4.9-.8-1.5-2.1-9.4-2.5-11.8-.8-5.3-3-24.8-1.3-28.7.3-.8,1.5-2.2,2.5-2.5,2.6-.8,1.3,2.7,4.7,1.7,2.7-2.6-.9-14.3.4-15.3s8.8.7,6.2-4.4c7.3,2,4.6-.5,5.2-.9h0l.3.2h0Z"/>
      <path class="st6" d="M608.9,526.4c.5,2,1.1,6.4,2.1,8s4.5,1.2,5.3,3.6c1.3,3.4,3.5,19.8,3,23.1-.3,1.9-2.1,2.9-2.3,4.3-.9,4.4,1.2,7.5,3.4,11.5h-10.6c-1.2-1.9-2.4-2.9-3-5.1v-1.7c-.2-1.7-.6-3.8-.3-5.5,1.9-11.7.4-23,0-35.1,0-1.7-1.6-3.4,2.4-3h0Z"/>
      <path class="st3" d="M634.3,549.5c.2,9.1,0,18.2.6,27.4h-2.7c1.6-9,0-18.2-.6-27.4h2.7Z"/>
      <path class="st2" d="M606.7,571.7c.6,2.2,1.8,3.2,3,5.1h-4c.6-2.5-4.3-5.8,1-5.1Z"/>
      <path class="st18" d="M569.2,316.1c3.8,1,2.4,2.4,2.9,4.3l-8-.9c-.4,1.3,1.7.5,2.6,1.5,3.3,3.5-.3,2.4-1.5,3.6-2.4,2.4-2.3,5.4-8.3,5.1v.8c3.6-.5,4.9,4.8,4.5,6.3-.2.8-3,.2-2.6,1.8.7,2.6,8.2,3.8,4.7,9l-9.3-.9c-1-2-7.4-6.1-7.8-9.1l-6.4-4.6c.4,2.9,0,6,.7,8.9.9,3.4,4.7,7.6,5.8,9.7.2.5,1.9,5.9,1.8,6.2,0,.5-4.3,3.2-3.6,4.6.3.6,6.8,2.1,4.2,3.9-1.9,1.3-11.6-2.9-8.3-6-3.3-.4-2.9.4-2.5,2.1.2.8,4.4,8.4,4.9,8.8,1.3,1.1,10.1,1.4,10.6,2.4,1,2,.2,7.4.6,10.2,1.3,7.6,6.3,20.7,1.9,27.3-.6.9,1.2,1.7-2.5,1.3-.3-2.2-.8-8.5-5.9-8.5-2.7-26-13.2-40.8-23-65-.2-.5,0-1.2,0-1.7-.3-.8-1.8-3.2-2.9-3.4-4-.8-3,1.5-5.5-3.4,8.6-6.8,18-5.3,28.9-7.8,6.2-1.4,18-4.7,24.4-6.8h0l-.3.3h-.1ZM523.9,331.5c-5.5-.4-5.4,1.3,0,.8v-.8ZM541.1,350.3c-1.5-.9-4,.8-2.5,1.7,1.5.9,4-.8,2.5-1.7ZM538.7,353.7h-2.6l.3,4.3h2.6l-.3-4.3Z"/>
      <path class="st6" d="M673.5,312.7c-7.2-.4-3.6,1.6.2,3.4.3,1.8-.5,3.4-1,5.1-1.2.1-4.9-.2-5.3,0-.5.3-2,8.6,1.9,8.5-.3,1.2.4,2.9.3,4.3-3.5-.4-2.7,1-3.4,2.4-2,4.2-5,10-7.7,14.1-1.2,1.8-5,3.7-5.7,5.6-1.1,3.4,4.9,6-2.5,5.3,3.3,4.4-.3,2.9-1.6,4.3-1.1,1.2-1,2.7-2,3.7-1.8,1.8-7.7,4-6,7.3-2.5,2.2-3.8,3.9-4.8,6.8l-2.4-4.3,9.2-31.6,2.7.9c-3-2.1,1.3-4.9,1-5.1s-2.3.2-2.7,0v-1.7c5.2.3,1.2-1.3,1.2-1.7-.2-3.2,4.2-11.3,5.2-15.2,1.9-7.5,5.7-17.8,1.3-25,1-1.3,1.8-1.7,2.4-3.4,4.1,1.9,4.5,5.5,7.2,8.1,2.1,2,9.4,6.5,12.5,8.1h0Z"/>
      <path class="st18" d="M687.2,320.4c1.3-.4,10.6,1.1,15,2,9.4,1.9,23.1,5.1,30.8,9.2-.2,2.4-9,6.7-8.8,6,2.2-8.3-4,.5-6.8,3.1-.9.8-3.1,1-4.5,2.5-4,4.4-4.4,10.4-13.1,13.1-2.9-1.4-2-3.8-3.4-5.8-1.3-1.8-6.4-3.1-4-5.4.6-.6,3.2-.5,3.3-1.4,0-.7-1.2-2-1.1-3.1,0-2.2,1.7-7.4-.4-9.2-1.1-.9-4.4-.4-4.9-1.3-.9-1.8.4-5.3-.5-7.4-.3-.7-3.6-.6-2.8-2.3h1.3,0Z"/>
      <path class="st18" d="M600.4,327.2c-.2.1,0,2.8.2,3.4.6,3,2.6,5.8,3.3,9.4-2.3-1.1-1.9-3-3.1-4.5-.9-1.1-6.5-4.4-6.7-4.6-1.1-1.9,4.1-7.8-3.8-7.2-1,0-1,1.6-2.1,2.1-1.3.6-3.7.4-3.9.5-1.5.9,3.9,4,4.1,4.9.5,1.6-3.7,2.3-3.6,4.1.2,2.5,8,4.7-3.5,6.9,0,1.8,6.2,5.8,7.1,7.2.8,1.2.8,4.4,1.7,6h-1.3c-3.4-4.8-7.9-10-11.6-14.5-1.2-1.5-3.5-2-4.2-3.9-1.5-3.7,2.1-2.8,3-3.8,1.1-1.1-3.2-8.8-4.1-11.1,3,.6,5.2-4.9,4.9-5.1l-2.7-.9c5.7-1.6,2.4,0,5.3.8,0-1.9,2.1-3.1,3.1-4.7.2-.4-.9-1.2-.8-1.3,2.6-3.7,8.3-7,11.2-10.3-1.9,6.6,1.9,11,3.7,16.7,1,3.1-1.5,8,3.4,9.8h.4,0ZM580,338.3c-.4-2.1,1.2-4-2.9-3.4-.3,3.7,0,2.6,2.9,3.4.2.8-.5,2.3.8,2.6,4.4-2.9,1.2-2-.8-2.6Z"/>
      <path class="st3" d="M552.3,549.5c4.3.8,1.5-2.3,3.2-2.6,2.5-.4,7,.4,9.8,0,1.6,3.5-6,.3-6.4,2.5h9.3c.5.3-1.5,7.9-2.1,8.7-.6,1-2.5,1-3,1.6-3,3.7-1.4,7.9-1.3,11.9h-4l-2.3-13.7-5,3.4c0-4.6,2-6,1.8-12h0v.2h0Z"/>
      <path class="st2" d="M673.5,312.7c4.5,2.4,13.3,3.5,13.8,7.7h-1.3c-1.7.2-4.2-.6-5.4.5-1.8,1.7,1.8,7.4,2.1,8.9.5,2.9-.6,4-.9,6h-1.3c4-4.6-5.9-4.9-7-7.4-.9-1.9,3.2-3.6,3.4-5.9.2-2.1-2-4.2-.5-6.3-.8-.2-2.2.1-2.6,0-3.8-1.8-7.4-3.8-.2-3.4h0Z"/>
      <path class="st2" d="M597.1,299c0,.5-1.2,1.2-1.2,1.7-.2,2.3,0,5.8.6,8.1.7,3.2,3.8,13.2,6.3,15l-1.1.6c2.5,4.2-.9,2.4-1.3,2.9-5-1.8-2.5-6.7-3.4-9.8-1.8-5.7-5.6-10.1-3.7-16.7,1-1.1-.2-5.9,3.8-1.7h0Z"/>
      <path class="st7" d="M549.9,515.3h6.6c1.4,5.8-1.6,11.3-1.5,17.1l-4.2-4.3c0-.3-.9-12.8-.9-12.8h0Z"/>
      <path class="st7" d="M582,310.9s1.1.9.8,1.3c-1,1.6-3.1,2.8-3.1,4.7-2.9-.8.4-2.4-5.3-.8l2.7.9c.3.2-1.9,5.8-4.9,5.1v-1.8c-.5-1.9.9-3.3-2.9-4.3,4.6-1.5,8.8-3.2,12.9-5.1h-.2Z"/>
      <path class="st8" d="M549.2,524.7"/>
      <path class="st6" d="M698.6,387.9c0,.2-.2-.1,0,0l1.8,7.7s.5,3,.2,4.6c-.8,6.3,1.1,15.1,1.1,15.1l1.1,15.3s.5,5.6.5,7.3-.4,7.6.7,10.7l1.1,15,2.9,11.4c0,5.5.9,13.2.9,13.2l.6,9,1.3,6v11.4c0,1.6-.2,6.8.3,8.2-1.3,2.3-8.1,1.1-9.8,2.2-1.8,1.2-1.6,5.5-4.3,4.7-4.5-1.4-1-8.2-2.3-10.9-1.5-3.3-8.7-7.3-9.8-11.3-3-2-11,1-15.8,0-1.3-.2-1.1-5-7.7-3.5l2.4,16.6c0,2.8-3.8,5.6-4.3,8-.3,1.2,1.3,11-3.6,8.8-2.7-1.2-.8-15.8-1.4-19.2-1.1-7.1-6.6-14.8-8.1-21.4-1.1-4.6,5.1-13.4-4.8-13.3.9-2.9,5.3-4.5,6-8.2s-.2-16.7-1.3-20.5c-.8-2.9-5.1-6.5-5.9-9.4s0-6.3-.7-9.3c-1.1-4.5-2.4-12.8-4.4-16.7-1.3-2.5-3-1.6-6.1-1.6,0-.2-2.1-1.6-1.5-2.6,6.7.8,1.5-3.8,8.8-6-.6,1.5,0,9.9.7,10.3.5.3,4.8-.3,5.3,0,.9.6,1.5,11.5,2.2,13.1.4,1,3.9.7,4.3,2.7.3,1.7-2.1,2.8-2.4,4.3-1.5,8.3,5.6,7.9,7,12.9.4,1.4-1.1,3.2-.7,5,.7,3.3,2.7,6.4,2.1,9.8,2.6.2,6-.4,8.4,0,1.4.2.4,1.6,1.6,1.7,3.1.4,1.2-1.5,2.7-1.7,4.1-.7,10.4,2,14.3.1,2.5-1.2.2-18.7.7-21.9,1.1-7.4,3.2-13.1,3.9-20.5,0-1.2,2.3-2.1,2.1-3.3.6-2.1-8.3-5.5-6.8-6.5,1.2-.9,8.9-.7,9.2-.9s-.5-3.5-.3-4.7c1.5-6.1,0-11.8,1.4-17.9.3-1.4,2.1-2.4,2.3-3.9h4.1Z"/>
      <path class="st2" d="M611.6,489.6c4-.5,2.6,1.3,2.8,3,.3,2.1,1,5.8.5,7.7-.5,2-3.5,2.5-3.7,4.3-.3,1.9,2.2,3.9,1.6,5.8-.6,1.7-4.9,2.6-5.6,7.2-.5,3.2,1.1,3.9,1.3,5.3.2,1.1,0,2.3.2,3.4-4-.5-2.5,1.3-2.4,3,.2,12.2,1.7,23.4,0,35.1-.3,1.7,0,3.8.3,5.5-15.3-1.3-8.8-1.5-8.3-7.2.3-3.2-.3-8.8-.9-12-.6-3.5-6-6.3-.2-8.3,7.6-2.7,2.5,2.3,7.7,1.9l-1.5-20.9c0-.2-2.7-2.9-2.9-3-2.8-1.5-2.7,3.5-5.1,1.7-.5-.4,0-3.3-.3-4.3l5.3.9c-1.5-3.2,2.4-5.3,3.5-7.3.9-1.8-3.4-1.6-4-1.3,0-1.7-.4-3.4-.4-5.1l8,1.7c1.8-5.7,3.3-11.4,4.1-17.1h0,0Z"/>
      <path class="st6" d="M627.2,446.9c.2,2.6.3,5.1.5,7.7-4.8-.5-1.3,2.4-2.8,4.1-3,3.5-.5,1.9-.4,5.8,0,2.4-1.6,4.8-1,7.3-12-2.4-2.3,3-2.2,3.8,0,2-2,3.4-2.3,5.2-1.7,9.9,1.3,22-2.2,31.4-1.5,3.9-6.1,7.2-8.2,10.9-.2-1.4-1.8-2.1-1.3-5.3.7-4.6,5-5.5,5.6-7.2.7-1.9-1.9-3.8-1.6-5.8.2-1.8,3.2-2.4,3.7-4.3.4-1.9-.2-5.6-.5-7.7-.2-1.6,1.1-3.4-2.8-3,.3-2.4,2.2-1.5,2.5-2.3.7-2.4-1-5.7-.5-8.3.3-1.7,3.5-3.8,3.1-5.2-.3-1.1-5.1-2.1-3.9-5.8.2-.6,2.3-.5,2.5-1.2.5-1.5-.3-3.7-.3-5.4s-.4-3.4-.4-5.1c8-.7,4.8-9.9,12.6-9.4h0v-.2h0Z"/>
      <path class="st12" d="M629.4,440c1,15.9,2.4,32,3.3,47.9h-2.7c-.9-11.1-1.5-22.2-2.3-33.3-.2-2.6-.3-5.1-.5-7.7-.2-2.3-.3-4.6-.5-6.8h2.7Z"/>
      <path class="st6" d="M631.7,549.5c-.8-12.7-2.7-27.1-1.3-39.7.3-2.5,3.2-5.5,3.1-1.3-.3,13.7.5,27.3.8,41h-2.7.1Z"/>
      <path class="st18" d="M628.1,421.2c.2,6.3.9,12.5,1.3,18.8h-2.7c-.5-5.5-1.6-10.8-2.5-16.2,0-.5-.3-1.4,0-1.7.4-.8.5-.6,1.3-.9.5-.2,1.9.1,2.7,0h0Z"/>
      <path class="st2" d="M632.7,487.9c0,1.9,1.5,13.5.3,13.7-3,.6-2-1.8-2.2-3-.5-3.5-.4-7.1-.7-10.7h2.7,0Z"/>
      <path class="st7" d="M629.1,417.8c.2,1-1.1,2.4-1.1,3.4-.8.1-2.2-.2-2.7,0,0-1.4-.5-3-.3-4.3,0-.2,1.1-.9,1.2-1.7h1.3c-.6,1,1.5,2.3,1.5,2.6h0Z"/>
      <path class="st6" d="M638.5,572.5c-2.3.2-1.4-1.9-1.5-3-.3-2.1-.2-4.3-.4-6.4,2.3-.2,1.4,1.9,1.5,3,.3,2.1.2,4.3.4,6.4Z"/>
      <path class="st7" d="M618.5,393.6l1.6,3.4c0,.5.3,1.2,0,1.7-.8,2.9-5.8,11.5-5.6,14.1l1,14.1c0,.2-4.4-.1-5.3,0,1.9,3.6.6,6.3.6,9.8,0,6.8,2,15.8-2.5,22.2-2.9,4.1-2.7,1.8-4.6,7.6-.2.7-2.6.6-2.6,1.1,0,1.2,2.6,3.7,1.7,5.5h-6.6c3,3.9.3,7.4.6,10.7.4,3.9,1.8,8.1,2.3,12.4-5.2.7-10.5,1.2-15.8,1.7.4-3.5-3.3-8.1,4-6.8.6.1,1.9,3,4.9,1.7,3.3-1.4-2.8-9.9-3.1-12.6-.3-2.5,1.4-5.2.4-7.9-5.8-.2-3.1,6.3-3.4,8.5l-4.9-4.3c-7.8,0-4.1,5.1-3.9,8.1,0,1.6-1.3,3.3-1.2,4.2,0,.6,2.8-.2,3,2.6.4,6.3-2.7,13.8-2.8,19.7,0,4.4,2.2,10.7,2.3,15.3-6.8,2.7-3.6,3.7-3.2,8.2-9,1.2-6.6-4.8-8.6-7.9-.5-.8-2.7-.7-2.7-1.1,0-.8,3.4-9.8,2-10.6h-7.9c-1-1.8,2-7.6.7-8.5-2.4-1.8-2.7,3.5-5.2,1.7-1.3-.9,4.2-6.9,2-8.5-2.2-1.7-2.7,2.8-5.2,1.7,0-5.8-1.2-11.9-1.2-17.1,4.8.7,1.6-2.9,2.4-3.4h4c1.4.8-.5,8.7,5.8,6.9-2.2-10.1,1.4-5.2,6.2-7.2,4.1-1.8.6-6.7.7-8.5,0-2.4,6.3-7.4,3.1-11.6l-6.4,3.4c.5-3-1.9-8.6,0-11.1,1.3-1.8,6-1.2,5.8-4.7,0-1.6-2.7-1.1-3-1.8-.8-2.4,2.2-3.5,2.3-5s-2.4-3.4-2.8-5.2c-.3-1.2,1.2-2.5.7-4-.4-1.3-3.3-3.2-3.7-5.6-.4-2.2,1.4-4.7.5-7,4.4-.6,2.1,1.9,2.9,3.7.3.5,1.5.6,1.7.7,1.1,1.4,3.1,4.9,3.8,1.2.3-1.8-2.1-4.5,2.4-3.9.7,3.4-.2,7.3.8,10.6,2.1,7.1,1.8,7.5,2.2,14.6,0,1,1.5,7,2,7.3.3.2,2.9-.1,4,0-1.7-14.2,3.9-2.9,5.8-2.6,3.1,0,4-3.2,7.7-2.6,2.8.5,1.4,5.7,6.3,5.1-.4-1.6.4-4-.5-5.5-1.1-1.9-7.3-1.1-6.7-4,12.4.9,5.3-10.2,5.9-13.9.4-2.5,5.1-3.8,5.7-5.5.8-2.1-.8-4.7,0-6.6.5-1.2,3.4-1.1,3.7-2,.7-2.2-2.8-6-2-9.2.5-1.9,3.1-2.5,3.5-3.6.3-.7.5-11.3.6-13.1,3.2.4,3.3,2.7,4.2,3.4h-.4Z"/>
      <path class="st3" d="M615,461.4c0,1.7.8,4,.3,5.4-.2.7-2.3.5-2.5,1.2-1.1,3.7,3.7,4.7,3.9,5.8.4,1.4-2.8,3.5-3.1,5.2-.5,2.6,1.2,6,.5,8.3-.2.8-2.1,0-2.5,2.3-.8,5.8-2.3,11.4-4.1,17.1l-8-1.7c0-3.3-.2-5.3-.6-8.5,1.4-.2,4,.4,5-.1,2.8-2.4-.3-5,0-7,.5-7.6,2.1-15.2,4.6-22.5,1.3-3.9-2.8-4.6,6.5-5.4h0Z"/>
      <polygon class="st3" points="585 525.5 583.7 525.5 583.5 522.1 584.8 522.1 585 525.5"/>
      <path class="st7" d="M549.5,509.3v-.9l1.3.4-1.3.4h0Z"/>
      <path class="st12" d="M573,320.1v.9c-2.5,1.2-3.3,6.6-3,8.3.2,1.4,2.4,2.1,2.5,3.2,0,1.2-2.6,2.3-2.5,4.3.2,2.5,5.3,6.1,5.9,7.3,1,1.8-4.3,5.4,4.3,5.1.8,1,1,1.9,1.5,2.6-4-.3-2.8.9-1.7,2.5,1.3,2,4.6,4,5,6.5l2.5-1.3c.2.4,1.1,1.5,1.4,1.7-5,2.9,1,7.6,7.1,6.8,2.3,4.5,1.3,1.3,3.8,2.7.7.4,1,2.5,2.1,3.5,2.5,2.4,5,5.6,6.9,7.4l-2.4,3.4c2.3,0,4.5.6,6.7.9,0,.6,1.4,1.4,1.4,1.7.2.8.2,1.8.2,2.6,0,1.8-.3,12.3-.6,13.1-.4,1.2-3.1,1.7-3.5,3.6-.8,3.2,2.7,7,2,9.2-.3.9-3.2.8-3.7,2-.8,1.9.8,4.5,0,6.6-.7,1.7-5.3,3-5.7,5.5-.6,3.7,6.6,14.8-5.9,13.9-.6,2.8,5.6,2.1,6.7,4,.9,1.5,0,3.8.5,5.5-5,.6-3.5-4.6-6.3-5.1-3.7-.7-4.7,2.5-7.7,2.6-1.9-.3-7.5-11.6-5.8,2.6-1.1-.1-3.7.2-4,0-.4-.2-1.9-6.3-2-7.3-.4-7.1,0-7.5-2.2-14.6-1-3.3,0-7.2-.8-10.6-4.4-.6-2.1,2.1-2.4,3.9-.6,3.7-2.7.2-3.8-1.2,0-.1-1.4-.2-1.7-.7-.9-1.8,1.5-4.3-2.9-3.7.9,2.4-.9,4.8-.5,7,.4,2.4,3.3,4.2,3.7,5.6.5,1.5-1,2.8-.7,4,.5,1.8,2.9,3.8,2.8,5.2s-3.1,2.6-2.3,5c.2.6,2.9.2,3,1.8.2,3.5-4.5,2.9-5.8,4.7-1.8,2.6.6,8.1,0,11.1l6.4-3.4c3.1,4.2-3,9.2-3.1,11.6,0,1.9,3.4,6.8-.7,8.5-4.8,2.1-8.4-2.9-6.2,7.2-6.3,1.9-4.3-6-5.8-6.9h-4c-.8.5,2.4,4.2-2.4,3.4,0-26.6,1.1-53.7-1.6-80.4,5.1,0,5.6,6.4,5.9,8.5,3.7.4,2-.4,2.5-1.3,4.4-6.6-.5-19.8-1.9-27.3-.5-2.8.4-8.1-.6-10.2-.5-1-9.3-1.3-10.6-2.4-.4-.4-4.7-8-4.9-8.8-.4-1.8-.8-2.5,2.5-2.1-3.2,3.1,6.5,7.3,8.3,6,2.6-1.8-3.9-3.3-4.2-3.9-.7-1.5,3.5-4.2,3.6-4.6,6.2-2.9,3.3,2.3,4.4,4.7,1,2.3,4.4,4.2,3.1,7.3h4c1.9-3.8-2.6-7.4-3.3-9.9-1-3.8-.3-9.5-2.3-13.2l9.3.9c3.6-5.2-4-6.4-4.7-9-.4-1.6,2.4-1.1,2.6-1.8.4-1.5-.9-6.7-4.4-6.3v-.8c5.9.3,5.9-2.7,8.3-5.1,1.2-1.2,4.8,0,1.5-3.6-1-1-3-.2-2.6-1.5l8,.9h0l.7-.3h.1ZM577.5,367.1c-2.7-1.1-5.9,1.8-6.1,3.1,0,1.1,2.2,1.9,2.5,3.2,1.1,6-1.4,5.6,2.9,11.6,3.9,5.5-2.2,6.8-2,11.4,0,1.3.9,8.8,1.4,9.1.5.3,4.8-.3,5.3,0,.4.2.2,5.2.4,6.4,1,5.9,3.9-.8,5.1-1.8,3.2-2.5,6.9-1.4,8.8,1.3l1.7-3.4c3.7-.7,2.6,3.4,6.8,1.3s0-13.2,0-16.7c-6.1,1.5-7,.9-9.2-3.2-1.4-2.6,2-1.6,2.2-2.4.7-2.8-2.7-3.4-4.1-5.3-1.1-1.5-3.1-3.9-3.7-4.7-1-1.4,0-11.6-5.9-6.6-1.3,1.1-.6,3.9-4.5,3.4.2-1.2-.8-6.4-1.9-6.8h.3Z"/>
      <path class="st7" d="M548.3,358c0-.3-1.6-5.8-1.8-6.2-1.1-2.1-4.9-6.2-5.8-9.7-.7-2.9-.3-6-.7-8.9l6.4,4.6c.3,3,6.7,7.1,7.8,9.1,2,3.7,1.3,9.4,2.3,13.2.7,2.5,5.2,6.1,3.3,9.9h-4c1.3-3.1-2.1-5-3.1-7.3-1-2.4,1.8-7.5-4.4-4.7h0Z"/>
      <polygon class="st12" points="538.7 353.7 539 358 536.4 358 536.1 353.7 538.7 353.7"/>
      <path class="st12" d="M541.1,350.3c1.5.9-1,2.6-2.5,1.7s1-2.6,2.5-1.7Z"/>
      <path class="st8" d="M523.9,331.5v.8c-5.4.4-5.5-1.3,0-.8Z"/>
      <path class="st14" d="M644.9,340c-1.2.2-1.2,1-1.2,1.7v1.7c-3.2,1.6-2.7,4.6-3.5,6.8-4.1.5-2.3-1.3-3-2.9-3.4-8-5.2-15.9-8.1-23.6,3-3.2-2.4-11.4-8.5-8.5-.4.2.3,1.2,0,1.7-2.5,5.8,2.6,10.4,1.9,13.1-.3,1.3-4,2.2-4.6,3.7-.7,1.9,1.4,3,1.4,3.6-4.1-.5-2.4,1.3-2.4,3,0,4.5.7,10.2-3,14.1-3.6-7-4.9-13.5-6.7-20.5-.7-2.6-1.1-7.7-2-9.7-.4-1-2.6-.5-2.7-.6-2.5-1.8-5.6-11.8-6.3-15-.5-2.3-.8-5.8-.6-8.1,7.3,5.4,23.3,11.1,24,11.1,4.4.1,11.1-1.8,14.9-2.6,1.5-.3,5.8-.8,7.8-1.7.4-.2,1-.6,1.3-.9,1.1-1.2,4.5-4.4,6.2-6,.3-.3,1-.6,1.3-.9,4.4,7.2.6,17.4-1.3,25-1,3.9-5.4,12-5.2,15.2h0l.2.3h0Z"/>
      <path class="st8" d="M643.8,343.4c.3.2,2.3-.2,2.7,0s-4,3-1,5.1l-2.7-.9-9.2,31.6,2.4,4.3c-.2.6-1.3,1.2-1,2l1.2.5c-.3.3-.9.5-1.3.9-3.6,3-2.1,2.2-3.6,5.1h-2.6c-1-4.7.9-9.1,1.7-13.7.4-2.1.3-4.8.8-6.8,2-7.9,6.5-14,9.1-21.4.8-2.3.3-5.2,3.5-6.8h0Z"/>
      <path class="st3" d="M669.6,334c0,.8-1.6,3.1-1.1,3.4h4c-1.1,7-8.8,12-13,17.7-.7.9.2,2.4,0,2.8-5.9,7.6-11.1,12.2-18.5,18.8-1.7-3.4,4.1-5.5,6-7.3,1-1,.9-2.5,2-3.7,1.2-1.4,4.9.1,1.6-4.3,7.4.7,1.4-1.9,2.5-5.3.6-1.8,4.4-3.7,5.7-5.6,2.8-4.1,5.7-9.9,7.7-14.1.7-1.4,0-2.8,3.4-2.4h-.3Z"/>
      <path class="st8" d="M673.7,316.1c.3.2,1.8-.2,2.6,0-1.5,2.1.8,4.1.5,6.3-.3,2.3-4.3,4-3.4,5.9,1.2,2.5,11,2.8,7,7.4-.2,1.4-3.7,1.6-3.8,1.7h-8c-.5-.4,1-2.6,1.1-3.4,0-1.4-.6-3.1-.3-4.3.6-2.6,2.5-5.6,3.4-8.5.5-1.7,1.3-3.3,1-5.1h0Z"/>
      <path class="st12" d="M660.7,358c-8.1,10.5-13,17.8-24.5,28.2l-1.2-.5c-.4-.8.8-1.5,1-2,1-3,2.3-4.6,4.8-6.8,7.5-6.6,12.7-11.2,18.5-18.8h1.4Z"/>
      <path class="st2" d="M672.7,321.2c-.9,2.9-2.7,6-3.4,8.5-3.9,0-2.4-8.2-1.9-8.5.4-.3,4.1.1,5.3,0h0Z"/>
      <path class="st8" d="M644.9,340c0,.4,4,2-1.2,1.7,0-.7,0-1.5,1.2-1.7Z"/>
      <path class="st12" d="M685.9,320.4c-.8,1.7,2.5,1.6,2.8,2.3.9,2.2-.5,5.7.5,7.4.5,1,3.8.4,4.9,1.3,2.1,1.8.5,6.9.4,9.2,0,1.1,1.3,2.4,1.1,3.1-.2.9-2.7.8-3.3,1.4-2.3,2.3,2.7,3.6,4,5.4,1.5,2,.5,4.3,3.4,5.8,8.8-2.7,9.2-8.8,13.1-13.1,1.4-1.5,3.6-1.7,4.5-2.5,2.8-2.6,9.1-11.4,6.8-3.1-.2,1.3-2.9,2.3-3.3,2.9-3,3.5-4.3,7.4-6.3,11-.5.8-5.5,5-6.2,4.9-.4,0-.7-1.1-2.6-.5-6.8,2.2-4,5.8-4.8,9-.6,2.6-2.7,4.2-2.2,6.8-.6.2-1.1.3-1.3.9-9.3.3-5.6-7.1-6.1-9.7-.7-3.6-4.1-7.2-1.9-10.8l-10.3,3.4c-.4-1,.2-3.8-.3-4.3,3.3-1.3,5.3-8.5.7-9.4.7-.7-1.8-2.6,3.7-3.4v-.9h6.6c-.6-3.2.7-9-7.2-7.7-.2-1.5-3.8-7.2-2.1-8.9,1.2-1.1,3.7-.3,5.4-.5h0Z"/>
      <path class="st10" d="M630.7,306.7"/>
      <path class="st10" d="M642.7,307.5"/>
      <path class="st3" d="M600.6,330.6c7.4-1.1,1.2,4,6.8,3.4,1.8,7.1,3.2,13.5,6.7,20.5.4.8,1.2,1.3,1.4,1.7,2.9,5.4,7.9,10.7,10.3,15.4,1,1.9,1.8,4.8,1.8,6.8h-4c-.5-2,.3-4.4-.5-6.3-.3-.6-2.4-.5-2.7-1.2-1.3-3,2.1-4.4-3-4.5-3.2-.1-10.5,0-7.3,3.2s2.2,0,2.3.6c.2,1.9-2.8,2.3-5.2,2.1-.3-.5-8-8.2-8.5-8.5,4.9.5,3.1-.3,4.2-1.9,3.5-4.8,4.1-7.1,3.2-12.7-.2-1.4-.5-1.8-.7-3.2,0-.2-1.3-.3-1.4-.3-2.2-1.4.8-2.3.7-3.7,0-.8-1-1.6-1.1-2.3-.7-3.6-2.7-6.4-3.3-9.4h0l.3.3Z"/>
      <path class="st12" d="M588.7,349.4c-1-1.4-7-5.4-7.1-7.2,11.5-2.1,3.7-4.4,3.5-6.9-.2-1.8,4-2.5,3.6-4.1-.3-.9-5.6-3.9-4.1-4.9.2-.1,2.6.1,3.9-.5,1.1-.6,1.1-2.1,2.1-2.1,7.9-.5,2.7,5.3,3.8,7.2.2.3,5.8,3.6,6.7,4.6,1.2,1.4.7,3.4,3.1,4.5,0,.7,1.1,1.5,1.1,2.3,0,1.4-2.9,2.3-.7,3.7-.2.2.8,1.6-.7,1.8-3.8.5-9.8-2-15,1.6h-.2,0Z"/>
      <path class="st7" d="M607.2,349.4c.9,5.5-.5,7.9-4,12.7-1.1,1.5.7,2.4-4.2,1.9-.8-.5-2.9-.7-4-.9-.2-.2,0-.6,0-.9-1.4-2.2-3.1-4.6-4.4-6.8-1-1.6-1-4.8-1.7-6,5.2-3.6,11.2-1.2,15-1.6,1.4-.2.5-1.6.7-1.8h1.3l1.6,3.4h-.3,0Z"/>
      <path class="st2" d="M577.5,340.9c3.7,4.6,8.2,9.8,11.6,14.5,1.6,2.3,1.9,7.4,5.8,6.8.2.2,0,.6,0,.9,2.4,3.8,7.9,9.6,12.7,12-.4-.6.2-2-.2-2.6,2.3.2,5.4-.2,5.2-2.1,0-.6-2.1-.4-2.3-.6-3.2-3.3,4.2-3.4,7.3-3.2,0,1.4-.2,9-.7,9.4-.3.3-4.1-.1-5.3,0-.7-.6-3.5-.6-4-.9,2,3,4.2,5.9,5.9,9-1.2,1.6-5.1-1.8-5.5-2.1-1.9-1.8-4.4-5-6.9-7.4-1.1-1.1-1.4-3.1-2.1-3.5-2.5-1.4-1.5,1.8-3.8-2.7s-3.1-4.3-7.1-6.8c-.4-.2-1.2-1.3-1.4-1.7-2.4-4.4-3.8-4.8-5.8-7.7-.5-.6-.8-1.5-1.5-2.6-.9-1.2-2.2-3.7-3-5.1-1.2-2.1-3.1-4,1.1-3.4h0v-.2h0Z"/>
      <path class="st3" d="M572.2,322.1c.8,2.3,5.2,10,4.1,11.1-1,1-4.5,0-3,3.8.8,1.9,3.1,2.5,4.2,3.9-4.2-.5-2.3,1.4-1.1,3.4h-1.3c-.7-1.2-5.8-4.8-5.9-7.3,0-2,2.6-3.1,2.5-4.3,0-1.1-2.3-1.9-2.5-3.2-.3-1.7.6-7.1,3-8.3v.9h0Z"/>
      <path class="st3" d="M602.8,323.8c0,.1,2.3-.4,2.7.6.9,2,1.3,7,2,9.7-5.6.5.5-4.5-6.8-3.4,0-.6-.4-3.3-.2-3.4.5-.4,3.8,1.4,1.3-2.9l1.1-.6h0Z"/>
      <path class="st12" d="M594.9,362.2c-3.8.6-4.1-4.6-5.8-6.8h1.3c1.3,2.2,3,4.6,4.4,6.8h0Z"/>
      <path class="st12" d="M580,338.3c-2.9-.8-3.2.2-2.9-3.4,4-.6,2.5,1.3,2.9,3.4,2,.6,5.3-.4.8,2.6-1.3-.2-.7-1.8-.8-2.6Z"/>
      <path class="st6" d="M681.8,337.4c.2.5.7.8,1.4.9-5.5.9-3.1,2.7-3.7,3.4-3,3.4-2,3.6-3.5,6-.8,1.3-2.5,3.4-3.6,5.1-.4.6-.8,1.1-1.2,1.7-7.8,11.7-18.2,23.2-27.5,34.1-1.1,1.3-3.5,2.5-4.3,3.5h-5.3l1-5.1c.4-.3.9-.5,1.3-.9,11.5-10.4,16.4-17.8,24.5-28.2,3.9-5,12.2-17,15.8-20.5,0-.1,3.7-.3,3.8-1.7h1.3v1.7h0Z"/>
      <path class="st7" d="M682.6,329.8c7.8-1.3,6.6,4.5,7.2,7.7h-7.9c-.2-.4-.2-1.3,0-1.7.3-2,1.4-3,.9-6h-.2Z"/>
      <path class="st3" d="M694.5,387.9c-.2,1.5-2,2.5-2.3,3.9-1.4,6.2,0,11.8-1.4,17.9-.3,1.2.6,4.5.3,4.7s-8,0-9.2.9c-1.4,1.1,7.4,4.4,6.8,6.5.2,1.2-2,2.1-2.1,3.3-.7,7.4-2.7,13.2-3.9,20.5-.5,3.1,1.8,20.6-.7,21.9-3.8,1.9-10.2-.8-14.3-.1-1.5.3.3,2.2-2.7,1.7-1.2-.2-.3-1.5-1.6-1.7-2.4-.4-5.8.3-8.4,0,.6-3.5-1.5-6.6-2.1-9.8-.4-1.8,1.1-3.6.7-5-1.4-5-8.5-4.6-7-12.9.3-1.5,2.8-2.6,2.4-4.3-.4-2-3.9-1.8-4.3-2.7-.7-1.6-1.3-12.5-2.2-13.1-.5-.3-4.8.3-5.3,0-.6-.4-1.3-8.8-.7-10.3.7-.2,2.8.2,4,0l-1.5-2.6c.4,0,2.1-1.4,3.9-.9.5,1.2-.2,5.5.4,6,2.4,1.8,2.7-3.5,5.2-1.7,0,.1-.3,1.4.6,2.2.4.4,2.3.3,2.3.8,0,1.4-3.4,2.5-2.4,4.2.6,1,3.7.9,4.1,1.9.6,1.4,0,6.1,1.8,7.1,3.6,2.1,1.2-3.6,4.4-2.5,2.6.8,3.3,6.6,7,6,2-.5,1.4-2.9,2-3.3,1-.6,4.6.2,5.1-.1.3-.2-.8-4.7-.2-6.2.7-1.7,4.7-2.9,6.1-4.4,3.9-4.1,2.1-7.4,3.1-11,.3-1,3.8-.7,4-2.7,0-2.3-4.5-3.1-2.3-6.2,1-1.4,3.5-1.7,3.8-2.1,1.9-2.4-2.2-7,6.6-5.8h0Z"/>
      <path class="st8" d="M671.1,354.5l.8,7.9,5.3,4c-8.2-.6-4,.8-5.1,3.8-.2.7-2,3.9-2.3,4.2-.7.6-7.8,1.1-2.8,2.3,1.8.5,3.3-1,2.9,1.1-.7,4.5-8.4,8-5.5,13.4-8.2-1.7-3.9-.6-5.4,2-1.3,2.3-2,.7-3.6,5.9-.4,1.3-2,2.2-2,3.6s4.1,4.8,6.1,4.8c3.8,0,6.6-2,10-2.9,1.8-.5,6.1-.4,6.3-.6,1.2-.8-2.1-5.7-1.7-6,.6-.4,4.6.8,5.2-2.2.5-2.2-4.1-11-2.1-12.3.5-.3,3,.2,3.5-.2s0-2.2.8-3.2c.5-.7,2-1.2,2.4-1.8.8-1.4,0-4.7,2.5-5,5.3-.7,7.1,3.4,10.2,5.1-.2.8,5.4-1.2,5.3-.4-.2,2.1-2.6,12.8-1.6,15.8l-5.7-6c-8.8-1.2-4.6,3.3-6.6,5.8-.4.5-2.8.8-3.8,2.1-2.3,3.1,2.4,3.9,2.3,6.2,0,2-3.7,1.8-4,2.7-1,3.6.7,6.9-3.1,11-1.4,1.5-5.4,2.7-6.1,4.4-.6,1.5.5,6,.2,6.2-.5.3-4.1-.5-5.1.1-.6.4,0,2.7-2,3.3-3.7.6-4.4-5.1-7-6-3.2-1-.8,4.6-4.4,2.5-1.8-1-1.2-5.7-1.8-7.1-.4-1-3.5-.9-4.1-1.9-1-1.7,2.5-2.8,2.4-4.2,0-.5-1.9-.4-2.3-.8-.9-.9-.5-2.1-.6-2.2-2.4-1.8-2.7,3.5-5.2,1.7-.6-.4,0-4.8-.4-6-1.8-.5-3.5.8-3.9.9-.6,0-2.8-1-4-.9v-.9c.3-3,.3-7.2-.7-10.2,8.2.7,4.1-1.2,5.1-2.6.8-1,3.2-2.2,4.3-3.5,9.3-10.9,19.6-22.4,27.5-34.1h0l-.2.2h0Z"/>
      <path class="st4" d="M634,392.2h5.3c-1,1.4,3.1,3.3-5.1,2.6,1,3,1.1,7.2.7,10.2-8.7-.6-1.8,5.5,0,.9,1.2-.1,3.4.9,4,.9l1.5,2.6c-1.1.2-3.2-.2-4,0-7.3,2.2-2.2,6.8-8.8,6h-1.3c1.3-9,.3-14.3,5-23.1h2.7,0Z"/>
      <path class="st2" d="M626.7,440c.2,2.3.3,4.6.5,6.8-7.8-.5-4.6,8.7-12.6,9.4.3-8.5,3.2-20.1,6.4-27.5.7-1.5,2.2-3.5,3.3-5,.8,5.4,2,10.7,2.5,16.2h-.1Z"/>
      <path class="st2" d="M624.5,407.5c0,3.1-2.6,6.3.7,9.4-.2,1.3.4,2.9.3,4.3-.8.3-.9,0-1.3.9-7.9.8-2-3.5-1.8-5.6.2-2,.9-7.6.8-8.9h1.3Z"/>
      <path class="st12" d="M630.4,378.5c-.8,4.5-2.7,9-1.7,13.7h2.6c1.5-2.9,0-2.2,3.6-5.1l-1,5.1h-2.7c-4.7,8.8-3.7,14.1-5,23.1,0,.8-1.2,1.5-1.2,1.7-3.2-3.1-.8-6.2-.7-9.4.4-9.5,3.5-20.5,3.3-29.1h2.8Z"/>
      <path class="st6" d="M703.9,370.8c-1,3.4-.3,11-7.2,10.3,0-.8-.3-1.8-.2-2.6,0-.2.9-.7,1.1-1.4.4-1.5-.6-3.4-.2-4.6.2-.6.7-.6,1.3-.9,1.2-.5,3.8-.4,5.2-.9h0Z"/>
      <path class="st7" d="M708.2,356.3v1.7c-3.1,2-1.4,4.8-2,6.8h-5.3c.8-3.3-2-6.9,4.8-9,1.9-.6,2.1.4,2.6.5h0Z"/>
      <path class="st8" d="M706.2,364.8c-.7,2-1.5,3.6-2.2,6-1.4.4-4.1.4-5.2.9-.5-2.6,1.6-4.2,2.2-6.8h5.3,0Z"/>
      <path class="st6" d="M617.7,366.5c5.1.2,1.7,1.6,3,4.5.3.6,2.4.5,2.7,1.2.8,1.8,0,4.3.5,6.3h4c.2,8.6-2.9,19.5-3.3,29.1h-1.3c0-2-2-6.5-3.2-8.5,0-.5-.2-1.2,0-1.7,1.3-5.6,0-2.2-1.6-3.4-.9-.7-1-3.1-4.2-3.4,0-.8,0-1.8-.2-2.6l2.6-.9c3,1,5.2,1.6,3.9-1.3,0-.2-1.9-.4-2.6-1.1-1.6-1.8-5.4-8.2-6-8.7,1.2-.1,4.9.2,5.3,0,.5-.4.7-8,.7-9.4h-.3Z"/>
      <path class="st8" d="M618.2,393.9c1.6,1.2,2.9-2.2,1.6,3.4l-1.6-3.4Z"/>
      <path class="st18" d="M577.1,367c1.1.4,2.1,5.6,1.9,6.8,3.9.5,3.2-2.3,4.5-3.4,5.9-5,4.9,5.2,5.9,6.6.6.9,2.6,3.2,3.7,4.7,1.4,1.9,4.8,2.5,4.1,5.3-.2.8-3.6-.1-2.2,2.4,2.2,4.1,3.1,4.7,9.2,3.2,0,3.5,4.5,14.4,0,16.7-4.2,2.1-3.1-2-6.8-1.3l-1.7,3.4c-1.9-2.8-5.5-3.9-8.8-1.3-1.2.9-4,7.7-5.1,1.8-.2-1.3,0-6.2-.4-6.4-.5-.3-4.8.3-5.3,0s-1.4-7.9-1.4-9.1c-.2-4.6,5.9-5.9,2-11.4-4.3-6-1.8-5.6-2.9-11.6-.2-1.4-2.6-2.2-2.5-3.2.2-1.3,3.3-4.2,6.1-3.1h-.3Z"/>
      <path class="st8" d="M611.7,375.9c.7.5,4.4,6.9,6,8.7.7.7,2.5.9,2.6,1.1,1.3,2.9-.8,2.3-3.9,1.3-4.3-1.5-1.8-.6-4-.9s-4.4-.9-6.7-.9l2.4-3.4c.3.3,4.2,3.8,5.5,2.1-1.7-3-3.9-6-5.9-9,.6.3,3.3.3,4,.9h0Z"/>
      <path class="st7" d="M580.9,352c2.1,2.9,3.4,3.3,5.8,7.7l-2.5,1.3c-.4-2.5-3.7-4.4-5-6.5-1.1-1.7-2.2-2.9,1.7-2.5h0Z"/>
      <path class="st7" d="M588.2,361.4c4,2.5,4.8,2.3,7.1,6.8-6,.8-12.1-4-7.1-6.8Z"/>
      <path class="st7" d="M579.4,349.4c-8.7.3-3.3-3.3-4.3-5.1h1.3c.8,1.4,2.1,3.9,3,5.1Z"/>
      <path class="st2" d="M616.4,387l-2.6.9c0-.3-1.5-1.1-1.4-1.7,2.2.3-.3-.6,4,.9h0Z"/>
      <path class="st15" d="M620.8,316.9c1.3.1,4.7-.3,5.2,0,.4.2,2.8,5.9,3.2,6.8,2.9,7.8,4.7,15.7,8.1,23.6.7,1.5-1.1,3.4,3,2.9-2.6,7.4-7,13.4-9.1,21.4h-5.3c-2.4-4.7-7.4-10-10.3-15.4,3.2-1.1,3-5.2,3.3-7.4.4-3.3.8-8.1.7-11.4,0-.6-2.1-1.8-1.4-3.6.6-1.5,4.3-2.4,4.6-3.7.6-2.8-4.5-7.3-1.9-13.1h0Z"/>
      <path class="st10" d="M619.6,337.4c0,3.3-.3,8.1-.7,11.4-.3,2.1,0,6.3-3.3,7.4-.2-.4-1.1-1-1.4-1.7,3.7-3.9,2.9-9.6,3-14.1,0-1.6-1.7-3.4,2.4-3h0Z"/>
      <path class="st10" d="M620.8,316.9c.2-.4-.5-1.5,0-1.7,6.1-2.9,11.5,5.3,8.5,8.5-.3-.9-2.8-6.5-3.2-6.8-.6-.4-3.9.1-5.2,0h0Z"/>
      <path class="st10" d="M631.2,371.6c-.5,2.1-.5,4.7-.8,6.8h-2.7c0-2-.8-4.9-1.8-6.8h5.3Z"/>
      <path class="st7" d="M676.5,337.4c-3.5,3.5-11.9,15.5-15.8,20.5h-1.3c.3-.4-.5-1.9,0-2.8,4.3-5.8,11.9-10.7,13-17.7h4.1Z"/>
      <path class="st7" d="M679.1,355.4l10.3-3.4c-2.1,3.6,1.2,7.2,1.9,10.8.5,2.7-3.2,10,6.1,9.7-.3,1.2.6,3.1.2,4.6-.2.7-1.1,1.2-1.1,1.4-3.1-1.6-4.9-5.8-10.2-5.1-2.4.3-1.6,3.6-2.5,5-.4.6-1.9,1.1-2.4,1.8-.7,1.1-.2,2.9-.8,3.2s-3.1-.1-3.5.2c-2.1,1.3,2.5,10.1,2.1,12.3-.6,2.9-4.6,1.8-5.2,2.2-.4.2,2.9,5.2,1.7,6-.2.1-4.5.1-6.3.6-3.4.9-6.2,2.9-10,2.9s-6.1-3.5-6.1-4.8,1.6-2.4,2-3.6c1.6-5.3,2.3-3.6,3.6-5.9,1.4-2.6-2.8-3.7,5.4-2-2.8-5.3,4.8-8.9,5.5-13.4.3-2.2-1.1-.7-2.9-1.1-4.9-1.2,2.1-1.7,2.8-2.3.3-.3,2-3.5,2.3-4.2,1.1-3-3.1-4.4,5.1-3.8l-5.3-4-.8-7.9c.4-.6.8-1.1,1.2-1.7,6.6-1,1.8,3.1,6.8,2.6h.1Z"/>
      <path class="st7" d="M678.8,351.1c-.2-.2-4.3.4-2.9-3.4,1.5-2.4.5-2.6,3.5-6,4.7,1,2.6,8.1-.7,9.4h.1Z"/>
      <path class="st8" d="M675.9,347.7c-1.4,3.8,2.7,3.2,2.9,3.4.5.5,0,3.3.3,4.3-5,.5-.2-3.6-6.8-2.6,1.2-1.7,2.8-3.9,3.6-5.1h0Z"/>
      <path class="st2" d="M683.2,338.3c-.7-.1-1.2-.4-1.4-.9h1.3v.9h.1Z"/>
      <path class="st12" d="M599,364c.5.4,8.2,8.1,8.5,8.5.4.6-.2,2,.2,2.6-4.8-2.4-10.4-8.2-12.7-12,1.2.1,3.2.3,4,.9h0Z"/>
      <path class="st3" d="M634.9,405c0,.3.2.6,0,.9-1.8,4.6-8.8-1.5,0-.9Z"/>
    </g>
    <line class="st0" x1="741.4" y1="564.8" x2="508.6" y2="564.8"/>
    <path class="st9" d="M616.2,277.5"/>
    <g>
      <circle id="leftWrist" cx="988.8" cy="353.5" r="8.2"/>
      <path class="st17" d="M995.4,342.5c14.6-1.5,35.2-5.7,49.7-3.3,1.2.2,9.2,3.7,9.5,4.2.8,1.1,5.1,5.2,6.5,7,4.3,5.7,1.6,3.5,7.6,13.3-3.6,2.8-4.4,2.9-7.6,1.9-4.6-7.8-21.8-18-24.2-15.1-.7,3.1.4,6.9,3,7.6-2.4,1.6-3.4,4.7-4.5,7.6l-4.1-7.6-3.5-3.8c-6.3-1.6-12.5-2.6-18.9-1.9-6.1.7-9.8.8-8.3,9.4,1.1,1.5,19-16.4,20,7.4-1.5-.1-5.1-1.4-6.4-1.7-2.7,0-6.4-.8-7.1-1-3.7-.7-2.7-.5-6.5-1-2-7.5-3.9-17.2-5.1-23.1h-.1Z"/>
      <path class="st10" d="M1018.7,367.5c2.4-18.9-17.1-4.2-18.2-5.7-1.5-8.6,2.2-8.8,8.3-9.4,6.5-.7,12.6.2,18.9,1.9l3.5,3.8,4.3,5.4c6.2-3.7,31.2,6.1,30.6,8.6-1.6,7.5-44.7,1.3-47.5-4.5h.1Z"/>
      <path class="st10" d="M1037.2,357.8c-2.6-.7-7.4-5.8-6.7-8.9,2.4-2.9,28.6,7.7,27.8,16.4-.7.3-2.1,0-3,0-4.8-6.7-9.2-6.2-15.1-7.6-.9-.2-2.1.2-3,0h0Z"/>
      <path class="st17" d="M1037.2,357.8c6-.8,13.3.9,18.2,7.6-3.8.1-9.9-6.1-18.2-7.6Z"/>
      <circle id="leftElbow" cx="822.7" cy="346.3" r="8.2"/>
      <circle id="leftShoulder1" cx="718.3" cy="346.6" r="8.2"/>
      <path class="st4" d="M722.1,322.6c62.3-11.5,120.1-3.4,181.2,4.3,13.3,2.4,60,5.5,58,7.6-.8.8,30.5,5.9,31.2,6.9,3.3,1,1.2,13.9,4.1,15.6,2.1,1.3-3.6,14.4-1.5,15.6,4.3,2.5-74,13.4-78.1,13.6-6.9.3,0,0-9.9.1-6,0-5.5.4-11.2-.2-1.4-.1-15-6.5-9.5-4.8l-2.7.4c-6.6.2,21.2-30.7,16.1-33-2.7-1.2-6.3,0-9.7-2.1-1.1-.7-.7-3.7-1.5-3.9-2.8-.9-6.8,3.1-9.8,2.9-4.8-.2-19.8-14.5-20.2,5.8-7.9.6-7.3-3.3-8.7,5-1.3-.7-2.6-1.7-3.9-2.3-.3-6.6-8-12.1-12.4-12.8-1.8-.3-10.2-1.2-11.4-1.1-2.5.3-8.9,2.4-14.7,2.4s-3.6-.5-5.4-.5c1.3-5.9-1.8-3.7-4.3-4.3-7-1.5-12.9-1.2-19.7-2-6-.7-12.3-.7-18.3-1.8-1.7-.3-6.6-3.4-7.2-2.6-1.3,1.6,2.7,8.1-8.1,5.1-5.4-1.5-2.9-3-4.1-6.3,2.1.6,4.6.2,6.8.6-.7-6.8-7.1-2.8-9.3-2.8-4.9,0-17.2,2.7-15.8-5.4h0Z"/>
      <path class="st4" d="M740.5,330.2c-.7-.2-3.9-.9-2.5-2.2,1.5-1.4,2,.8,2.5,2.2Z"/>
      <path class="st12" d="M700.9,330.2c.4,0,.9.2,1.3.1,2-.2,4.6.6,6.8.7,0,7.3,4.3,9.4,4.1.4.9,0,1.8.1,2.7.3-2.7,9,7.5,8.4,8.6,2.8,4,2.9,4.1,9.7,4.7,10.2,1.5,1.1,8.4,3,10.4,3.1,3.8.1,6-3.3,6.5-3.4,2.9-.4,6.4,1,9.5.9-1.3,5.4,1.8,4.3,4.3,4.4,3.3,0,6.9-1.3,9.5-.9,5.4.8,14.3,7,20.5,7.6l-6.8-14.2c6.5-1.5,12.7-.1,19.1,0,1.8,0,3.6.5,5.4.5,2.7.5,4.6,7.6,5.4,8,2.6,1.1,16.7-2,21.2-1.5,4,.4,8.1,3.1,11.8,5,1.3.6,2.6,1.6,3.9,2.3,0,.6-.2,1.3-.2,1.9-9.2,2.8-1,6-1.3,13.4-2-.8-10.2-.2-10.8-1.1-2.5-3.6,6-3.8,3.4-7.4-3.1-4.3-9.3,4-10.9,4.4-1.6.4-3.3-1.7-4.8-1.4-2.3.5-8.8,5.2-9.9,8-2.5-2.3-7.2,1.2-8.3,1.1-1.3,0-2.7-.2-4.1-.4-15.7-2.8-35.6-12.9-52.3-16.7-9.4-2.2-19.6-2.4-28.9-4.8l1.4-7.6c-3.1-1-7.8.3-10.5-1-1.4-.7-.9-4.8-2.6-5.9-3.1-1.9-5.9,1.2-8,1-.8,0-.2-5.5-3.1-4.2,1-1.6,1.5-3.7,1.9-5.6h0Z"/>
      <path class="st2" d="M738,328c2.2,0,8.6-4,9.3,2.8-2.2-.4-4.6,0-6.8-.6-.5-1.4-1-3.6-2.5-2.2h0Z"/>
      <path class="st2" d="M722.1,322.6c-1.3,8.2,10.9,5.4,15.8,5.4-1.4,1.3,1.8,2,2.5,2.2,1.2,3.4-1.3,4.8,4.1,6.3,10.8,3,6.8-3.5,8.1-5.1.6-.8,5.5,2.3,7.2,2.6,5.9,1.1,12.2,1.1,18.3,1.8.6,9.9-6.6,4-10.7,4.8s-4.1,4.4-12.1,4.6c-3,0-6.6-1.3-9.5-.9-1.5-1.8-3.3-4.1-5.1-5.2-9.8-6.3-13.6-5.9-25.1-7.4-.9-.1-1.8-.2-2.7-.3-1.3-.1-2.1-.3-4.1-.4-2.2,0-4.7-.9-6.8-.7,4.9-6.3,13.7-6.6,19.9-7.7h.2,0Z"/>
      <path class="st8" d="M700.9,330.2c-.5,1.9-.9,4-1.9,5.6-2.4,4-3.5,4.1-7.1,3.2,3.1-4.2,4.3-7.9,9.1-8.8h0Z"/>
      <path class="st3" d="M971.9,337.5c-.2,0-1.3,1.8-3.3,1.5-2.2-.3-5.8-2.2-7.3-4.5,3.7.5,7.3.6,10.6,3h0Z"/>
      <path class="st3" d="M986.6,340.9c-3.8-.7-9.6.8-12-3.1,3.7.2,9.7-.5,12,3.1Z"/>
      <path class="st3" d="M951.8,333.6c.9.2,1.8.1,2.7.3.2,6.1-4.1,5.4-2.7-.3Z"/>
      <path class="st2" d="M717.8,353.1c1.2.4,2.8,0,4.1.4,9.2,2.4,19.4,2.6,28.9,4.8,16.7,3.9,36.6,14,52.3,16.7,13.9,4.4,12.4,3.7,16,3.6,4.2,0,7.8,3.1,8.3-3.7,10.3-4.2,84.7,9.1,80.7,10.4-1.8,7.1-74.9-3.3-72.1,2.6-5,0-9.9-1.4-14.9-1.5-24.2-.3-45.2-.8-69-6.8l-7.9-2.7c-.9-.2-1.8,0-2.7-.3,2-11.5-8.3-9.1-11.8-11-2.9-1.5-6.2-4.2-9.5-6.1-3.2-1.8-3.4-.4-2.3-6.6h0v.2h0Z"/>
      <path class="st6" d="M858.6,351.5c.4-20.3,15.5-6,20.2-5.8,3,.1,7-3.8,9.8-2.9.8.2.5,3.2,1.5,3.9,3.3,2.2,6.9.8,9.7,2.1,5,2.3,8.5,9.8,14.9,8.2l-1.4,7.6c-1.8,0-3.6-.6-5.4-.5-6.8.2-12.8,2.6-19.5,3.9l-3-11.8-7,3.1c-.3-12.1-1.5-5.9-5.5-6.7-6.6-1.3-7.5-1.5-14.3-1h0Z"/>
      <path class="st8" d="M815.4,374.3c1.1-2.8,7.5-7.5,9.9-8,1.5-.3,3.2,1.8,4.8,1.4,1.7-.4,7.8-8.7,10.9-4.4,2.5,3.6-6,3.8-3.4,7.4.6.9,8.8.3,10.8,1.1.3-7.4-7.9-10.6,1.3-13.4,0,5.8-.4,7.6,5.7,7.9,3.2.2,2.6-2.3,3.6-5.1.5-1.3,1.2-2.4,1.7-3.7,1.5,1.2,8.1,3.1,10,3.1s3.2-7.3,5.1-3.6c.5,1-5.2,11.6-5.8,12.2-.9,1-1.8.3-2.3.5-.7.3-2.1-.6-3.1.1l-15.6,9.7c-2.3,0-4.5-.6-6.8-.7-5.5-.2-11.9.3-17.8.2-.9,0-1.8-.2-2.7-.3-2.5,0-5,1.3-7,1.2.4-1.6,0-4.5.6-5.8h0v.2h0Z"/>
      <path class="st4" d="M867.1,375.6c1.8.1,3.6.5,5.4.5,3.8.2,6-.2,9.7-1,4.2-.9,4.3,3.4,4.8-7.3.5,0,.9.2,1.3.1,6.7-1.3,12.7-3.6,19.5-3.9-1.3,11.4-8.8,13.8-15.8,15.9-9.7,3-16,1.8-25.5,1.3l.6-5.8h0v.2h0Z"/>
      <path class="st2" d="M849,379.6l15.6-9.7c1-.7,2.4.2,3.1-.1l-.6,5.8-.6,5.8c-5.6-.3-11.3-1.5-17.6-1.7h0Z"/>
      <path class="st8" d="M755.4,345.2c8-.2,8-3.8,12.1-4.6s11.3,5.1,10.7-4.8c6.8.8,12.7.5,19.7,2,2.5.5,5.7-1.6,4.3,4.3-6.4,0-12.7-1.5-19.1,0l6.8,14.2c-6.2-.6-15.1-6.9-20.5-7.6-2.6-.4-6.2,1-9.5.9-2.5,0-5.7,1-4.3-4.4h-.2Z"/>
      <path class="st8" d="M807.6,342.6c5.9,0,12.2-2.1,14.7-2.4,1.2-.1,9.6.8,11.4,1.1l.6,7.8c-4.6-.5-18.7,2.6-21.2,1.5-.8-.4-2.8-7.5-5.4-8h0Z"/>
      <path class="st2" d="M833.6,341.3c4.4.7,12.1,6.2,12.4,12.8-3.7-1.9-7.8-4.6-11.8-5l-.6-7.8h0Z"/>
      <path class="st2" d="M849.9,356.4c1.4-8.3.7-4.4,8.7-5,0,3.4,0,4.4,2.1,6-.5,1.3-1.3,2.4-1.7,3.7-3.8.6-6-3-9.1-4.8h0Z"/>
      <path class="st8" d="M715.8,331.7c11.5,1.5,15.3,1.1,25.1,7.4,1.8,1.1,3.6,3.4,5.1,5.2-.4,0-2.7,3.5-6.5,3.4-2,0-8.9-1.9-10.4-3.1-.6-.5-.7-7.3-4.7-10.2-1.1,5.6-11.3,6.2-8.6-2.8h0Z"/>
      <path class="st3" d="M849.7,358.4c0-.6,0-1.3.2-1.9,3.1,1.8,5.3,5.3,9.1,4.8-1,2.7-.3,5.2-3.6,5.1-6.1-.3-5.8-2.1-5.7-7.9h0Z"/>
      <path class="st2" d="M803,375.1c1.1,0,22.6-7.5,25.1-5.3-.5,1.2,1.7,12.9,1.3,14.6-3.7,0-28.2-3.8-26.4-9.3h0Z"/>
      <path class="st8" d="M709,331c2,0,2.7.3,4.1.4.2,9-4.2,6.9-4.1-.4Z"/>
      <path class="st12" d="M717,360.8c-1.5-1.9-5.5-13.2-3.4-15.8,1.3-1.6,9.4.9,9.7,1-1.1,6.2-1.3,9.3-3.2,13.8,0,0,8.9,2,11,4.7,2.7,3.6,12.3.8,10.3,12.3-1.7-.5,0,.9-5.3-1.6-5.9-2.4-6.5-.9-7.5-1.4-4.5-2.5-7.9-7.5-9.9-7.6-1.4,0,0-3-1.7-5.3h0Z"/>
      <path class="st2" d="M717,360.8c1.8,2.3,10.2,12.8,11.6,12.9,0,1.1-5.7-1.9-5.5-1.2l-2.6-1.6c-5.5-3.9-11.3-6.8-16.5-12s-10.1-19.3-12.2-19.9c1.1.5,6.7-10.5,19.2-.9,3.6,2.7,5.9,22.8,5.9,22.8h0Z"/>
      <path class="st3" d="M858.6,351.5c6.8-.5,7.7-.3,14.3,1,4,.8,5.2-5.4,5.5,6.7l7-3.1,3,11.8c-.4,0-.9-.2-1.3-.1-1.6.3-3.2,1.4-4.2,1.5-4.6.6-9.8-4.1-10.2,6.7-1.8,0-3.6-.4-5.4-.5l.6-5.8c.5-.2,1.4.5,2.3-.5.6-.6,6.3-11.2,5.8-12.2-1.8-3.7-2.7,3.6-5.1,3.6s-8.5-2-10-3.1c-2.1-1.6-2.2-2.6-2.1-6h-.2,0Z"/>
      <path class="st2" d="M882.8,369.3l-.6,5.8c-3.7.8-5.9,1.1-9.7,1,.4-10.8,5.6-6.2,10.2-6.7h0Z"/>
      <path class="st6" d="M882.8,369.3c1-.1,2.7-1.3,4.2-1.5-.5,10.7-.6,6.3-4.8,7.3l.6-5.8h0Z"/>
    </g>
    <g>
      <circle id="rightWrist" cx="252" cy="355.7" r="8.2"/>
      <path class="st11" d="M238.9,341.9c0,1.8,1.6,6.1,1.1,7.1-.4.6.7,5.6-.4,6-3.9-1.8-7.1-1.3-10-2.7-.4-.2-4.9-1.7-5.5-1-3.1,4.6-5.8,4.5-6.2,5-.2.2-4.9,2-5.3,3.1l-11.9,7.8c6.3-1.9,3.7-1.4,6.3-1.9,3.6-.8,3.2.9,5.1.3,6.1-1.9,9.7-3,15.5-5.8,1.8-.9,10.4-3.1,12.5-2-.2,1.3,0,7.8-2.5,9.3-3.4,2.1-12.7,4.3-17,5.7-3.9,1.3-13.2-4.6-11.7.4l-1.4.2c-6.4,5-9.4,4.6-11.1,4-3-1-4.8-10.7-2.5-15,.3-.5,3.8-4.5,5-5.3,1.4-.9,7.7-5.7,9.6-7.8,3.2-3.5,11.8-7.3,16.3-8,2.6-.4,11,.2,14,.6h0Z"/>
      <path class="st17" d="M268.1,359.1c.1,2.2-1.6,6.9-1.5,9-8.9,4-17,8.7-27.2,9-2.8,0-6.4.6-7.5.6s-8.2.9-8.9,1.1c-2.5.6-11.3,2-13.4,3-3.4,1.7-4.8.8-8.5,0-2-.4-4.3-4-4.6-4.3,4.6-2.4,19.7.1,16.5-6.4,2.2-1,1,2.3,2.9,2.5,1.5.2,3.4-.9,4.7-.8.5,0,1-.2,1.4-.2l7.3-1.2,5.6-.9c8.2-1.4,16.9-5.5,25.8-5.8,2.1-2.6,4-5.9,3.9-9.4-.1-4.1-1.8-8.7-2.1-12.8l2.9-.5c.5,5.6,2.4,11.6,2.8,17.1h0Z"/>
      <path class="st15" d="M264.7,356.7c.1,3.5-2.1,5.3-4.2,7.9-17.9,4.5-17.6,4.3-25.8,5.8-2.7.5-8.1,1.9-13.1,2.7-.5,0-.7-.4-1.2-.4l3.3-2c4.3-1.4,10.2-7,13.6-9.1,2.4-1.5,1-2.3,1.2-3.6.1-.8,1.2-1.9,1-3.1,8.1,0,10.7.9,12.2.8,10.3-.8,6.6,1.2,9.9,0,.8-.3,2.2,1.2,3.1,1h0Z"/>
      <path class="st11" d="M264.7,356.7c-3.2,1.3-6.7.5-10.2.3-1.5-.1-6.8-2-14.9-2s-3.1-2.1-5-3.6c.5-.4.9-1.6,1.2-1.7,1.1-.4,3.8-.2,4.2-.8.6-.9-1.1-5.3-1.1-7.1,3,.4,23.7-.7,25,.3,2.8,2,.1,11.6.8,14.5h0Z"/>
      <path class="st10" d="M220.5,372.8c-1.4,0,1.1,0-3.3,1.9-2.3,1-1.2.7-3.5,1.6l-3.4.6c-.5-.5-13.9,1.4-13.9.6,0-1.3,0,0,6.3-3.8,5.1-2.5,1.3-.4,5.1-2.5l5.7-1c4.7,2.2,1.7.9,4.7,2.2l2.3.4h0Z"/>
      <path class="st10" d="M238.6,358.1c-2.1-1-3.9,0-5.7.9-4.4-2.2.9-1.8-4.4-2.2-4-.3-.6-1.1-5.6.2l-4.1,1c-2,.6.8-.1-2.8.6l-1.9.6c-5.1,2.5-15.7,9.9-18.1,8.8-3.2-1.4,13-10.8,13.2-11,.4-.4,0,0,9.5-4.5.9-.4,3-1.3,6.8-1.5,6.4.7,4.2,0,6.4.7,5.8,2,3.7,1.2,3.9,1.3l3.8,2c.2,1.2-.8,2.3-1,3.1h0Z"/>
      <path class="st17" d="M238.6,358.1c-5.8,2.8-20.3,6.8-26.4,8.7l.3-7.4c5-1.3,11.2-4.3,16.4-4,3.8.2,7.1,1.1,9.8,2.6h-.1Z"/>
      <path class="st17" d="M212.5,359.4c1.4,2.7.8,3.8-.3,7.4l-3.4.9c-2.6.5-11.5,2.7-12.9.4l16.5-8.6h0Z"/>
      <circle id="rightShoulder1" cx="518.9" cy="349.2" r="8.2"/>
      <circle id="rightElbow" cx="415.4" cy="349.3" r="8.2"/>
      <path class="st12" d="M325.1,393.4c38.1-1.4,77.1-.8,114.8-5.7,36.9-4.8,56.6-20.1,89.8-34.8.7-.3,1.7,0,2.4-.2-.8-3.6.9-6.1-2.1-8.9-.5-1.8-.2-3.9-2.6-3.7,1.5-4-1.9-3.3.6-3.5,1.7-.1-2.2-2.1-1.1-2.3l1.3-1.9c.2-5.4,0-.3-.9-5-.6-3.1-3.8-2.9-21.5-1.3-19.1,1.3-13.4,1.1-19.1,1.3-34.7,1.4-69.2.5-104,2.8-9.7.6-19.4,2.2-29.2,2.9-3.2.2-6.5.8-9.7,1-4.5.2-8.9,1.2-13.4,1.3,0,0-.5-1.7-1.4-1.7s-2.4.3-3.6.4c-2,0-4,.5-6.1.6-1.6,0-4.6-1.1-7.5-1.1s-1.6.2-2.4.2c-8.5.1-15,1.7-23.1,2.3,0,0-.5-1.8-1.4-1.7-3.5.3-7.6.3-10.9,1.1-6.1,1.4-9.8,7-8.1,17.5h-1.2c.4,7.3,1.9,15.1,2.2,22.1.1,2.8-1.5,8.5-1.4,11.2,0,1.7,1.4,5.1,1.9,7.2l13.7,2.4c2.8,0,5.7-.9,8.5-.8.4,0,.8-.1,1.2-.1,3.2,0,7.4.9,9.9.9,8.2-.1,16.8-2.1,24.3-2.4h0Z"/>
    </g>
    <g>
      <g>
        <path class="st11" d="M626,208.7c-5.2,3.1,4.4,9.1,2.8,13.5-1,2.7.8,8.3,2.1,12.6l.6,7.2c2.6,6.1-3.9,4.4-4.2,10.3-2.8,6.7-4.4,7.5.4,12.6,2.4,3.1.6.9,1.2,1.4,1.1.9-2.3,9.2.6,10.6,4.5,2.2-2.8,3.4,2.2,3.4s-4.6,2.9-4.5,2.8c.8-.2.8.1,1.6-.2.2,4.1.2,5.3-1.4,9.2-.5,1.4-1.2,5.2-2.5,5.8-.9.4-1.8.7-2.3,1.2-.4.3.3,2.5,0,3.1,0,.1-1,0-1.5,0-2,.2,3.6,1.8,1.5,2,1.8,5.3-2.4.4,2.1.8,1.5.1-.5,2,1,1.9,1.1,0,1.4-1.5,1.5-1.5,1.5-.1,9.9-.9,11.3-.4,2.4,0,2.5,1.1,2.7,1.3.7.7.3,1.9-.6,2.2-5.7,2-17.7,6.2-21.8,6-.9,0-.8-2.5-2.1-3-11.8-4.2-16.9-7.3-25-17.1,0-.9,1.4-2.1,1.5-3.1.5-2.8-2.8-16.2-4.2-19.7-1.7-4-6.5-4.7-7.5-7.3-.3-.7-2.3-7.2-2.4-8.8,0-2.6-1-5.3-1.8-7.6-.2-.5-.5-4.6-.5-8.8s-1.3-6.2-.9-6.7-4-7.8,3.4-7.5c.8,2.4,2.4,8.1,4.6,9.2,2.4-5.1,1-10.4,1.6-15.4,0-.7,1.1-2.1,1.5-3.1l5.7-3.1,33.2-3.9h.1Z"/>
        <path class="st17" d="M652.6,219.7c3.2-.1,1.1,0,4.6,0s3.7,1.6,4.8,1.6c1.8,0,1.7.2,3.8,0,1.7-.2,2.1,2.5,2.9,2.2s2.8.3,3.1,0l3.1,1.6v1.5c-4.8-1-4.1,7.1-1.5,9.3-.8,3.4-2.5,6.9-3,10.2-.4,3.2-1.9,13.2-2.5,13.8-.6.5-3.2,1.7-3.8,2.3s0,4.7-.4,6.5c-1.2,4.5-3,9-4.2,13.5-4.7.8-8.1,9.7-10.8,13.9-.6.9-3.8,1.3-3.1,3.8,0,1.3,1.8.9,3.1.8.3-1.2-.4-4.2,0-4.6.2-.2,5-.1,6.2-1.5-2.1,2.9-2.1,5.9-6.2,6.2-.5,2-.2,2.4-1.5,4.6l-1.5,1.5c-2.5,1.7-3.6,1-4.6,1.5,1.5-4.6-5.1-3.3-9.2-3.1-1.5,0-1.3-.1-2.8,0l-1.7,2.2c-1.5.1-4.8.3-6.2.1l-.8-5.6c.8-.5,2.1.4,2.2.2,3.2.3.4.5-.3-3.2,1.2-.6,3.6-2.4,4.2-3.8,3-.2,10.3-3.7,11.3-6.3,1.9-5.1-2.9-2.3-2.8-5.1,5.5-2.3,7.7-1.9,7.7,4.6l5.5-3.1c1.6-3.2-4-4.7-3.9-6.2,5.2-1.5,10.2-5.2,12-10.4.8-2.3,0-5,.4-7,.3-1.3,2.8-.9,3-2,.2-1.8-1.8-5.4,0-8.3-2-.2-4.3.3-6.2,0-.3,0-1-1.2-1.5-1.5-.2-3.3-19.7,18.2-22.5,16.8-.3-.2-5.2-3.6-5.8-3.7-1.8-1.3,2.3-7.1,3.6-10.6-.1-2,2.2-6.9,4.2-10.3-1.5,0,0-7.9-1.5-8-2.4-.2-3.7-6.1-5.9-5.6l-1.6-5.8c.2-1.8,28.8-2.6,30.2-2.6h0v-.3h0ZM659.5,248.2l1.5-15.4c-4.5,1.1-7.9,16.4-1.5,15.4Z"/>
        <path class="st11" d="M585.5,218.9c-.6,5,.8,10.3-1.6,15.4-2.2-1.1-3.8-6.8-4.6-9.2-.7-2.3-2.2-3.6,0-6.2,1.9.8,4.3,1.4,6.2,0h0Z"/>
        <path class="st10" d="M648.7,300.6c-1.2.1-3.1.5-3.1-.8-.8-2.5,2.5-3,3.1-3.8-.4.4.3,3.4,0,4.6h0Z"/>
        <path class="st10" d="M659.5,282.1c-.3,1.2.3,3.4,0,4.6-.8,3.1-1.8,3.8-3.1,6.2-.3.5-1.1,1-1.5,1.5-1.2,1.4-6,1.3-6.2,1.5,2.7-4.2,6.1-13.1,10.8-13.9h0Z"/>
        <path class="st8" d="M673.4,235.8c-2.5-2.2-3.2-10.3,1.5-9.3v-1.5l-3.1-1.6c.3-.3.8-2.1,4-.8,5.8,2.4-1.7,9.7-2.5,13.1h0Z"/>
        <path class="st10" d="M651.4,246.6c1.9.3,6.3,4.5,8.3,4.8-1.9,2.9,0,6.5,0,8.3s-2.1.8-2.5,2c-.5,2.1-.1,4.7-.9,7-1.8,5.2-.7,8.1-5.9,9.7,0,1.5-.7,3.7-2.3,6.9l-5.5,3.1c0-6.5-2.2-6.9-7.7-4.6,0,2.9,4.8,0,2.8,5.1-1,2.7-8.7,6.8-11.7,7,1.5-3.9-.2-14.5-.4-18.7,2.7-.5.9-6.9,2.3-9.8,1.6-2,1.6-.8,4.2-1.7,2-2.8,3.6-2.8,7.5-6.2.6-5.2,11.4-7.1,11.8-12.8h0Z"/>
        <path class="st10" d="M627.1,299c.8,3.7-1.4,3.4-4.6,3.1.3-.6-.4-2.8,0-3.1.6-.5,3.7.4,4.6,0Z"/>
        <path class="st10" d="M659.5,248.2c-6.4.9-3-14.3,1.5-15.4l-1.5,15.4Z"/>
        <path class="st11" d="M624.1,215.8c-.2.5.2,1.1,0,1.5-1.2,3.5-4,6.4-3.1,10.8-3.6,1.4-3.2-2.3-4.6-3.1l3.1-10.8c1.4.9,3,1.3,4.6,1.5h0Z"/>
        <path class="st19" d="M622.5,234.3l-3.1-1.5c2.7.1,2.9,1.5,3.1,1.5Z"/>
      </g>
      <circle id="jawMid" cx="624.5" cy="278.7" r=".8"/>
      <circle id="rightJaw7" cx="613.6" cy="276.7" r=".8"/>
      <circle id="leftJaw7" cx="635.4" cy="276.7" r=".8"/>
      <circle id="rightJaw3" cx="579.3" cy="221.2" r=".8"/>
      <circle id="rightJaw2" cx="579.3" cy="211.7" r=".8"/>
      <circle id="leftJaw3" cx="667.5" cy="221.6" r=".8"/>
      <circle id="leftJaw2" cx="667.5" cy="212" r=".8"/>
      <circle id="topMid" cx="623.7" cy="160.6" r=".8"/>
      <circle id="leftTop0" cx="641.4" cy="163.1" r=".8"/>
      <circle id="rightTop0" cx="605.8" cy="163.1" r=".8"/>
    </g>
    <g>
      <g>
        <path class="st4" d="M652.1,139.5c17,12.6,16,38.5,15,59.1-1.8-.3-4.7,1-6.7,1-4.4-3.2,9.3,1.8,4.4,4.3-3.4,1.8-8.2.1-11.5,2.5-1.9-.6-9.1,5.5-11.2,6.4l-23-6.4c-1.4,1.1,1.4,1,0,1.7-.6.3-2.7.4-3.3.9-2.2.1-1.1,1.4-3.3,1.6-1.9.1-12.6,4.1-13,3.8-3.5-2.8-3.8-18.3-8.4-28.6-1.2-9.1,1.2-5.4,6.6-8.6,3.8-2.2,3.8-4.1,3.3-8.6,2.4-1.3,7.8-5,8.2-5.2,1.8-.6,7.6.6,8.3,0v-6.9c6-.9,7.2-3.9,11-4.8,4.8-1.2,17.9-1,21.8-5.7.2-.3-1.2-2.1-1.1-2.3,1-1.6,3.8-1.1,2.9-4.4h0v.2Z"/>
        <path class="st8" d="M652.1,139.5c.9,3.2-1.8,2.8-2.9,4.4-.2.2,1.3,2.1,1.1,2.3-3.9,4.7-16.9,4.5-21.8,5.7-3.8.9-5.1,3.9-11.1,4.8-2.6.4-5.6-.3-8.3,0v6.9c-.5.1-5.8,3.9-8.2,5.2-5.5,2.9-15.9,7.5-3.3,8.6-5.4,3.2-7.8-.6-6.6,8.6,1.6,3,3.2,6.4,4.7,10.3,2.9,8.7,1.7,7.3,2.9,8.7,1,7.2.8,7.3-2.2,6.6-1.6,0-23-1.8-24.5-2.3-3.6-2.7-.5-39.4,1-45.5,3.9,5.4-1.8,11.3,7.3,11.9l2.6-10.2c5.5-1.5,2.5,4.3,3.3,5.1,2.9,2.8,3.6-3,5-4.1,2-1.5,8-5.9,9.9-7s5.5-.4,6.3-1.2-.2-4.1.3-4.6c1-1,6.2.3,8.7-.3,1.2-.3.9-2.8,2.4-3.3,8.9-2.9,19.3-4.1,28.5-5.3.7-2.8-2.3-1.2-2.8-2-.4-.6.7-5-.5-6.6,4.5,1.2,4,.3,8.2,3.4h0Z"/>
        <path class="st18" d="M632.3,134.3c8.6,5-2.2,4.1,1.6,8.5-16.7,1.7-31.5,9.5-47.2,15.6-2.5.6-2.6-1.2-2.3-3.5-1-1.7-4.7,6.4-5,8.6l-3.3-6.9c6.5-14.4,8.6-13.6,21.8-19.1,1.2-.5,1.2-2.7,2.5-3.2,10.2-3.3,21.6-1.4,31.8,0h.1Z"/>
        <path class="st12" d="M643.9,136c1.2,1.6,0,5.9.5,6.6.5.8,3.5-.8,2.8,2-9.2,1.2-19.6,2.4-28.5,5.3-1.4.5-1.2,3-2.4,3.3-2.5.6-7.7-.7-8.7.3-.5.6.4,3.8-.3,4.6-.8.9-4.4,0-6.3,1.2s-7.9,5.5-9.9,7c-1.5,1.1-2.1,6.9-5,4.1-.8-.8,2.2-6.7-3.3-5.1l-2.6,10.2c-9-.6-3.4-6.6-7.3-11.9,1-4.3,2.2-4.4,3.3-6.9l3.3,6.9c.2-2.2,4-10.2,5-8.6-.3,2.3,0,4.1,2.3,3.5,15.6-6.1,30.4-13.9,47.2-15.6-3.8-4.4,7-3.5-1.6-8.5,3.8.5,7.8.7,11.5,1.7h0Z"/>
        <path class="st2" d="M591.7,210.1c.5,8.1-9.7,3.9-11.5,5.3-.6.5.2,2.6,0,3.3-.4,1.1-1.5,2.6-1.7,3.4-2,1.6-4.5.9-6.6,0-3.1-1.3-22.3-10.2-23.1-11.2-1.5-1.8-2.5-6.7-1.6-7.7s6.7,2.9,9.1,3.4c10.2,1.7,24.9,2.8,35.4,3.5h0Z"/>
        <path class="st2" d="M617.5,156.7v6.9c-.6.6-6.4-.6-8.2,0v-6.9c2.6-.3,5.7.4,8.2,0h0Z"/>
        <path class="st2" d="M601,168.7c.5,4.5.5,6.4-3.3,8.6-12.6-1.1-2.2-5.7,3.3-8.6Z"/>
        <path class="st2" d="M624.1,197.9c-.4.2-1,1.3-1.7,1.7l-3.3-3.4v-1.7c1.4-.7,3.5-.6,4.9-1.7v5.1h0Z"/>
        <path class="st8" d="M606.4,217.7c-3.9,0-7.7,1.1-11.5,1.7-6.1,1-13.2,1.3-18.2,3.4h-1.7c.3-.7,3.9-7.2,4.6-7.6,1.8-1.4,12,2.8,11.5-5.3,10.1.7,4.7,4.2,13.7,2.6,1.1,1.3,1,4.2,1.7,5.2h0Z"/>
        <path class="st5" d="M652.1,209.9l-1.7-1.7c1.1.5,1.1.8,1.7,1.7Z"/>
        <path class="st2" d="M623.1,215.2c-5-.9-2.6,1.2-3.3,3.4-1.7-.3-10.1,8.2-11.5,7.2-.2-.1-32.4-3-32.5-2.8-3.3,3.4,35.3-13.4,34.2-14.7,3.7-.6,6-.8,9.9-1.7.5-.1,1.2.1,1.7,0-.2,3,1.4,5.9,1.7,8.6h-.2Z"/>
        <path class="st2" d="M667,196.2c.6.7-.6,6.3,0,6.9,2.6,2.7,26.3-5.1,28.1,2.6,2.1,9.3-25,12-26.2,13.1-.8.7-.9,6.6-1.9,8.4-.9.4-1.5,1.5-3.3,1.7.2-8.3-47.8-1.5-56.1-3.1-.2-.4,15.3-21.1,15-21.6-.5-.9,20.7,9.2,19.5,8.7-.4-.2,9-8.4,8.4-8.5-2.6-11.1,5.9-.9,9.9-8.2.4,0,5.3-1.7,6.6,0h0Z"/>
      </g>
      <circle id="jawMid1" cx="624.5" cy="290.7" r=".8"/>
      <circle id="rightJaw71" cx="613.6" cy="288.7" r=".8"/>
      <circle id="leftJaw71" cx="635.4" cy="288.7" r=".8"/>
      <circle id="rightJaw31" cx="579.3" cy="233.2" r=".8"/>
      <circle id="rightJaw21" cx="579.3" cy="223.7" r=".8"/>
      <circle id="leftJaw31" cx="667.5" cy="233.6" r=".8"/>
      <circle id="leftJaw21" cx="667.5" cy="224" r=".8"/>
      <circle id="topMid1" cx="623.7" cy="172.6" r=".8"/>
      <circle id="leftTop01" cx="641.4" cy="175.1" r=".8"/>
      <circle id="rightTop01" cx="605.8" cy="175.1" r=".8"/>
    </g>
    <g class="st20">
      <circle id="nose1" cx="621.5" cy="217.6" r="1.5"/>
      <circle id="nose0" cx="621.5" cy="206.7" r="1.5"/>
      <circle id="nose3" cx="621.5" cy="241.4" r="1.5"/>
      <circle id="rightNose0" cx="601.5" cy="249.8" r="1.5"/>
      <circle id="rightNose1" cx="611.3" cy="249.8" r="1.5"/>
      <circle id="nose2" cx="621.5" cy="228" r="1.5"/>
      <circle id="nose4" cx="621.5" cy="251.3" r="1.5"/>
      <circle id="leftNose0" cx="641.2" cy="249.8" r="1.5"/>
      <circle id="leftNose1" cx="632.2" cy="249.8" r="1.5"/>
      <circle id="rightEye0" cx="594.7" cy="215.1" r=".8"/>
      <circle id="rightEye1" cx="599.9" cy="211.4" r=".8"/>
      <circle id="rightEye5" cx="599.9" cy="217.4" r=".8"/>
      <circle id="rightEye2" cx="606.2" cy="211.4" r=".8"/>
      <circle id="rightEye3" cx="611.4" cy="215.6" r=".8"/>
      <circle id="rightEye4" cx="606.2" cy="216.6" r=".8"/>
      <circle id="leftEye0" cx="654.3" cy="215.1" r=".8"/>
      <circle id="leftEye1" cx="649.1" cy="211.4" r=".8"/>
      <circle id="leftEye5" cx="649.1" cy="217.4" r=".8"/>
      <circle id="leftEye2" cx="642.8" cy="211.4" r=".8"/>
      <circle id="leftEye3" cx="637.6" cy="215.6" r=".8"/>
      <circle id="leftEye4" cx="642.8" cy="216.6" r=".8"/>
      <path class="st5" d="M605,229.2c8.6-.9,16.1-.9,22.7,0,1.8.2,4.4-.4,5.7,0,9.6,3.1,11.7,5.4,11.5,16.1-2,33.3-39.8,40.1-55.3,11.6v-8.8l1.7-7.5,3.9-7.9c9.9-3.6-.6-2.5,9.9-3.6h-.1Z"/>
      <path class="st19" d="M642.7,228.2c1,.2,4.6,2.7,5.8,2.8.7.1,4.2,1.5,4.6,1.7l2.7,6.4c-.9,7.3.8,6.6,0,13.5-1.3,13.1-7.8,24.6-19.9,28.6l-29.2-1.1c-.7-.6-3.3-.3-4.8-1.8-5.8-6.1-11.7-13.4-12.5-21.5,6.1,5.6,9.5,12.3,19.5,14.6,19.3,4.5,33.5-6.5,33.7-26.2,0-10.4-9.9-13.1-18.9-18l8-3.7c4.4,3.8,5.4,3,10.8,4.6h0v.2h.1Z"/>
      <path class="st19" d="M629.2,218.4l4-3.5,3.9-1.8c3.2-1.5,7.8-1,11.3-1.1,2.3,0,16.7-4.9,18.9-4.6,1.6.2,0,0-2.3,6.9-4.8,8-4.2,7.1-4.8,8-.8,1.2,0,1.1-5.2,2.9-6.7,2.5-6.3,2.5-6.7,2.5-5.1.2-4.2.4-9.5,1.9-4.6-5.8-13.6,2.3-17.7,1.6-2-.3-2.8-3.3-3-3.5,6-6.6,5.9-8.1,11.3-9.4h-.2Z"/>
      <path class="st5" d="M634.2,217.8c1.9.1,25.6-6.7,27.5-6.6,1.1,5.9-2.5,8.7-5.9,9.5-.2,2-5.2,1.3-6.3,3.1-1.2-.2-2.8.2-3.8,0l-9.2,4.7c.4,0-14.5-.9-12.7-1.2,0-1.2,10.3-8.1,10.4-9.4h0Z"/>
      <path class="st19" d="M599.4,206.6c13.3,3.9,7.5.1,11.5,3.2.4.3,6.1,4.7,8.4,4.6,6.4,8.3-3.1,15-7.9,17,0-1.6-7.6-3.9-8.6-5.2-2.8-3.9-8.5-7.7-10.8-10.2-1.5-1.5-9.8-9.4-7.6-11.3,5.2-.6,10.2.4,15.1,1.9h-.1Z"/>
      <path class="st5" d="M616.3,217.8v3.8c-1.2,0-2,9.7-5,9.7,1.5-3.2-25.2-20.3-21.7-23.8,2.8-2.7,15.8,10,15.3,2.8,1.1-1,11.3,7.5,11.5,7.6h0Z"/>
    </g>
  </g>
  <g id="skeleton">
    <polygon class="st1" points="518.8 349.5 569.1 565.3 685.5 564.5 731.7 349.5 518.8 349.5"/>
    <polyline class="st1" points="517.8 349.5 415.1 349.5 251.8 355.8"/>
    <polyline class="st1" points="733.2 349.1 836.4 349.1 999.7 355.5"/>
    <polyline class="st1" points="569.1 565.3 575.5 725.5 575.5 933.5"/>
    <polyline class="st1" points="685.5 564.5 685.5 725.5 685.5 933.5"/>
    <polyline class="st1" points="624.5 170 604.7 172.5 592.2 182 583.6 196.1 581.1 205.4 580.3 217.1 580.3 226.6 581.1 248.3 587.9 268.3 599.5 280.8 609.5 287.5 624.5 290.7 639.3 287.9 649.3 281.2 660.9 268.6 667.7 248.6 668.5 227 668.5 217.4 667.7 205.7 665.2 196.5 657 182 644.4 172.5 624.5 170"/>
    <polyline class="st1" points="588.5 206.9 592.5 203.2 598.7 202.2 606 202.2 615.8 206.2"/>
    <polygon class="st1" points="594.7 215.1 599.9 211.4 606.2 211.4 611.4 215.6 606.2 216.6 599.9 217.4 594.7 215.1"/>
    <polyline class="st1" points="613 233.2 618.2 233.2 623.7 234 623.7 228.7 623.7 221.6 623.7 216.1 623.7 210.3"/>
    <polyline class="st1" points="660 206.5 656 203.6 649.7 202.1 642.4 202.5 632.4 205.7"/>
    <polygon class="st1" points="654.1 215.1 648.8 211.4 642.5 211.4 637.4 215.6 642.5 216.6 648.8 217.4 654.1 215.1"/>
    <polyline class="st1" points="634.1 233.2 629.1 233.2 623.7 234"/>
    <polygon class="st1" points="607 255.3 613.9 251.9 620.4 250.8 624.5 251.7 628.7 250.8 635.1 251.9 642 255.3 635.6 261.6 628.5 264.4 624.5 264.9 620.4 264.4 613.4 261.6 607 255.3"/>
    <polyline class="st1" points="607 255.3 610.6 255.6 620.6 254.8 624.5 255.3 628.5 254.8 638.4 255.6 642 255.3"/>
    <polyline class="st1" points="607 255.3 610.6 255.6 620.6 257.7 624.5 258.5 628.5 257.7 638.4 255.6 642 255.3"/>
    <circle id="rightShoulder2" cx="518.9" cy="349.2" r="8.2"/>
    <circle id="rightElbow1" cx="415.4" cy="349.3" r="8.2"/>
    <circle id="rightWrist1" cx="252" cy="355.7" r="8.2"/>
    <circle id="rightHip1" cx="569.2" cy="565" r="8.2"/>
    <circle id="rightKnee" cx="575.6" cy="725.2" r="8.2"/>
    <circle id="rightAnkle" cx="575.6" cy="933.2" r="8.2"/>
    <circle id="leftElbow1" cx="836.2" cy="348.9" r="8.2"/>
    <circle id="leftWrist1" cx="999.6" cy="355.2" r="8.2"/>
    <circle id="leftHip1" cx="685.6" cy="564.2" r="8.2"/>
    <circle id="leftKnee" cx="685.6" cy="725.2" r="8.2"/>
    <circle id="leftAnkle" cx="685.6" cy="933.2" r="8.2"/>
    <circle id="rightEye01" cx="594.7" cy="215.1" r=".8"/>
    <circle id="rightBrow1" cx="592.5" cy="203.2" r=".8"/>
    <circle id="rightBrow4" cx="615.8" cy="206.2" r=".8"/>
    <circle id="nose11" cx="623.7" cy="216.1" r=".8"/>
    <circle id="rightBrow3" cx="606" cy="202.2" r=".8"/>
    <circle id="rightEye11" cx="599.9" cy="211.4" r=".8"/>
    <circle id="rightBrow0" cx="588.5" cy="206.9" r=".8"/>
    <circle id="rightBrow2" cx="598.7" cy="202.2" r=".8"/>
    <circle id="rightEye51" cx="599.9" cy="217.4" r=".8"/>
    <circle id="rightEye21" cx="606.2" cy="211.4" r=".8"/>
    <circle id="rightEye31" cx="611.4" cy="215.6" r=".8"/>
    <circle id="nose01" cx="623.7" cy="210.3" r=".8"/>
    <circle id="nose31" cx="623.7" cy="228.7" r=".8"/>
    <circle id="rightNose01" cx="613" cy="233.2" r=".8"/>
    <circle id="rightMouthCorner" cx="607" cy="255.3" r=".8"/>
    <circle id="rightNose11" cx="618.2" cy="233.2" r=".8"/>
    <circle id="rightUpperLipTop0" cx="613.9" cy="251.9" r=".8"/>
    <circle id="nose21" cx="623.7" cy="221.6" r=".8"/>
    <circle id="nose41" cx="623.7" cy="234" r=".8"/>
    <circle id="upperLipTopMid" cx="624.5" cy="251.7" r=".8"/>
    <circle id="rightUpperLipTop1" cx="620.4" cy="250.8" r=".8"/>
    <path id="rightMiddleLip" d="M610.6,254.8c.4,0,.8.4.8.8s-.4.8-.8.8-.8-.4-.8-.8.4-.8.8-.8h0Z"/>
    <circle id="lowerLipBottomMid" cx="624.5" cy="264.9" r=".8"/>
    <circle id="upperLipBottomMid" cx="624.5" cy="255.3" r=".8"/>
    <circle id="lowerLipTopMid" cx="624.5" cy="258.4" r=".8"/>
    <circle id="rightUpperLipBottom1" cx="620.6" cy="254.8" r=".8"/>
    <circle id="rightLowerLipTop0" cx="620.6" cy="257.7" r=".8"/>
    <circle id="rightLowerLipBottom1" cx="620.4" cy="264.4" r=".8"/>
    <circle id="rightLowerLipBottom0" cx="613.4" cy="261.6" r=".8"/>
    <circle id="rightEye41" cx="606.2" cy="216.6" r=".8"/>
    <circle id="jawMid2" cx="624.5" cy="290.7" r=".8"/>
    <circle id="rightJaw72" cx="609.5" cy="287.5" r=".8"/>
    <circle id="rightJaw6" cx="599.5" cy="280.8" r=".8"/>
    <circle id="rightJaw5" cx="587.9" cy="268.3" r=".8"/>
    <circle id="rightJaw4" cx="581.1" cy="248.3" r=".8"/>
    <circle id="rightJaw32" cx="580.3" cy="226.6" r=".8"/>
    <circle id="rightJaw22" cx="580.3" cy="217.1" r=".8"/>
    <circle id="rightJaw1" cx="581.1" cy="205.4" r=".8"/>
    <circle id="rightJaw0" cx="583.6" cy="196.1" r=".8"/>
    <circle id="topMid2" cx="624.7" cy="170" r=".8"/>
    <circle id="leftTop02" cx="644.4" cy="172.5" r=".8"/>
    <circle id="leftTop1" cx="657" cy="182" r=".8"/>
    <circle id="leftEye01" cx="654.3" cy="215.1" r=".8"/>
    <circle id="leftBrow1" cx="656.2" cy="203.6" r=".8"/>
    <circle id="leftBrow4" cx="632.6" cy="205.7" r=".8"/>
    <circle id="leftBrow3" cx="642.6" cy="202.5" r=".8"/>
    <circle id="leftEye11" cx="649.1" cy="211.4" r=".8"/>
    <circle id="leftBrow0" cx="660.2" cy="206.5" r=".8"/>
    <circle id="leftBrow2" cx="649.9" cy="202.1" r=".8"/>
    <circle id="leftEye51" cx="649.1" cy="217.4" r=".8"/>
    <circle id="leftEye21" cx="642.8" cy="211.4" r=".8"/>
    <circle id="leftEye31" cx="637.6" cy="215.6" r=".8"/>
    <circle id="leftNose01" cx="634.1" cy="233.2" r=".8"/>
    <circle id="leftMouthCorner" cx="642" cy="255.3" r=".8"/>
    <circle id="leftNose11" cx="629.3" cy="233.2" r=".8"/>
    <circle id="leftUpperLipTop0" cx="635.1" cy="251.9" r=".8"/>
    <circle id="leftUpperLipTop1" cx="628.7" cy="250.8" r=".8"/>
    <path id="leftMiddleLip" d="M638.4,254.8c.4,0,.8.4.8.8s-.4.8-.8.8-.8-.4-.8-.8.4-.8.8-.8h0Z"/>
    <circle id="leftUpperLipBottom1" cx="628.5" cy="254.8" r=".8"/>
    <circle id="leftLowerLipTop0" cx="628.5" cy="257.7" r=".8"/>
    <circle id="leftLowerLipBottom1" cx="628.7" cy="264.4" r=".8"/>
    <circle id="leftLowerLipBottom0" cx="635.6" cy="261.6" r=".8"/>
    <circle id="leftEye41" cx="642.8" cy="216.6" r=".8"/>
    <circle id="leftJaw72" cx="639.3" cy="287.9" r=".8"/>
    <circle id="leftJaw6" cx="649.3" cy="281.2" r=".8"/>
    <circle id="leftJaw5" cx="660.9" cy="268.6" r=".8"/>
    <circle id="leftJaw4" cx="667.7" cy="248.6" r=".8"/>
    <circle id="leftJaw32" cx="668.5" cy="227" r=".8"/>
    <circle id="leftJaw22" cx="668.5" cy="217.4" r=".8"/>
    <circle id="leftJaw1" cx="667.7" cy="205.7" r=".8"/>
    <circle id="leftJaw0" cx="665.2" cy="196.5" r=".8"/>
    <circle id="rightTop02" cx="604.8" cy="172.5" r=".8"/>
    <circle id="rightTop1" cx="592.2" cy="182" r=".8"/>
    <circle id="leftShoulder2" cx="731.8" cy="349.2" r="8.2"/>
  </g>
</svg>